<?xml version="1.0" encoding="utf-8"?>
<!-- Generator: Adobe Illustrator 27.0.0, SVG Export Plug-In . SVG Version: 6.00 Build 0)  -->
<svg version="1.1" id="Layer_1" xmlns="http://www.w3.org/2000/svg" xmlns:xlink="http://www.w3.org/1999/xlink" x="0px" y="0px"
	 viewBox="0 0 138 50" style="enable-background:new 0 0 138 50;" xml:space="preserve">
<g>
	<path d="M0,26.8c0-0.4,0.1-0.9,0.1-1.3c0.4-2.9,1.5-5.5,3.8-7.5c1.4-1.3,3.1-2.1,5-2.6c2-0.6,4.1-1,6.1-1.3
		c1.8-0.3,3.6-0.5,5.4-0.7c1.6-0.2,3.1-0.3,4.7-0.5c1.6-0.1,3.1-0.3,4.7-0.4c1.3-0.1,2.6-0.2,3.9-0.3c1.4-0.1,2.7-0.2,4.1-0.3
		c1.6-0.1,3.1-0.2,4.7-0.3c1.8-0.1,3.6-0.2,5.3-0.3c1.6-0.1,3.2-0.2,4.8-0.2c2.1-0.1,4.2-0.2,6.2-0.3c2.4-0.1,4.8-0.2,7.2-0.2
		c1.7,0,3.3-0.1,5,0c2.1,0,4.2,0.1,6.3,0.2c2.5,0.1,5.1,0.2,7.6,0.3c1.7,0.1,3.3,0.1,5,0.2c2.1,0.1,4.1,0.2,6.2,0.4
		c1.5,0.1,3.1,0.2,4.6,0.3c1.6,0.1,3.3,0.2,4.9,0.4c1.5,0.1,3,0.2,4.4,0.4c1.5,0.1,3.1,0.3,4.6,0.4c1.6,0.2,3.2,0.3,4.7,0.5
		c3.3,0.4,6.6,0.8,9.8,1.8c1.8,0.6,3.5,1.4,5,2.6c1.7,1.5,2.8,3.4,3.4,5.6c0.9,3.3,0.5,6.4-1.2,9.3c-1.1,1.9-2.7,3.2-4.6,4.2
		c-1.9,0.9-3.8,1.4-5.9,1.7c-2.4,0.3-4.8,0.5-7.2,0.5c-4.2,0.1-8.3,0.2-12.5,0.3c-2.3,0-4.5,0.1-6.8,0.1c-11.7,0-23.4,0-35.1,0
		c-3,0-6,0-9,0c-4.5,0-8.9,0-13.4,0c-2.6,0-5.3,0-7.9-0.1c-3.4,0-6.8-0.1-10.3-0.2c-1.9,0-3.8-0.1-5.8-0.2c-2.5-0.1-4.9-0.3-7.3-0.7
		c-2.1-0.4-4-1.1-5.8-2.2c-2.4-1.6-3.8-3.9-4.5-6.6c-0.2-0.7-0.2-1.5-0.3-2.2C0,27.2,0,27,0,26.8C0,26.8,0,26.8,0,26.8z M69,38.3
		C69,38.3,69,38.3,69,38.3c9,0,17.9,0,26.9,0c3.3,0,6.5,0,9.8-0.1c3.7,0,7.3-0.1,11-0.2c2.5-0.1,5.1-0.2,7.6-0.4
		c2.3-0.2,4.5-0.7,6.5-1.6c2.1-1,3.7-2.5,4.7-4.5c1.2-2.4,1.4-4.8,0.7-7.4c-0.5-1.9-1.4-3.6-2.8-4.9c-1.3-1.2-2.9-2-4.6-2.6
		c-1.7-0.6-3.4-0.9-5.2-1.2c-1.8-0.3-3.5-0.5-5.3-0.7c-1.1-0.1-2.1-0.2-3.2-0.3c-1.3-0.1-2.7-0.3-4-0.4c-1.3-0.1-2.5-0.2-3.8-0.3
		c-1.7-0.1-3.4-0.2-5-0.4c-1.2-0.1-2.4-0.2-3.7-0.2c-1.6-0.1-3.1-0.2-4.7-0.3c-1.8-0.1-3.5-0.2-5.3-0.3c-2.1-0.1-4.2-0.2-6.2-0.3
		c-2.1-0.1-4.2-0.2-6.3-0.2c-2.7-0.1-5.4-0.1-8.1-0.2c-2,0-4,0.1-6,0.1c-2.6,0.1-5.1,0.2-7.7,0.3c-2,0.1-4,0.2-6,0.3
		c-2.8,0.2-5.7,0.3-8.5,0.5c-2,0.1-4.1,0.3-6.1,0.4c-2.5,0.2-5,0.4-7.5,0.6c-1.9,0.2-3.9,0.3-5.8,0.6c-2.3,0.3-4.6,0.6-7,0.9
		c-1.9,0.3-3.7,0.7-5.5,1.5c-2.3,1-4.3,2.4-5.4,4.7c-1.2,2.4-1.6,4.9-1,7.6c0.6,2.4,1.8,4.4,3.9,5.8c1.6,1.1,3.4,1.7,5.3,2.2
		c2,0.4,4,0.6,6,0.7c2.6,0.1,5.2,0.2,7.8,0.3c3.3,0.1,6.5,0.1,9.8,0.1c5,0,10,0,15,0C56,38.3,62.5,38.3,69,38.3z"/>
	<path d="M69,36.3c-6,0-12,0-18,0c-4,0-8-0.1-11.9-0.1c-2.7,0-5.4-0.1-8-0.2c-2.4-0.1-4.9-0.1-7.3-0.3c-1.9-0.1-3.9-0.3-5.8-0.4
		c-1.4-0.1-2.8-0.4-4-1c-2.5-1.3-4.1-3.4-4.7-6.2c-0.8-3.7,1-7.5,4.3-9.4c1.3-0.7,2.6-1.1,4-1.4c2.3-0.3,4.6-0.7,7-0.9
		c2.3-0.3,4.7-0.5,7.1-0.7c1.7-0.2,3.4-0.3,5.1-0.4c2-0.1,3.9-0.3,5.9-0.4c2-0.1,4-0.2,6-0.3c2-0.1,4-0.2,6-0.3
		c1.4-0.1,2.8-0.1,4.2-0.2c3.7-0.1,7.4-0.2,11.1-0.2c3.4,0,6.7,0.1,10.1,0.2c1.9,0.1,3.9,0.1,5.8,0.2c2.2,0.1,4.4,0.2,6.5,0.4
		c1.6,0.1,3.2,0.2,4.8,0.3c1.6,0.1,3.3,0.2,4.9,0.4c1.5,0.1,2.9,0.2,4.4,0.4c1.5,0.1,3,0.3,4.4,0.4c1.6,0.2,3.2,0.3,4.7,0.5
		c2.4,0.3,4.7,0.5,7,1.2c3.2,1,5.4,3.1,6.2,6.4c0.7,2.7,0.1,5.3-1.6,7.5c-1.4,1.8-3.2,3-5.5,3.3c-1.6,0.3-3.3,0.4-4.9,0.5
		c-4.7,0.3-9.4,0.4-14.1,0.5c-2.2,0-4.5,0.1-6.7,0.1c-6.2,0-12.4,0.1-18.6,0.1C74.5,36.3,71.7,36.3,69,36.3C69,36.3,69,36.3,69,36.3
		z M97.8,19.5c-0.7,0-1,0.1-1.2,0.8c-1,2.9-2,5.8-3,8.7c-0.2,0.6-0.5,1.3-0.7,1.9c-0.1,0.4,0,0.6,0.5,0.6c0.3,0,0.7,0,1,0
		c0.5,0,0.7-0.2,0.9-0.6c0.1-0.3,0.2-0.6,0.3-0.9c0.6-1.8,1.2-3.6,1.9-5.4c0.1-0.2,0.2-0.5,0.4-0.5c0.3,0,0.3,0.3,0.3,0.5
		c0.3,1.5,0.6,3,0.9,4.5c0.1,0.6,0.2,1.2,0.4,1.8c0.1,0.4,0.2,0.5,0.6,0.5c0.3,0,0.6,0,0.9,0c0.7,0,0.9-0.1,1.1-0.8
		c0.4-1.3,0.9-2.5,1.3-3.8c0.8-2.2,1.5-4.4,2.3-6.5c0.2-0.5,0-0.7-0.4-0.7c-0.3,0-0.6,0-0.9,0c-0.5,0-0.8,0.2-1,0.6
		c-0.3,0.7-0.5,1.5-0.8,2.2c-0.4,1.1-0.8,2.2-1.2,3.3c-0.1,0.2-0.3,0.3-0.4,0.5c-0.1-0.2-0.2-0.3-0.3-0.5c-0.2-0.7-0.3-1.5-0.4-2.2
		c-0.2-1.2-0.4-2.3-0.7-3.5c-0.1-0.5-0.3-0.7-0.8-0.7 M51.9,31.6c0.8,0,1.5,0,2.3,0c1.1,0,1.9-0.6,2.3-1.6c0.7-1.7,1.3-3.4,2-5.1
		c0.1-0.3,0-0.6-0.4-0.6c-1.1,0-2.3,0-3.4,0c-0.4,0-0.7,0.2-0.8,0.7c-0.1,0.2-0.1,0.4-0.2,0.6c-0.1,0.3,0.1,0.5,0.4,0.5
		c0.3,0,0.6,0,0.9,0c0.5,0,0.7,0.2,0.5,0.7c-0.2,0.6-0.5,1.3-0.7,1.9c-0.2,0.7-0.7,1-1.4,1c-0.8,0-1.6,0-2.4,0c-0.7,0-1-0.4-0.8-1.1
		c0.8-2.4,1.7-4.8,2.5-7.2c0.2-0.4,0.4-0.6,0.9-0.6c1.1,0,2.2,0,3.3,0c0.4,0,0.6,0.2,0.5,0.6c-0.1,0.3,0.1,0.5,0.4,0.5
		c0.4,0,0.8,0,1.2,0c0.1,0,0.3-0.1,0.4-0.2c0.9-1,0.4-2.4-0.8-2.7c-0.7-0.1-1.5-0.2-2.2-0.2c-1.3,0-2.5-0.1-3.8,0.2
		c-1.1,0.2-1.7,0.8-2.1,1.8c-0.6,1.8-1.3,3.6-1.9,5.4c-0.3,0.9-0.7,1.8-0.9,2.8c-0.4,1.4,0.5,2.5,2,2.5
		C50.4,31.6,51.2,31.6,51.9,31.6z M64.7,26.2C64.7,26.2,64.7,26.2,64.7,26.2c0.5,0,1,0,1.5,0c0.4,0,0.5,0.2,0.4,0.6
		c-0.1,0.2-0.2,0.5-0.2,0.7c-0.4,1.1-0.8,2.3-1.2,3.4c-0.2,0.5,0.1,0.8,0.5,0.7c0.3,0,0.6,0,0.8,0c0.7,0,0.9-0.2,1.1-0.8
		c0.7-2,1.4-4,2.1-5.9c0.6-1.8,1.2-3.6,1.9-5.3c0.2-0.5,0-0.7-0.5-0.7c-0.2,0-0.5,0-0.7,0c-0.7,0-0.9,0.2-1.2,0.8
		c-0.5,1.3-0.9,2.6-1.4,3.9c-0.2,0.5-0.4,0.7-0.9,0.7c-0.9,0-1.8,0-2.8,0c-0.4,0-0.6-0.2-0.4-0.6c0.2-0.5,0.3-0.9,0.5-1.4
		c0.3-0.9,0.7-1.9,1-2.8c0.2-0.4,0-0.6-0.5-0.6c-0.3,0-0.6,0-0.9,0c-0.7,0-0.9,0.2-1.1,0.8c-1.2,3.5-2.5,7.1-3.7,10.6
		c-0.1,0.3-0.2,0.5-0.3,0.8c-0.1,0.4,0,0.6,0.4,0.6c0.3,0,0.6,0,0.9,0c0.7,0,0.9-0.1,1.2-0.9c0.5-1.3,0.9-2.6,1.4-3.9
		c0.2-0.5,0.4-0.7,1-0.7C63.8,26.2,64.3,26.2,64.7,26.2z M30.7,31.6c0.2,0,0.4,0,0.6,0c0.4,0,0.6-0.2,0.5-0.6
		c-0.2-1.3-0.4-2.6-0.7-3.8c-0.1-0.4,0-0.5,0.4-0.5c0.6-0.1,1.1-0.4,1.4-0.9c0.4-0.6,0.7-1.2,0.9-1.9c0.3-0.8,0.5-1.6,0.4-2.5
		c0-0.7-0.4-1.1-1-1.3c-0.4-0.1-0.8-0.2-1.1-0.1c-1.5,0.1-2.9,0.2-4.4,0.2c-0.6,0-0.9,0.3-1,0.8c-0.9,2.7-1.9,5.5-2.8,8.2
		c-0.2,0.6-0.4,1.2-0.6,1.8c-0.1,0.4,0,0.6,0.4,0.6c0.3,0,0.6,0,0.9,0c0.6,0,0.8-0.2,1-0.7c0.4-1.1,0.8-2.2,1.2-3.3
		c0.3-1,0.3-1,1.4-0.9c0,0,0.1,0,0.1,0c0.2,0,0.4,0.1,0.4,0.4c0,0.2,0.1,0.4,0.1,0.6c0.2,1.1,0.4,2.2,0.6,3.3
		c0.1,0.5,0.3,0.7,0.8,0.7C30.3,31.6,30.5,31.6,30.7,31.6z M120.8,31.7c0.2,0,0.3,0,0.5,0c0.5,0,0.7-0.2,0.5-0.7
		c-0.4-1.2-0.8-2.4-1.2-3.6c-0.1-0.3-0.1-0.4,0.3-0.5c0.4-0.1,0.7-0.3,0.9-0.6c0.7-1.1,1.1-2.3,1.2-3.5c0.1-0.8-0.4-1.4-1.2-1.7
		c-0.3-0.1-0.7-0.2-1.1-0.2c-1.3-0.1-2.5-0.2-3.8-0.3c-0.2,0-0.3,0.1-0.5,0.1c-0.3,0.1-0.4,0.4-0.5,0.7c-0.7,2.1-1.5,4.2-2.2,6.4
		c-0.4,1.1-0.8,2.2-1.1,3.2c-0.1,0.4,0,0.6,0.5,0.6c0.3,0,0.7,0,1,0c0.4,0,0.7-0.2,0.9-0.6c0-0.1,0.1-0.2,0.1-0.4
		c0.4-1.1,0.8-2.3,1.3-3.4c0.1-0.4,0.3-0.5,0.7-0.4c0.2,0,0.4,0,0.6,0c0.2,0,0.3,0.1,0.4,0.3c0.4,1.3,0.8,2.5,1.2,3.8
		c0.1,0.5,0.4,0.7,0.9,0.7C120.5,31.7,120.6,31.7,120.8,31.7z M36.5,31.6c1,0,2,0,3,0c0.4,0,0.7-0.2,0.8-0.5
		c0.1-0.2,0.2-0.4,0.2-0.6c0.2-0.5,0-0.7-0.5-0.7c-1,0-2.1,0-3.1,0c-0.5,0-0.6-0.2-0.5-0.7c0.3-0.7,0.5-1.4,0.8-2.1
		c0.2-0.5,0.4-0.6,0.9-0.6c0.8,0,1.6,0,2.4-0.1c0.4,0,0.7-0.2,0.8-0.5c0.1-0.2,0.2-0.4,0.2-0.6c0.1-0.4,0-0.7-0.5-0.7
		c-0.8,0-1.6,0-2.4,0c-0.5,0-0.6-0.2-0.5-0.7c0.2-0.6,0.4-1.2,0.6-1.8c0.1-0.4,0.4-0.6,0.9-0.6c1,0,2.1-0.1,3.1-0.1
		c0.4,0,0.8-0.2,0.9-0.6c0.1-0.2,0.2-0.5,0.3-0.7c0.2-0.4,0.1-0.7-0.5-0.7c-1.9,0.1-3.8,0.1-5.7,0.2c-0.6,0-0.8,0.2-1,0.8
		c-0.7,1.9-1.3,3.8-2,5.7c-0.6,1.6-1.1,3.3-1.7,4.9c-0.2,0.5,0,0.7,0.4,0.7C34.6,31.6,35.5,31.6,36.5,31.6z M107.5,31.6
		c0.9,0,1.9,0,2.8,0c0.5,0,0.7-0.2,0.9-0.6c0.1-0.2,0.1-0.4,0.2-0.5c0.2-0.5,0-0.7-0.5-0.7c-1,0-2.1,0-3.1,0c-0.5,0-0.7-0.2-0.5-0.7
		c0.2-0.6,0.4-1.2,0.6-1.7c0.2-0.5,0.5-0.7,1-0.7c0.7,0,1.5,0,2.2,0.1c0.4,0,0.7-0.2,0.8-0.5c0.1-0.2,0.2-0.5,0.3-0.7
		c0.1-0.4,0-0.6-0.4-0.6c-0.8,0-1.6-0.1-2.4-0.1c-0.4,0-0.6-0.2-0.4-0.6c0.2-0.5,0.3-1,0.5-1.5c0.2-0.4,0.5-0.6,1-0.6
		c1,0.1,2.1,0.1,3.1,0.2c0.4,0,0.7-0.1,0.9-0.5c0.1-0.3,0.2-0.5,0.3-0.8c0.1-0.3-0.1-0.5-0.4-0.5c-0.2,0-0.5,0-0.7-0.1
		c-1.6-0.1-3.2-0.2-4.9-0.3c-0.5,0-0.9,0.1-1,0.6c-1.2,3.4-2.4,6.8-3.6,10.3c-0.1,0.4,0,0.6,0.4,0.6
		C105.6,31.6,106.5,31.6,107.5,31.6z M74.1,18.9c-0.5,0-0.8,0.2-1,0.7c-0.1,0.2-0.1,0.4-0.2,0.6c-0.2,0.5,0,0.7,0.5,0.7
		c0.7,0,1.4,0,2.1,0c0.4,0,0.5,0.2,0.4,0.6c0,0,0,0.1,0,0.1c-0.9,2.5-1.8,5.1-2.6,7.6c-0.2,0.6-0.4,1.2-0.6,1.8
		c-0.1,0.4,0,0.6,0.5,0.6c0.4,0,0.7,0,1.1,0c0.4,0,0.6-0.2,0.8-0.5c0.1-0.1,0.1-0.2,0.1-0.4c1-3,2.1-6,3.1-9.1
		c0.2-0.6,0.5-0.8,1.1-0.8c0.5,0,1,0,1.5,0c0.4,0,0.7-0.2,0.9-0.6c0.1-0.2,0.2-0.4,0.2-0.7c0.2-0.5,0-0.7-0.5-0.7 M21.6,20.5
		c-0.6,0-1.5,0.1-2.4,0.1c-0.5,0-0.7,0.2-0.9,0.7c-0.6,1.7-1.2,3.4-1.8,5.1c-0.5,1.5-1,3-1.5,4.5c-0.1,0.4,0,0.6,0.5,0.7
		c0.3,0,0.6,0,1,0c0.6,0,0.8-0.2,1-0.7c0.4-1.1,0.7-2.2,1.1-3.2c0.2-0.6,0.4-0.8,1.1-0.8c0.6,0,1.3,0,1.9,0c0.5,0,0.8-0.2,0.9-0.7
		c0.1-0.2,0.2-0.5,0.2-0.7c0.1-0.4-0.1-0.6-0.4-0.6c-0.7,0-1.4,0-2.1,0c-0.5,0-0.6-0.2-0.5-0.7c0.1-0.3,0.2-0.6,0.3-0.9
		c0.2-0.5,0.4-0.7,1-0.8c0.9-0.1,1.9-0.1,2.8-0.2c0.5,0,0.7-0.2,0.9-0.7c0.1-0.2,0.2-0.5,0.2-0.7c0.1-0.4-0.1-0.6-0.5-0.6
		C23.5,20.4,22.7,20.5,21.6,20.5z M82.9,31.6c0.9,0,1.8,0,2.8,0c0.5,0,0.7-0.2,0.9-0.6c0.1-0.2,0.2-0.4,0.2-0.6
		c0.1-0.4,0-0.6-0.5-0.6c-1,0-2,0-3,0c-0.5,0-0.7-0.2-0.5-0.7c0.6-1.7,1.2-3.4,1.8-5.1c0.5-1.4,1-2.7,1.4-4.1c0.2-0.5,0-0.7-0.5-0.7
		c-0.3,0-0.6,0-0.8,0c-0.6,0-0.8,0.2-1.1,0.8c-0.7,2-1.4,4.1-2.1,6.1c-0.6,1.7-1.2,3.3-1.7,5c-0.2,0.4,0,0.7,0.5,0.7
		C81.1,31.6,82,31.6,82.9,31.6z M43.4,31.6c0.1,0,0.3,0,0.4,0c0.6,0,0.8-0.2,1-0.7c0.3-0.7,0.5-1.5,0.8-2.2c1-2.9,2-5.8,3-8.7
		c0.2-0.5,0-0.8-0.6-0.7c-0.3,0-0.5,0-0.8,0c-0.6,0-0.8,0.2-1,0.7c-1,2.8-2,5.6-2.9,8.4c-0.3,0.9-0.6,1.7-0.9,2.6
		c-0.1,0.4,0,0.6,0.4,0.6C43.1,31.6,43.2,31.6,43.4,31.6z M88.9,31.6c0.1,0,0.2,0,0.3,0c0.7,0,0.9-0.1,1.1-0.8
		c0.9-2.6,1.8-5.2,2.7-7.8c0.3-1,0.7-2,1-3c0.2-0.5,0-0.7-0.5-0.7c-0.3,0-0.5,0-0.8,0c-0.7,0-0.9,0.1-1.2,0.8
		c-1,2.8-1.9,5.6-2.9,8.4c-0.3,0.8-0.6,1.7-0.9,2.5c-0.1,0.4,0,0.6,0.4,0.6C88.5,31.6,88.7,31.6,88.9,31.6z"/>
	<path d="M29.3,24.7c-0.3,0-0.7,0-1,0c-0.3,0-0.5-0.2-0.4-0.5c0.2-0.6,0.4-1.2,0.6-1.7c0.1-0.3,0.5-0.4,0.8-0.4
		c0.5,0,1.1-0.1,1.6-0.1c0.8,0,1.1,0.3,0.8,1.1c-0.1,0.4-0.3,0.7-0.5,1.1c-0.2,0.4-0.5,0.5-0.9,0.5C30,24.7,29.7,24.7,29.3,24.7
		C29.3,24.7,29.3,24.7,29.3,24.7z"/>
	<path d="M119,25.2c-0.5,0-1-0.1-1.5-0.1c-0.3,0-0.4-0.2-0.3-0.5c0.2-0.5,0.3-1,0.5-1.5c0.1-0.4,0.5-0.5,0.9-0.5
		c0.4,0,0.9,0.1,1.3,0.1c0.5,0.1,0.7,0.3,0.5,0.8c-0.1,0.4-0.3,0.7-0.5,1.1C119.8,25.1,119.5,25.3,119,25.2z"/>
</g>
</svg>
