<?xml version="1.0" encoding="utf-8"?>
<!-- Generator: Adobe Illustrator 27.2.0, SVG Export Plug-In . SVG Version: 6.00 Build 0)  -->
<svg version="1.1" id="Layer_1" xmlns="http://www.w3.org/2000/svg" xmlns:xlink="http://www.w3.org/1999/xlink" x="0px" y="0px"
	 viewBox="0 0 138 50" style="enable-background:new 0 0 138 50;" xml:space="preserve">
<style type="text/css">
	.st0{fill-rule:evenodd;clip-rule:evenodd;}
</style>
<g>
	<path class="st0" d="M41.7,25c0,10.4-13.9,13.5-16.9,13.4c-2.5-0.1-2.1-1.3-0.5-1.9c1.7-0.6,9.2-3,9.8-7.6c0.2-1.7-2.9-1.9-13.2-2
		c-10.2,0-13.4,0.2-13.2,2c0.6,4.6,8.1,7,9.8,7.6s2.1,1.8-0.5,1.9c-3.1,0.1-17-3-17-13.4s13.9-13.5,16.9-13.4
		c2.5,0.1,2.1,1.3,0.5,1.9c-1.7,0.6-9.2,3-9.8,7.6c-0.2,1.7,2.9,2,13.2,2s13.4-0.2,13.2-2c-0.6-4.6-8.1-7-9.8-7.6
		c-1.7-0.6-2.1-1.8,0.5-1.9C27.9,11.5,41.7,14.6,41.7,25L41.7,25z M7.1,22.8c-0.3-0.1-0.5-0.2-0.6-0.1S6.2,22.8,6,23
		c-0.2,0.1-0.4,0.3,0,0.4C7.6,24,18.5,24,20.9,24c2.5,0,13.3,0,15-0.6c0.4-0.1,0.2-0.3,0-0.4s-0.4-0.2-0.5-0.3
		c-0.1-0.1-0.3,0-0.6,0.1c-1.4,0.6-0.6,0.8-13.9,0.8S8.4,23.4,7.1,22.8L7.1,22.8z M40.9,25.3c0-1.1-0.4-5.5-5-8.8
		c-4.6-3.4-8.9-3.9-9.9-4.1c-1-0.2-2.1-0.1-0.1,0.4c7.9,2.1,10.4,5.4,11.9,8.5c1.5,3-1.4,3-3.3,3.1c-1.9,0.1-8.6,0.1-13.5,0.1
		s-11.7,0-13.5-0.1c-1.9-0.1-4.8-0.1-3.3-3.1s4-6.4,11.9-8.5c1.9-0.5,0.9-0.6-0.1-0.4c-1,0.2-5.4,0.7-9.9,4.1c-4.6,3.4-5,7.7-5,8.8
		c0,0.8,0.3,0.3,0.3,0s0.3-3.5,2.8-6.1c0.3-0.3,0.5-0.2,0.2,0.2c-0.2,0.4-2.1,2.8-1.9,6.2c0.2,3.3,2.7,9.6,14.1,12
		c0.3,0.1,1.1,0,0-0.3s-8.6-2-11.8-7.4c-3-5.1,1.8-4.5,4.1-4.6c2.2,0,8.7,0,11.8,0l0,0c0.1,0,0.3,0,0.4,0c0.2,0,0.3,0,0.4,0l0,0
		c3,0,9.6,0,11.8,0c2.4,0.1,7.1-0.5,4.1,4.6c-3.2,5.4-10.7,7.1-11.8,7.4c-1.1,0.3-0.3,0.4,0,0.3c11.4-2.4,13.9-8.7,14.1-12
		c0.2-3.3-1.7-5.8-1.9-6.2c-0.2-0.4,0-0.5,0.2-0.2c2.5,2.7,2.8,5.8,2.8,6.1C40.7,25.6,40.9,26.1,40.9,25.3L40.9,25.3z"/>
	<g>
		<path class="st0" d="M62.1,19.2h6.7V32h-6.7v-2.5c0-1.2-0.8-1.8-1.6-1.8H55c-0.8,0-1.6,0.6-1.6,1.8V32h-5.9V19.2h5.9v2.1
			c0,1.2,0.8,1.8,1.6,1.8h5.5c0.8,0,1.6-0.6,1.6-1.8V19.2L62.1,19.2z"/>
		<polygon class="st0" points="74.5,31.9 81.5,31.9 81.5,19.2 74.5,19.2 		"/>
		<path class="st0" d="M103.2,22.9c0,0.6-0.3,0.8-0.8,0.8c-0.8,0-8.1-4.5-8.8-4.5h-6.5V32h6.5v-5.3c0-0.5,0.3-0.9,0.8-0.9
			c0.9,0,2.5,0.6,7.6,4.2c1.2,0.8,1.1,1.5,1.1,1.9l0,0h6.5V19.2h-6.5v3.7H103.2z"/>
		<path class="st0" d="M131.8,18.6H121c-3.2,0-6.2,1.6-6.2,5.5v3.1c0,3.4,1.4,4.7,4.8,5.3c2,0.3,4.9,0.5,6.7,0.5
			c1.9,0,4.7-0.2,6.8-0.5c3.4-0.6,4.8-1.9,4.8-5.3v-3.1C138,20.2,135,18.6,131.8,18.6z M131.5,27c0,1.1-0.9,2-2.1,2h-6.2
			c-0.7,0-1.2-0.4-1.5-0.6c-0.2-0.2-0.6-0.7-0.6-1.4v-2.8c0-0.7,0.4-1.2,0.6-1.4c0.2-0.2,0.7-0.6,1.5-0.6h6.2c0.7,0,1.2,0.4,1.5,0.6
			c0.2,0.2,0.6,0.7,0.6,1.4V27z"/>
	</g>
</g>
</svg>
