<?xml version="1.0" encoding="utf-8"?>
<!-- Generator: Adobe Illustrator 27.2.0, SVG Export Plug-In . SVG Version: 6.00 Build 0)  -->
<svg version="1.1" id="Layer_1" xmlns="http://www.w3.org/2000/svg" xmlns:xlink="http://www.w3.org/1999/xlink" x="0px" y="0px"
	 viewBox="0 0 138 50" style="enable-background:new 0 0 138 50;" xml:space="preserve">
<g id="_x30_.-Components">
	<g id="Top_Navigation">
		<g id="MENU">
			<g id="Nav_International-Copy">
				<g id="Imported-Layers-Copy-7">
					<path id="Fill-1" d="M0,19.7h3v10.8H0V19.7L0,19.7z"/>
					<path id="Fill-2" d="M52.6,19.7h2.5l4.3,5.6v-5.6h2.9v10.8h-2.3l-4.5-5.5v5.5h-3L52.6,19.7"/>
					<path id="Fill-3" d="M104.8,19.7h2.5l4.3,5.6v-5.6h3v10.8h-2.3l-4.5-5.5v5.5h-3L104.8,19.7"/>
					<path id="Fill-4" d="M6.5,19.7H9l4.3,5.5v-5.5h3v10.8H14l-4.5-5.6v5.6h-3V19.7"/>
					<path id="Fill-5" d="M24.6,30.5h-3v-8.3h-2.8v-2.5l8.5,0v2.5h-2.8L24.6,30.5"/>
					<path id="Fill-6" d="M79,22.2h-2.8v-2.5h8.5v2.5h-2.8v8.2h-3V22.2"/>
					<path id="Fill-7" d="M30,19.7h7.3v2.5H33V24h4.3v2.3h-4.3V28h4.4v2.5H30L30,19.7"/>
					<path id="Fill-8" d="M47.8,26.6c0.9-0.2,1.7-0.9,1.7-2.3v-2.2c0-1.4-0.8-2.5-2.4-2.5h-6.5v10.8h3v-3.8h1.1l2.1,3.8H50
						L47.8,26.6L47.8,26.6z M46.7,24.3h-3.1v-2.1h3.1L46.7,24.3L46.7,24.3z"/>
					<path id="Fill-9" d="M68.1,19.7l-3.6,10.8h3.2l0.9-2.5h3.4l0.8,2.5H76l-3.5-10.8H68.1L68.1,19.7z M68.9,25.8l1.4-3.9l1.3,3.9
						H68.9z"/>
					<path id="Fill-10" d="M120.3,19.7l-3.6,10.8h3.2l0.9-2.5h3.4l0.9,2.5h3.2l-3.5-10.8H120.3z M121.1,25.8l1.4-3.9l1.3,3.9H121.1
						L121.1,25.8z"/>
					<path id="Fill-11" d="M87.2,30.5V19.7h3v10.8H87.2"/>
					<path id="Fill-12" d="M95.9,19.7c-1.9,0-3,1.2-3,3.2v4.3c0,1.9,1.1,3.2,2.9,3.2H99c2,0,3.1-1.1,3.1-3.2v-4.4
						c0-2.1-1.1-3.2-3-3.2H95.9L95.9,19.7z M95.9,27.9v-5.7h3.2v5.7H95.9L95.9,27.9z"/>
					<path id="Fill-13" d="M137.8,27.9v2.5h-7.4V19.6h2.9v8.3H137.8"/>
					<path id="Fill-14" d="M136.5,20.2h0.1c0.2,0,0.2,0,0.3,0c0.1,0,0.1,0.1,0.1,0.2c0,0.2-0.2,0.2-0.3,0.2h-0.2V20.2L136.5,20.2z
						 M136.2,20v1.5h0.3v-0.6h0.1c0.3,0,0.3,0,0.3,0.3c0,0.1,0,0.2,0.1,0.3h0.4c-0.1-0.1-0.1-0.3-0.1-0.5c0-0.2-0.1-0.3-0.2-0.3
						c0,0,0.3-0.1,0.3-0.3c0-0.2-0.1-0.3-0.3-0.4c-0.1,0-0.2,0-0.3,0H136.2L136.2,20z M137.9,20.7c0-0.6-0.5-1.2-1.1-1.2h0
						c-0.6,0-1.2,0.5-1.2,1.2c0,0.7,0.6,1.2,1.2,1.2C137.4,21.9,137.9,21.4,137.9,20.7L137.9,20.7z M137.8,20.7
						c0,0.6-0.5,1.1-1.1,1.1h0c-0.6,0-1.1-0.5-1.1-1.1c0,0,0,0,0,0c0-0.6,0.5-1.1,1.1-1.1C137.4,19.6,137.8,20.1,137.8,20.7
						L137.8,20.7z"/>
				</g>
			</g>
		</g>
	</g>
</g>
</svg>
