<?xml version="1.0" encoding="utf-8"?>
<!-- Generator: Adobe Illustrator 27.3.1, SVG Export Plug-In . SVG Version: 6.00 Build 0)  -->
<svg version="1.1" id="Layer_1" xmlns="http://www.w3.org/2000/svg" xmlns:xlink="http://www.w3.org/1999/xlink" x="0px" y="0px"
	 viewBox="0 0 138 50" style="enable-background:new 0 0 138 50;" xml:space="preserve">
<style type="text/css">
	.st0{fill-rule:evenodd;clip-rule:evenodd;}
</style>
<g>
	<polygon class="st0" points="6.9,36.2 6.9,13.8 0,13.8 0,36.2 6.9,36.2 6.9,36.2 	"/>
	<path class="st0" d="M64.1,36.2c6.2,0,7.9-2.9,7.9-6.6l0,0V13.8h-6.9v13.6l0,0c0,2-0.5,3.6-4.1,3.6l0,0h-3.8l0,0
		c-3.6,0-4.1-1.6-4.1-3.6l0,0V13.8h-6.9v15.9l0,0c0,3.7,1.7,6.6,7.9,6.6l0,0H64.1L64.1,36.2L64.1,36.2z"/>
	<path class="st0" d="M130.1,36.2c6.2,0,7.9-2.9,7.9-6.6l0,0V13.8h-6.9v13.6l0,0c0,2-0.5,3.6-4.1,3.6l0,0h-3.8l0,0
		c-3.6,0-4.1-1.6-4.1-3.6l0,0V13.8h-6.9v15.9l0,0c0,3.7,1.7,6.6,7.9,6.6l0,0H130.1L130.1,36.2L130.1,36.2z"/>
	<path class="st0" d="M13.4,31v5.2h22.4l0,0c3.7,0,5.1-2.8,5.4-4.2c0.3-1.4-0.1-4.6-2.6-5.5l0,0l-16.8-6.3l0,0
		c-0.7-0.3-0.3-1.2,0.5-1.2l0,0h16.6v-5.2H21.8l0,0c-3.6,0-6.7,1.3-7.5,3.8c-0.7,2.2-0.6,5.7,2.7,6.8l0,0l15.1,5.6l0,0
		c1,0.4,0.7,1.1-0.1,1.1l0,0H13.4L13.4,31L13.4,31z"/>
	<path class="st0" d="M104.8,31v5.2H83.3l0,0c-3.7,0-4.4-2.1-4.7-3.5c-0.3-1.4,0.1-4.6,2.6-5.5l0,0l15.3-7.8l0,0
		c0.3-0.1,0.4-0.4,0-0.4l0,0H79.2v-5.2h17.4l0,0c3.6,0,6.7,0.2,7.7,2.5c1,2.1,0.5,5.3-2.9,6.4l0,0l-14.4,7.3l0,0c-0.7,0.3-0.8,1,0,1
		l0,0H104.8L104.8,31L104.8,31z"/>
</g>
</svg>
