<?xml version="1.0" encoding="utf-8"?>
<!-- Generator: Adobe Illustrator 27.3.1, SVG Export Plug-In . SVG Version: 6.00 Build 0)  -->
<svg version="1.1" id="Layer_1" xmlns="http://www.w3.org/2000/svg" xmlns:xlink="http://www.w3.org/1999/xlink" x="0px" y="0px"
	 viewBox="0 0 138 50" style="enable-background:new 0 0 138 50;" xml:space="preserve">
<path d="M12.1,17.9c-2.4,0-4.3,1.9-4.3,4.3c0,2.4,1.9,4.3,4.3,4.3c2.4,0,4.3-1.9,4.3-4.3C16.4,19.9,14.5,17.9,12.1,17.9z M10.7,18.9
	h0.7v1.4h0l0.9-1.4h0.7l-0.9,1.4l1.1,1.5h-0.8l-1-1.4h-0.1v1.4h-0.7V18.9z M13.2,25.5h-0.7L12,23.7h0l-0.4,1.8h-0.7l-0.8-2.9h0.7
	l0.5,1.8h0l0.5-1.8h0.6l0.5,1.8h0l0.4-1.8h0.7L13.2,25.5z M12.1,17.9c-2.4,0-4.3,1.9-4.3,4.3c0,2.4,1.9,4.3,4.3,4.3
	c2.4,0,4.3-1.9,4.3-4.3C16.4,19.9,14.5,17.9,12.1,17.9z M10.7,18.9h0.7v1.4h0l0.9-1.4h0.7l-0.9,1.4l1.1,1.5h-0.8l-1-1.4h-0.1v1.4
	h-0.7V18.9z M13.2,25.5h-0.7L12,23.7h0l-0.4,1.8h-0.7l-0.8-2.9h0.7l0.5,1.8h0l0.5-1.8h0.6l0.5,1.8h0l0.4-1.8h0.7L13.2,25.5z
	 M12.1,17.9c-2.4,0-4.3,1.9-4.3,4.3c0,2.4,1.9,4.3,4.3,4.3c2.4,0,4.3-1.9,4.3-4.3C16.4,19.9,14.5,17.9,12.1,17.9z M10.7,18.9h0.7
	v1.4h0l0.9-1.4h0.7l-0.9,1.4l1.1,1.5h-0.8l-1-1.4h-0.1v1.4h-0.7V18.9z M13.2,25.5h-0.7L12,23.7h0l-0.4,1.8h-0.7l-0.8-2.9h0.7
	l0.5,1.8h0l0.5-1.8h0.6l0.5,1.8h0l0.4-1.8h0.7L13.2,25.5z M12.1,17.9c-2.4,0-4.3,1.9-4.3,4.3c0,2.4,1.9,4.3,4.3,4.3
	c2.4,0,4.3-1.9,4.3-4.3C16.4,19.9,14.5,17.9,12.1,17.9z M10.7,18.9h0.7v1.4h0l0.9-1.4h0.7l-0.9,1.4l1.1,1.5h-0.8l-1-1.4h-0.1v1.4
	h-0.7V18.9z M13.2,25.5h-0.7L12,23.7h0l-0.4,1.8h-0.7l-0.8-2.9h0.7l0.5,1.8h0l0.5-1.8h0.6l0.5,1.8h0l0.4-1.8h0.7L13.2,25.5z
	 M12.1,17.9c-2.4,0-4.3,1.9-4.3,4.3c0,2.4,1.9,4.3,4.3,4.3c2.4,0,4.3-1.9,4.3-4.3C16.4,19.9,14.5,17.9,12.1,17.9z M10.7,18.9h0.7
	v1.4h0l0.9-1.4h0.7l-0.9,1.4l1.1,1.5h-0.8l-1-1.4h-0.1v1.4h-0.7V18.9z M13.2,25.5h-0.7L12,23.7h0l-0.4,1.8h-0.7l-0.8-2.9h0.7
	l0.5,1.8h0l0.5-1.8h0.6l0.5,1.8h0l0.4-1.8h0.7L13.2,25.5z M12.1,17.9c-2.4,0-4.3,1.9-4.3,4.3c0,2.4,1.9,4.3,4.3,4.3
	c2.4,0,4.3-1.9,4.3-4.3C16.4,19.9,14.5,17.9,12.1,17.9z M10.7,18.9h0.7v1.4h0l0.9-1.4h0.7l-0.9,1.4l1.1,1.5h-0.8l-1-1.4h-0.1v1.4
	h-0.7V18.9z M13.2,25.5h-0.7L12,23.7h0l-0.4,1.8h-0.7l-0.8-2.9h0.7l0.5,1.8h0l0.5-1.8h0.6l0.5,1.8h0l0.4-1.8h0.7L13.2,25.5z
	 M12.1,17.9c-2.4,0-4.3,1.9-4.3,4.3c0,2.4,1.9,4.3,4.3,4.3c2.4,0,4.3-1.9,4.3-4.3C16.4,19.9,14.5,17.9,12.1,17.9z M10.7,18.9h0.7
	v1.4h0l0.9-1.4h0.7l-0.9,1.4l1.1,1.5h-0.8l-1-1.4h-0.1v1.4h-0.7V18.9z M13.2,25.5h-0.7L12,23.7h0l-0.4,1.8h-0.7l-0.8-2.9h0.7
	l0.5,1.8h0l0.5-1.8h0.6l0.5,1.8h0l0.4-1.8h0.7L13.2,25.5z M12.1,17.9c-2.4,0-4.3,1.9-4.3,4.3c0,2.4,1.9,4.3,4.3,4.3
	c2.4,0,4.3-1.9,4.3-4.3C16.4,19.9,14.5,17.9,12.1,17.9z M10.7,18.9h0.7v1.4h0l0.9-1.4h0.7l-0.9,1.4l1.1,1.5h-0.8l-1-1.4h-0.1v1.4
	h-0.7V18.9z M13.2,25.5h-0.7L12,23.7h0l-0.4,1.8h-0.7l-0.8-2.9h0.7l0.5,1.8h0l0.5-1.8h0.6l0.5,1.8h0l0.4-1.8h0.7L13.2,25.5z
	 M12.1,17.9c-2.4,0-4.3,1.9-4.3,4.3c0,2.4,1.9,4.3,4.3,4.3c2.4,0,4.3-1.9,4.3-4.3C16.4,19.9,14.5,17.9,12.1,17.9z M10.7,18.9h0.7
	v1.4h0l0.9-1.4h0.7l-0.9,1.4l1.1,1.5h-0.8l-1-1.4h-0.1v1.4h-0.7V18.9z M13.2,25.5h-0.7L12,23.7h0l-0.4,1.8h-0.7l-0.8-2.9h0.7
	l0.5,1.8h0l0.5-1.8h0.6l0.5,1.8h0l0.4-1.8h0.7L13.2,25.5z M12.1,17.9c-2.4,0-4.3,1.9-4.3,4.3c0,2.4,1.9,4.3,4.3,4.3
	c2.4,0,4.3-1.9,4.3-4.3C16.4,19.9,14.5,17.9,12.1,17.9z M10.7,18.9h0.7v1.4h0l0.9-1.4h0.7l-0.9,1.4l1.1,1.5h-0.8l-1-1.4h-0.1v1.4
	h-0.7V18.9z M13.2,25.5h-0.7L12,23.7h0l-0.4,1.8h-0.7l-0.8-2.9h0.7l0.5,1.8h0l0.5-1.8h0.6l0.5,1.8h0l0.4-1.8h0.7L13.2,25.5z
	 M15.6,17.6v-1.7c-0.4-0.1-0.7-0.3-1.1-0.3V17c-0.3-0.1-0.6-0.2-0.8-0.3v-1.3c-0.4-0.1-0.7-0.1-1.1-0.1v1.2c-0.1,0-0.3,0-0.4,0
	c-0.1,0-0.3,0-0.4,0v-1.2c-0.4,0-0.7,0-1.1,0.1v1.3c-0.3,0.1-0.6,0.2-0.8,0.3v-1.4c-0.4,0.1-0.7,0.2-1.1,0.3v1.7
	c-1.4,1.1-2.3,2.7-2.3,4.7c0,1.9,0.9,3.6,2.3,4.7v7.2c0.4,0.1,0.7,0.2,1.1,0.3v-6.9c0.3,0.1,0.6,0.2,0.8,0.3v6.8
	c0.4,0.1,0.7,0.1,1.1,0.1V28c0.1,0,0.3,0,0.4,0c0.2,0,0.3,0,0.4,0v6.7c0.4,0,0.7-0.1,1.1-0.1v-6.8c0.3-0.1,0.6-0.2,0.8-0.3v7
	c0.4-0.1,0.7-0.2,1.1-0.3v-7.3c1.4-1.1,2.3-2.7,2.3-4.6C17.9,20.3,17,18.7,15.6,17.6z M12.1,26.9c-2.6,0-4.6-2.1-4.6-4.6
	c0-2.6,2.1-4.6,4.6-4.6c2.6,0,4.6,2.1,4.6,4.6C16.7,24.8,14.7,26.9,12.1,26.9z M12.1,17.9c-2.4,0-4.3,1.9-4.3,4.3
	c0,2.4,1.9,4.3,4.3,4.3c2.4,0,4.3-1.9,4.3-4.3C16.4,19.9,14.5,17.9,12.1,17.9z M10.7,18.9h0.7v1.4h0l0.9-1.4h0.7l-0.9,1.4l1.1,1.5
	h-0.8l-1-1.4h-0.1v1.4h-0.7V18.9z M13.2,25.5h-0.7L12,23.7h0l-0.4,1.8h-0.7l-0.8-2.9h0.7l0.5,1.8h0l0.5-1.8h0.6l0.5,1.8h0l0.4-1.8
	h0.7L13.2,25.5z M12.1,17.9c-2.4,0-4.3,1.9-4.3,4.3c0,2.4,1.9,4.3,4.3,4.3c2.4,0,4.3-1.9,4.3-4.3C16.4,19.9,14.5,17.9,12.1,17.9z
	 M10.7,18.9h0.7v1.4h0l0.9-1.4h0.7l-0.9,1.4l1.1,1.5h-0.8l-1-1.4h-0.1v1.4h-0.7V18.9z M13.2,25.5h-0.7L12,23.7h0l-0.4,1.8h-0.7
	l-0.8-2.9h0.7l0.5,1.8h0l0.5-1.8h0.6l0.5,1.8h0l0.4-1.8h0.7L13.2,25.5z M12.1,17.9c-2.4,0-4.3,1.9-4.3,4.3c0,2.4,1.9,4.3,4.3,4.3
	c2.4,0,4.3-1.9,4.3-4.3C16.4,19.9,14.5,17.9,12.1,17.9z M10.7,18.9h0.7v1.4h0l0.9-1.4h0.7l-0.9,1.4l1.1,1.5h-0.8l-1-1.4h-0.1v1.4
	h-0.7V18.9z M13.2,25.5h-0.7L12,23.7h0l-0.4,1.8h-0.7l-0.8-2.9h0.7l0.5,1.8h0l0.5-1.8h0.6l0.5,1.8h0l0.4-1.8h0.7L13.2,25.5z
	 M12.1,17.9c-2.4,0-4.3,1.9-4.3,4.3c0,2.4,1.9,4.3,4.3,4.3c2.4,0,4.3-1.9,4.3-4.3C16.4,19.9,14.5,17.9,12.1,17.9z M10.7,18.9h0.7
	v1.4h0l0.9-1.4h0.7l-0.9,1.4l1.1,1.5h-0.8l-1-1.4h-0.1v1.4h-0.7V18.9z M13.2,25.5h-0.7L12,23.7h0l-0.4,1.8h-0.7l-0.8-2.9h0.7
	l0.5,1.8h0l0.5-1.8h0.6l0.5,1.8h0l0.4-1.8h0.7L13.2,25.5z M12.1,17.9c-2.4,0-4.3,1.9-4.3,4.3c0,2.4,1.9,4.3,4.3,4.3
	c2.4,0,4.3-1.9,4.3-4.3C16.4,19.9,14.5,17.9,12.1,17.9z M10.7,18.9h0.7v1.4h0l0.9-1.4h0.7l-0.9,1.4l1.1,1.5h-0.8l-1-1.4h-0.1v1.4
	h-0.7V18.9z M13.2,25.5h-0.7L12,23.7h0l-0.4,1.8h-0.7l-0.8-2.9h0.7l0.5,1.8h0l0.5-1.8h0.6l0.5,1.8h0l0.4-1.8h0.7L13.2,25.5z
	 M12.1,17.9c-2.4,0-4.3,1.9-4.3,4.3c0,2.4,1.9,4.3,4.3,4.3c2.4,0,4.3-1.9,4.3-4.3C16.4,19.9,14.5,17.9,12.1,17.9z M10.7,18.9h0.7
	v1.4h0l0.9-1.4h0.7l-0.9,1.4l1.1,1.5h-0.8l-1-1.4h-0.1v1.4h-0.7V18.9z M13.2,25.5h-0.7L12,23.7h0l-0.4,1.8h-0.7l-0.8-2.9h0.7
	l0.5,1.8h0l0.5-1.8h0.6l0.5,1.8h0l0.4-1.8h0.7L13.2,25.5z M12.1,17.9c-2.4,0-4.3,1.9-4.3,4.3c0,2.4,1.9,4.3,4.3,4.3
	c2.4,0,4.3-1.9,4.3-4.3C16.4,19.9,14.5,17.9,12.1,17.9z M10.7,18.9h0.7v1.4h0l0.9-1.4h0.7l-0.9,1.4l1.1,1.5h-0.8l-1-1.4h-0.1v1.4
	h-0.7V18.9z M13.2,25.5h-0.7L12,23.7h0l-0.4,1.8h-0.7l-0.8-2.9h0.7l0.5,1.8h0l0.5-1.8h0.6l0.5,1.8h0l0.4-1.8h0.7L13.2,25.5z
	 M12.1,17.9c-2.4,0-4.3,1.9-4.3,4.3c0,2.4,1.9,4.3,4.3,4.3c2.4,0,4.3-1.9,4.3-4.3C16.4,19.9,14.5,17.9,12.1,17.9z M10.7,18.9h0.7
	v1.4h0l0.9-1.4h0.7l-0.9,1.4l1.1,1.5h-0.8l-1-1.4h-0.1v1.4h-0.7V18.9z M13.2,25.5h-0.7L12,23.7h0l-0.4,1.8h-0.7l-0.8-2.9h0.7
	l0.5,1.8h0l0.5-1.8h0.6l0.5,1.8h0l0.4-1.8h0.7L13.2,25.5z M12.1,17.9c-2.4,0-4.3,1.9-4.3,4.3c0,2.4,1.9,4.3,4.3,4.3
	c2.4,0,4.3-1.9,4.3-4.3C16.4,19.9,14.5,17.9,12.1,17.9z M10.7,18.9h0.7v1.4h0l0.9-1.4h0.7l-0.9,1.4l1.1,1.5h-0.8l-1-1.4h-0.1v1.4
	h-0.7V18.9z M13.2,25.5h-0.7L12,23.7h0l-0.4,1.8h-0.7l-0.8-2.9h0.7l0.5,1.8h0l0.5-1.8h0.6l0.5,1.8h0l0.4-1.8h0.7L13.2,25.5z
	 M12.1,17.9c-2.4,0-4.3,1.9-4.3,4.3c0,2.4,1.9,4.3,4.3,4.3c2.4,0,4.3-1.9,4.3-4.3C16.4,19.9,14.5,17.9,12.1,17.9z M10.7,18.9h0.7
	v1.4h0l0.9-1.4h0.7l-0.9,1.4l1.1,1.5h-0.8l-1-1.4h-0.1v1.4h-0.7V18.9z M13.2,25.5h-0.7L12,23.7h0l-0.4,1.8h-0.7l-0.8-2.9h0.7
	l0.5,1.8h0l0.5-1.8h0.6l0.5,1.8h0l0.4-1.8h0.7L13.2,25.5z M12.1,17.9c-2.4,0-4.3,1.9-4.3,4.3c0,2.4,1.9,4.3,4.3,4.3
	c2.4,0,4.3-1.9,4.3-4.3C16.4,19.9,14.5,17.9,12.1,17.9z M10.7,18.9h0.7v1.4h0l0.9-1.4h0.7l-0.9,1.4l1.1,1.5h-0.8l-1-1.4h-0.1v1.4
	h-0.7V18.9z M13.2,25.5h-0.7L12,23.7h0l-0.4,1.8h-0.7l-0.8-2.9h0.7l0.5,1.8h0l0.5-1.8h0.6l0.5,1.8h0l0.4-1.8h0.7L13.2,25.5z
	 M12.1,17.9c-2.4,0-4.3,1.9-4.3,4.3c0,2.4,1.9,4.3,4.3,4.3c2.4,0,4.3-1.9,4.3-4.3C16.4,19.9,14.5,17.9,12.1,17.9z M10.7,18.9h0.7
	v1.4h0l0.9-1.4h0.7l-0.9,1.4l1.1,1.5h-0.8l-1-1.4h-0.1v1.4h-0.7V18.9z M13.2,25.5h-0.7L12,23.7h0l-0.4,1.8h-0.7l-0.8-2.9h0.7
	l0.5,1.8h0l0.5-1.8h0.6l0.5,1.8h0l0.4-1.8h0.7L13.2,25.5z M12.1,17.9c-2.4,0-4.3,1.9-4.3,4.3c0,2.4,1.9,4.3,4.3,4.3
	c2.4,0,4.3-1.9,4.3-4.3C16.4,19.9,14.5,17.9,12.1,17.9z M10.7,18.9h0.7v1.4h0l0.9-1.4h0.7l-0.9,1.4l1.1,1.5h-0.8l-1-1.4h-0.1v1.4
	h-0.7V18.9z M13.2,25.5h-0.7L12,23.7h0l-0.4,1.8h-0.7l-0.8-2.9h0.7l0.5,1.8h0l0.5-1.8h0.6l0.5,1.8h0l0.4-1.8h0.7L13.2,25.5z
	 M12.1,17.9c-2.4,0-4.3,1.9-4.3,4.3c0,2.4,1.9,4.3,4.3,4.3c2.4,0,4.3-1.9,4.3-4.3C16.4,19.9,14.5,17.9,12.1,17.9z M10.7,18.9h0.7
	v1.4h0l0.9-1.4h0.7l-0.9,1.4l1.1,1.5h-0.8l-1-1.4h-0.1v1.4h-0.7V18.9z M13.2,25.5h-0.7L12,23.7h0l-0.4,1.8h-0.7l-0.8-2.9h0.7
	l0.5,1.8h0l0.5-1.8h0.6l0.5,1.8h0l0.4-1.8h0.7L13.2,25.5z M12.1,17.9c-2.4,0-4.3,1.9-4.3,4.3c0,2.4,1.9,4.3,4.3,4.3
	c2.4,0,4.3-1.9,4.3-4.3C16.4,19.9,14.5,17.9,12.1,17.9z M10.7,18.9h0.7v1.4h0l0.9-1.4h0.7l-0.9,1.4l1.1,1.5h-0.8l-1-1.4h-0.1v1.4
	h-0.7V18.9z M13.2,25.5h-0.7L12,23.7h0l-0.4,1.8h-0.7l-0.8-2.9h0.7l0.5,1.8h0l0.5-1.8h0.6l0.5,1.8h0l0.4-1.8h0.7L13.2,25.5z
	 M12.1,17.9c-2.4,0-4.3,1.9-4.3,4.3c0,2.4,1.9,4.3,4.3,4.3c2.4,0,4.3-1.9,4.3-4.3C16.4,19.9,14.5,17.9,12.1,17.9z M10.7,18.9h0.7
	v1.4h0l0.9-1.4h0.7l-0.9,1.4l1.1,1.5h-0.8l-1-1.4h-0.1v1.4h-0.7V18.9z M13.2,25.5h-0.7L12,23.7h0l-0.4,1.8h-0.7l-0.8-2.9h0.7
	l0.5,1.8h0l0.5-1.8h0.6l0.5,1.8h0l0.4-1.8h0.7L13.2,25.5z M12.1,17.9c-2.4,0-4.3,1.9-4.3,4.3c0,2.4,1.9,4.3,4.3,4.3
	c2.4,0,4.3-1.9,4.3-4.3C16.4,19.9,14.5,17.9,12.1,17.9z M10.7,18.9h0.7v1.4h0l0.9-1.4h0.7l-0.9,1.4l1.1,1.5h-0.8l-1-1.4h-0.1v1.4
	h-0.7V18.9z M13.2,25.5h-0.7L12,23.7h0l-0.4,1.8h-0.7l-0.8-2.9h0.7l0.5,1.8h0l0.5-1.8h0.6l0.5,1.8h0l0.4-1.8h0.7L13.2,25.5z
	 M12.1,17.9c-2.4,0-4.3,1.9-4.3,4.3c0,2.4,1.9,4.3,4.3,4.3c2.4,0,4.3-1.9,4.3-4.3C16.4,19.9,14.5,17.9,12.1,17.9z M10.7,18.9h0.7
	v1.4h0l0.9-1.4h0.7l-0.9,1.4l1.1,1.5h-0.8l-1-1.4h-0.1v1.4h-0.7V18.9z M13.2,25.5h-0.7L12,23.7h0l-0.4,1.8h-0.7l-0.8-2.9h0.7
	l0.5,1.8h0l0.5-1.8h0.6l0.5,1.8h0l0.4-1.8h0.7L13.2,25.5z M12.1,17.9c-2.4,0-4.3,1.9-4.3,4.3c0,2.4,1.9,4.3,4.3,4.3
	c2.4,0,4.3-1.9,4.3-4.3C16.4,19.9,14.5,17.9,12.1,17.9z M10.7,18.9h0.7v1.4h0l0.9-1.4h0.7l-0.9,1.4l1.1,1.5h-0.8l-1-1.4h-0.1v1.4
	h-0.7V18.9z M13.2,25.5h-0.7L12,23.7h0l-0.4,1.8h-0.7l-0.8-2.9h0.7l0.5,1.8h0l0.5-1.8h0.6l0.5,1.8h0l0.4-1.8h0.7L13.2,25.5z
	 M15.6,17.6v-1.7c-0.4-0.1-0.7-0.3-1.1-0.3V17c-0.3-0.1-0.6-0.2-0.8-0.3v-1.3c-0.4-0.1-0.7-0.1-1.1-0.1v1.2c-0.1,0-0.3,0-0.4,0
	c-0.1,0-0.3,0-0.4,0v-1.2c-0.4,0-0.7,0-1.1,0.1v1.3c-0.3,0.1-0.6,0.2-0.8,0.3v-1.4c-0.4,0.1-0.7,0.2-1.1,0.3v1.7
	c-1.4,1.1-2.3,2.7-2.3,4.7c0,1.9,0.9,3.6,2.3,4.7v7.2c0.4,0.1,0.7,0.2,1.1,0.3v-6.9c0.3,0.1,0.6,0.2,0.8,0.3v6.8
	c0.4,0.1,0.7,0.1,1.1,0.1V28c0.1,0,0.3,0,0.4,0c0.2,0,0.3,0,0.4,0v6.7c0.4,0,0.7-0.1,1.1-0.1v-6.8c0.3-0.1,0.6-0.2,0.8-0.3v7
	c0.4-0.1,0.7-0.2,1.1-0.3v-7.3c1.4-1.1,2.3-2.7,2.3-4.6C17.9,20.3,17,18.7,15.6,17.6z M12.1,26.9c-2.6,0-4.6-2.1-4.6-4.6
	c0-2.6,2.1-4.6,4.6-4.6c2.6,0,4.6,2.1,4.6,4.6C16.7,24.8,14.7,26.9,12.1,26.9z M12.1,17.9c-2.4,0-4.3,1.9-4.3,4.3
	c0,2.4,1.9,4.3,4.3,4.3c2.4,0,4.3-1.9,4.3-4.3C16.4,19.9,14.5,17.9,12.1,17.9z M10.7,18.9h0.7v1.4h0l0.9-1.4h0.7l-0.9,1.4l1.1,1.5
	h-0.8l-1-1.4h-0.1v1.4h-0.7V18.9z M13.2,25.5h-0.7L12,23.7h0l-0.4,1.8h-0.7l-0.8-2.9h0.7l0.5,1.8h0l0.5-1.8h0.6l0.5,1.8h0l0.4-1.8
	h0.7L13.2,25.5z M12.1,17.9c-2.4,0-4.3,1.9-4.3,4.3c0,2.4,1.9,4.3,4.3,4.3c2.4,0,4.3-1.9,4.3-4.3C16.4,19.9,14.5,17.9,12.1,17.9z
	 M10.7,18.9h0.7v1.4h0l0.9-1.4h0.7l-0.9,1.4l1.1,1.5h-0.8l-1-1.4h-0.1v1.4h-0.7V18.9z M13.2,25.5h-0.7L12,23.7h0l-0.4,1.8h-0.7
	l-0.8-2.9h0.7l0.5,1.8h0l0.5-1.8h0.6l0.5,1.8h0l0.4-1.8h0.7L13.2,25.5z M12.1,17.9c-2.4,0-4.3,1.9-4.3,4.3c0,2.4,1.9,4.3,4.3,4.3
	c2.4,0,4.3-1.9,4.3-4.3C16.4,19.9,14.5,17.9,12.1,17.9z M10.7,18.9h0.7v1.4h0l0.9-1.4h0.7l-0.9,1.4l1.1,1.5h-0.8l-1-1.4h-0.1v1.4
	h-0.7V18.9z M13.2,25.5h-0.7L12,23.7h0l-0.4,1.8h-0.7l-0.8-2.9h0.7l0.5,1.8h0l0.5-1.8h0.6l0.5,1.8h0l0.4-1.8h0.7L13.2,25.5z
	 M12.1,17.9c-2.4,0-4.3,1.9-4.3,4.3c0,2.4,1.9,4.3,4.3,4.3c2.4,0,4.3-1.9,4.3-4.3C16.4,19.9,14.5,17.9,12.1,17.9z M10.7,18.9h0.7
	v1.4h0l0.9-1.4h0.7l-0.9,1.4l1.1,1.5h-0.8l-1-1.4h-0.1v1.4h-0.7V18.9z M13.2,25.5h-0.7L12,23.7h0l-0.4,1.8h-0.7l-0.8-2.9h0.7
	l0.5,1.8h0l0.5-1.8h0.6l0.5,1.8h0l0.4-1.8h0.7L13.2,25.5z M12.1,17.9c-2.4,0-4.3,1.9-4.3,4.3c0,2.4,1.9,4.3,4.3,4.3
	c2.4,0,4.3-1.9,4.3-4.3C16.4,19.9,14.5,17.9,12.1,17.9z M10.7,18.9h0.7v1.4h0l0.9-1.4h0.7l-0.9,1.4l1.1,1.5h-0.8l-1-1.4h-0.1v1.4
	h-0.7V18.9z M13.2,25.5h-0.7L12,23.7h0l-0.4,1.8h-0.7l-0.8-2.9h0.7l0.5,1.8h0l0.5-1.8h0.6l0.5,1.8h0l0.4-1.8h0.7L13.2,25.5z
	 M12.1,17.9c-2.4,0-4.3,1.9-4.3,4.3c0,2.4,1.9,4.3,4.3,4.3c2.4,0,4.3-1.9,4.3-4.3C16.4,19.9,14.5,17.9,12.1,17.9z M10.7,18.9h0.7
	v1.4h0l0.9-1.4h0.7l-0.9,1.4l1.1,1.5h-0.8l-1-1.4h-0.1v1.4h-0.7V18.9z M13.2,25.5h-0.7L12,23.7h0l-0.4,1.8h-0.7l-0.8-2.9h0.7
	l0.5,1.8h0l0.5-1.8h0.6l0.5,1.8h0l0.4-1.8h0.7L13.2,25.5z M12.1,17.9c-2.4,0-4.3,1.9-4.3,4.3c0,2.4,1.9,4.3,4.3,4.3
	c2.4,0,4.3-1.9,4.3-4.3C16.4,19.9,14.5,17.9,12.1,17.9z M10.7,18.9h0.7v1.4h0l0.9-1.4h0.7l-0.9,1.4l1.1,1.5h-0.8l-1-1.4h-0.1v1.4
	h-0.7V18.9z M13.2,25.5h-0.7L12,23.7h0l-0.4,1.8h-0.7l-0.8-2.9h0.7l0.5,1.8h0l0.5-1.8h0.6l0.5,1.8h0l0.4-1.8h0.7L13.2,25.5z
	 M12.1,17.9c-2.4,0-4.3,1.9-4.3,4.3c0,2.4,1.9,4.3,4.3,4.3c2.4,0,4.3-1.9,4.3-4.3C16.4,19.9,14.5,17.9,12.1,17.9z M10.7,18.9h0.7
	v1.4h0l0.9-1.4h0.7l-0.9,1.4l1.1,1.5h-0.8l-1-1.4h-0.1v1.4h-0.7V18.9z M13.2,25.5h-0.7L12,23.7h0l-0.4,1.8h-0.7l-0.8-2.9h0.7
	l0.5,1.8h0l0.5-1.8h0.6l0.5,1.8h0l0.4-1.8h0.7L13.2,25.5z M12.1,17.9c-2.4,0-4.3,1.9-4.3,4.3c0,2.4,1.9,4.3,4.3,4.3
	c2.4,0,4.3-1.9,4.3-4.3C16.4,19.9,14.5,17.9,12.1,17.9z M10.7,18.9h0.7v1.4h0l0.9-1.4h0.7l-0.9,1.4l1.1,1.5h-0.8l-1-1.4h-0.1v1.4
	h-0.7V18.9z M13.2,25.5h-0.7L12,23.7h0l-0.4,1.8h-0.7l-0.8-2.9h0.7l0.5,1.8h0l0.5-1.8h0.6l0.5,1.8h0l0.4-1.8h0.7L13.2,25.5z
	 M12.1,17.9c-2.4,0-4.3,1.9-4.3,4.3c0,2.4,1.9,4.3,4.3,4.3c2.4,0,4.3-1.9,4.3-4.3C16.4,19.9,14.5,17.9,12.1,17.9z M10.7,18.9h0.7
	v1.4h0l0.9-1.4h0.7l-0.9,1.4l1.1,1.5h-0.8l-1-1.4h-0.1v1.4h-0.7V18.9z M13.2,25.5h-0.7L12,23.7h0l-0.4,1.8h-0.7l-0.8-2.9h0.7
	l0.5,1.8h0l0.5-1.8h0.6l0.5,1.8h0l0.4-1.8h0.7L13.2,25.5z M12.1,17.9c-2.4,0-4.3,1.9-4.3,4.3c0,2.4,1.9,4.3,4.3,4.3
	c2.4,0,4.3-1.9,4.3-4.3C16.4,19.9,14.5,17.9,12.1,17.9z M10.7,18.9h0.7v1.4h0l0.9-1.4h0.7l-0.9,1.4l1.1,1.5h-0.8l-1-1.4h-0.1v1.4
	h-0.7V18.9z M13.2,25.5h-0.7L12,23.7h0l-0.4,1.8h-0.7l-0.8-2.9h0.7l0.5,1.8h0l0.5-1.8h0.6l0.5,1.8h0l0.4-1.8h0.7L13.2,25.5z
	 M12.1,17.9c-2.4,0-4.3,1.9-4.3,4.3c0,2.4,1.9,4.3,4.3,4.3c2.4,0,4.3-1.9,4.3-4.3C16.4,19.9,14.5,17.9,12.1,17.9z M10.7,18.9h0.7
	v1.4h0l0.9-1.4h0.7l-0.9,1.4l1.1,1.5h-0.8l-1-1.4h-0.1v1.4h-0.7V18.9z M13.2,25.5h-0.7L12,23.7h0l-0.4,1.8h-0.7l-0.8-2.9h0.7
	l0.5,1.8h0l0.5-1.8h0.6l0.5,1.8h0l0.4-1.8h0.7L13.2,25.5z M12.1,17.9c-2.4,0-4.3,1.9-4.3,4.3c0,2.4,1.9,4.3,4.3,4.3
	c2.4,0,4.3-1.9,4.3-4.3C16.4,19.9,14.5,17.9,12.1,17.9z M10.7,18.9h0.7v1.4h0l0.9-1.4h0.7l-0.9,1.4l1.1,1.5h-0.8l-1-1.4h-0.1v1.4
	h-0.7V18.9z M13.2,25.5h-0.7L12,23.7h0l-0.4,1.8h-0.7l-0.8-2.9h0.7l0.5,1.8h0l0.5-1.8h0.6l0.5,1.8h0l0.4-1.8h0.7L13.2,25.5z
	 M12.1,17.9c-2.4,0-4.3,1.9-4.3,4.3c0,2.4,1.9,4.3,4.3,4.3c2.4,0,4.3-1.9,4.3-4.3C16.4,19.9,14.5,17.9,12.1,17.9z M10.7,18.9h0.7
	v1.4h0l0.9-1.4h0.7l-0.9,1.4l1.1,1.5h-0.8l-1-1.4h-0.1v1.4h-0.7V18.9z M13.2,25.5h-0.7L12,23.7h0l-0.4,1.8h-0.7l-0.8-2.9h0.7
	l0.5,1.8h0l0.5-1.8h0.6l0.5,1.8h0l0.4-1.8h0.7L13.2,25.5z M12.1,17.9c-2.4,0-4.3,1.9-4.3,4.3c0,2.4,1.9,4.3,4.3,4.3
	c2.4,0,4.3-1.9,4.3-4.3C16.4,19.9,14.5,17.9,12.1,17.9z M10.7,18.9h0.7v1.4h0l0.9-1.4h0.7l-0.9,1.4l1.1,1.5h-0.8l-1-1.4h-0.1v1.4
	h-0.7V18.9z M13.2,25.5h-0.7L12,23.7h0l-0.4,1.8h-0.7l-0.8-2.9h0.7l0.5,1.8h0l0.5-1.8h0.6l0.5,1.8h0l0.4-1.8h0.7L13.2,25.5z
	 M12.1,17.9c-2.4,0-4.3,1.9-4.3,4.3c0,2.4,1.9,4.3,4.3,4.3c2.4,0,4.3-1.9,4.3-4.3C16.4,19.9,14.5,17.9,12.1,17.9z M10.7,18.9h0.7
	v1.4h0l0.9-1.4h0.7l-0.9,1.4l1.1,1.5h-0.8l-1-1.4h-0.1v1.4h-0.7V18.9z M13.2,25.5h-0.7L12,23.7h0l-0.4,1.8h-0.7l-0.8-2.9h0.7
	l0.5,1.8h0l0.5-1.8h0.6l0.5,1.8h0l0.4-1.8h0.7L13.2,25.5z M12.1,17.9c-2.4,0-4.3,1.9-4.3,4.3c0,2.4,1.9,4.3,4.3,4.3
	c2.4,0,4.3-1.9,4.3-4.3C16.4,19.9,14.5,17.9,12.1,17.9z M10.7,18.9h0.7v1.4h0l0.9-1.4h0.7l-0.9,1.4l1.1,1.5h-0.8l-1-1.4h-0.1v1.4
	h-0.7V18.9z M13.2,25.5h-0.7L12,23.7h0l-0.4,1.8h-0.7l-0.8-2.9h0.7l0.5,1.8h0l0.5-1.8h0.6l0.5,1.8h0l0.4-1.8h0.7L13.2,25.5z
	 M12.1,17.9c-2.4,0-4.3,1.9-4.3,4.3c0,2.4,1.9,4.3,4.3,4.3c2.4,0,4.3-1.9,4.3-4.3C16.4,19.9,14.5,17.9,12.1,17.9z M10.7,18.9h0.7
	v1.4h0l0.9-1.4h0.7l-0.9,1.4l1.1,1.5h-0.8l-1-1.4h-0.1v1.4h-0.7V18.9z M13.2,25.5h-0.7L12,23.7h0l-0.4,1.8h-0.7l-0.8-2.9h0.7
	l0.5,1.8h0l0.5-1.8h0.6l0.5,1.8h0l0.4-1.8h0.7L13.2,25.5z M12.1,17.9c-2.4,0-4.3,1.9-4.3,4.3c0,2.4,1.9,4.3,4.3,4.3
	c2.4,0,4.3-1.9,4.3-4.3C16.4,19.9,14.5,17.9,12.1,17.9z M10.7,18.9h0.7v1.4h0l0.9-1.4h0.7l-0.9,1.4l1.1,1.5h-0.8l-1-1.4h-0.1v1.4
	h-0.7V18.9z M13.2,25.5h-0.7L12,23.7h0l-0.4,1.8h-0.7l-0.8-2.9h0.7l0.5,1.8h0l0.5-1.8h0.6l0.5,1.8h0l0.4-1.8h0.7L13.2,25.5z
	 M15.6,17.6v-1.7c-0.4-0.1-0.7-0.3-1.1-0.3V17c-0.3-0.1-0.6-0.2-0.8-0.3v-1.3c-0.4-0.1-0.7-0.1-1.1-0.1v1.2c-0.1,0-0.3,0-0.4,0
	c-0.1,0-0.3,0-0.4,0v-1.2c-0.4,0-0.7,0-1.1,0.1v1.3c-0.3,0.1-0.6,0.2-0.8,0.3v-1.4c-0.4,0.1-0.7,0.2-1.1,0.3v1.7
	c-1.4,1.1-2.3,2.7-2.3,4.7c0,1.9,0.9,3.6,2.3,4.7v7.2c0.4,0.1,0.7,0.2,1.1,0.3v-6.9c0.3,0.1,0.6,0.2,0.8,0.3v6.8
	c0.4,0.1,0.7,0.1,1.1,0.1V28c0.1,0,0.3,0,0.4,0c0.2,0,0.3,0,0.4,0v6.7c0.4,0,0.7-0.1,1.1-0.1v-6.8c0.3-0.1,0.6-0.2,0.8-0.3v7
	c0.4-0.1,0.7-0.2,1.1-0.3v-7.3c1.4-1.1,2.3-2.7,2.3-4.6C17.9,20.3,17,18.7,15.6,17.6z M12.1,26.9c-2.6,0-4.6-2.1-4.6-4.6
	c0-2.6,2.1-4.6,4.6-4.6c2.6,0,4.6,2.1,4.6,4.6C16.7,24.8,14.7,26.9,12.1,26.9z M12.1,17.9c-2.4,0-4.3,1.9-4.3,4.3
	c0,2.4,1.9,4.3,4.3,4.3c2.4,0,4.3-1.9,4.3-4.3C16.4,19.9,14.5,17.9,12.1,17.9z M10.7,18.9h0.7v1.4h0l0.9-1.4h0.7l-0.9,1.4l1.1,1.5
	h-0.8l-1-1.4h-0.1v1.4h-0.7V18.9z M13.2,25.5h-0.7L12,23.7h0l-0.4,1.8h-0.7l-0.8-2.9h0.7l0.5,1.8h0l0.5-1.8h0.6l0.5,1.8h0l0.4-1.8
	h0.7L13.2,25.5z M12.1,17.9c-2.4,0-4.3,1.9-4.3,4.3c0,2.4,1.9,4.3,4.3,4.3c2.4,0,4.3-1.9,4.3-4.3C16.4,19.9,14.5,17.9,12.1,17.9z
	 M10.7,18.9h0.7v1.4h0l0.9-1.4h0.7l-0.9,1.4l1.1,1.5h-0.8l-1-1.4h-0.1v1.4h-0.7V18.9z M13.2,25.5h-0.7L12,23.7h0l-0.4,1.8h-0.7
	l-0.8-2.9h0.7l0.5,1.8h0l0.5-1.8h0.6l0.5,1.8h0l0.4-1.8h0.7L13.2,25.5z M12.1,17.9c-2.4,0-4.3,1.9-4.3,4.3c0,2.4,1.9,4.3,4.3,4.3
	c2.4,0,4.3-1.9,4.3-4.3C16.4,19.9,14.5,17.9,12.1,17.9z M10.7,18.9h0.7v1.4h0l0.9-1.4h0.7l-0.9,1.4l1.1,1.5h-0.8l-1-1.4h-0.1v1.4
	h-0.7V18.9z M13.2,25.5h-0.7L12,23.7h0l-0.4,1.8h-0.7l-0.8-2.9h0.7l0.5,1.8h0l0.5-1.8h0.6l0.5,1.8h0l0.4-1.8h0.7L13.2,25.5z
	 M12.1,17.9c-2.4,0-4.3,1.9-4.3,4.3c0,2.4,1.9,4.3,4.3,4.3c2.4,0,4.3-1.9,4.3-4.3C16.4,19.9,14.5,17.9,12.1,17.9z M10.7,18.9h0.7
	v1.4h0l0.9-1.4h0.7l-0.9,1.4l1.1,1.5h-0.8l-1-1.4h-0.1v1.4h-0.7V18.9z M13.2,25.5h-0.7L12,23.7h0l-0.4,1.8h-0.7l-0.8-2.9h0.7
	l0.5,1.8h0l0.5-1.8h0.6l0.5,1.8h0l0.4-1.8h0.7L13.2,25.5z M12.1,17.9c-2.4,0-4.3,1.9-4.3,4.3c0,2.4,1.9,4.3,4.3,4.3
	c2.4,0,4.3-1.9,4.3-4.3C16.4,19.9,14.5,17.9,12.1,17.9z M10.7,18.9h0.7v1.4h0l0.9-1.4h0.7l-0.9,1.4l1.1,1.5h-0.8l-1-1.4h-0.1v1.4
	h-0.7V18.9z M13.2,25.5h-0.7L12,23.7h0l-0.4,1.8h-0.7l-0.8-2.9h0.7l0.5,1.8h0l0.5-1.8h0.6l0.5,1.8h0l0.4-1.8h0.7L13.2,25.5z
	 M12.1,17.9c-2.4,0-4.3,1.9-4.3,4.3c0,2.4,1.9,4.3,4.3,4.3c2.4,0,4.3-1.9,4.3-4.3C16.4,19.9,14.5,17.9,12.1,17.9z M10.7,18.9h0.7
	v1.4h0l0.9-1.4h0.7l-0.9,1.4l1.1,1.5h-0.8l-1-1.4h-0.1v1.4h-0.7V18.9z M13.2,25.5h-0.7L12,23.7h0l-0.4,1.8h-0.7l-0.8-2.9h0.7
	l0.5,1.8h0l0.5-1.8h0.6l0.5,1.8h0l0.4-1.8h0.7L13.2,25.5z M12.1,17.9c-2.4,0-4.3,1.9-4.3,4.3c0,2.4,1.9,4.3,4.3,4.3
	c2.4,0,4.3-1.9,4.3-4.3C16.4,19.9,14.5,17.9,12.1,17.9z M10.7,18.9h0.7v1.4h0l0.9-1.4h0.7l-0.9,1.4l1.1,1.5h-0.8l-1-1.4h-0.1v1.4
	h-0.7V18.9z M13.2,25.5h-0.7L12,23.7h0l-0.4,1.8h-0.7l-0.8-2.9h0.7l0.5,1.8h0l0.5-1.8h0.6l0.5,1.8h0l0.4-1.8h0.7L13.2,25.5z
	 M12.1,17.9c-2.4,0-4.3,1.9-4.3,4.3c0,2.4,1.9,4.3,4.3,4.3c2.4,0,4.3-1.9,4.3-4.3C16.4,19.9,14.5,17.9,12.1,17.9z M10.7,18.9h0.7
	v1.4h0l0.9-1.4h0.7l-0.9,1.4l1.1,1.5h-0.8l-1-1.4h-0.1v1.4h-0.7V18.9z M13.2,25.5h-0.7L12,23.7h0l-0.4,1.8h-0.7l-0.8-2.9h0.7
	l0.5,1.8h0l0.5-1.8h0.6l0.5,1.8h0l0.4-1.8h0.7L13.2,25.5z M12.1,17.9c-2.4,0-4.3,1.9-4.3,4.3c0,2.4,1.9,4.3,4.3,4.3
	c2.4,0,4.3-1.9,4.3-4.3C16.4,19.9,14.5,17.9,12.1,17.9z M10.7,18.9h0.7v1.4h0l0.9-1.4h0.7l-0.9,1.4l1.1,1.5h-0.8l-1-1.4h-0.1v1.4
	h-0.7V18.9z M13.2,25.5h-0.7L12,23.7h0l-0.4,1.8h-0.7l-0.8-2.9h0.7l0.5,1.8h0l0.5-1.8h0.6l0.5,1.8h0l0.4-1.8h0.7L13.2,25.5z
	 M12.1,17.9c-2.4,0-4.3,1.9-4.3,4.3c0,2.4,1.9,4.3,4.3,4.3c2.4,0,4.3-1.9,4.3-4.3C16.4,19.9,14.5,17.9,12.1,17.9z M10.7,18.9h0.7
	v1.4h0l0.9-1.4h0.7l-0.9,1.4l1.1,1.5h-0.8l-1-1.4h-0.1v1.4h-0.7V18.9z M13.2,25.5h-0.7L12,23.7h0l-0.4,1.8h-0.7l-0.8-2.9h0.7
	l0.5,1.8h0l0.5-1.8h0.6l0.5,1.8h0l0.4-1.8h0.7L13.2,25.5z M12.1,17.9c-2.4,0-4.3,1.9-4.3,4.3c0,2.4,1.9,4.3,4.3,4.3
	c2.4,0,4.3-1.9,4.3-4.3C16.4,19.9,14.5,17.9,12.1,17.9z M10.7,18.9h0.7v1.4h0l0.9-1.4h0.7l-0.9,1.4l1.1,1.5h-0.8l-1-1.4h-0.1v1.4
	h-0.7V18.9z M13.2,25.5h-0.7L12,23.7h0l-0.4,1.8h-0.7l-0.8-2.9h0.7l0.5,1.8h0l0.5-1.8h0.6l0.5,1.8h0l0.4-1.8h0.7L13.2,25.5z
	 M12.1,17.9c-2.4,0-4.3,1.9-4.3,4.3c0,2.4,1.9,4.3,4.3,4.3c2.4,0,4.3-1.9,4.3-4.3C16.4,19.9,14.5,17.9,12.1,17.9z M10.7,18.9h0.7
	v1.4h0l0.9-1.4h0.7l-0.9,1.4l1.1,1.5h-0.8l-1-1.4h-0.1v1.4h-0.7V18.9z M13.2,25.5h-0.7L12,23.7h0l-0.4,1.8h-0.7l-0.8-2.9h0.7
	l0.5,1.8h0l0.5-1.8h0.6l0.5,1.8h0l0.4-1.8h0.7L13.2,25.5z M12.1,17.9c-2.4,0-4.3,1.9-4.3,4.3c0,2.4,1.9,4.3,4.3,4.3
	c2.4,0,4.3-1.9,4.3-4.3C16.4,19.9,14.5,17.9,12.1,17.9z M10.7,18.9h0.7v1.4h0l0.9-1.4h0.7l-0.9,1.4l1.1,1.5h-0.8l-1-1.4h-0.1v1.4
	h-0.7V18.9z M13.2,25.5h-0.7L12,23.7h0l-0.4,1.8h-0.7l-0.8-2.9h0.7l0.5,1.8h0l0.5-1.8h0.6l0.5,1.8h0l0.4-1.8h0.7L13.2,25.5z
	 M12.1,17.9c-2.4,0-4.3,1.9-4.3,4.3c0,2.4,1.9,4.3,4.3,4.3c2.4,0,4.3-1.9,4.3-4.3C16.4,19.9,14.5,17.9,12.1,17.9z M10.7,18.9h0.7
	v1.4h0l0.9-1.4h0.7l-0.9,1.4l1.1,1.5h-0.8l-1-1.4h-0.1v1.4h-0.7V18.9z M13.2,25.5h-0.7L12,23.7h0l-0.4,1.8h-0.7l-0.8-2.9h0.7
	l0.5,1.8h0l0.5-1.8h0.6l0.5,1.8h0l0.4-1.8h0.7L13.2,25.5z M12.1,17.9c-2.4,0-4.3,1.9-4.3,4.3c0,2.4,1.9,4.3,4.3,4.3
	c2.4,0,4.3-1.9,4.3-4.3C16.4,19.9,14.5,17.9,12.1,17.9z M10.7,18.9h0.7v1.4h0l0.9-1.4h0.7l-0.9,1.4l1.1,1.5h-0.8l-1-1.4h-0.1v1.4
	h-0.7V18.9z M13.2,25.5h-0.7L12,23.7h0l-0.4,1.8h-0.7l-0.8-2.9h0.7l0.5,1.8h0l0.5-1.8h0.6l0.5,1.8h0l0.4-1.8h0.7L13.2,25.5z
	 M12.1,17.9c-2.4,0-4.3,1.9-4.3,4.3c0,2.4,1.9,4.3,4.3,4.3c2.4,0,4.3-1.9,4.3-4.3C16.4,19.9,14.5,17.9,12.1,17.9z M10.7,18.9h0.7
	v1.4h0l0.9-1.4h0.7l-0.9,1.4l1.1,1.5h-0.8l-1-1.4h-0.1v1.4h-0.7V18.9z M13.2,25.5h-0.7L12,23.7h0l-0.4,1.8h-0.7l-0.8-2.9h0.7
	l0.5,1.8h0l0.5-1.8h0.6l0.5,1.8h0l0.4-1.8h0.7L13.2,25.5z M12.1,17.9c-2.4,0-4.3,1.9-4.3,4.3c0,2.4,1.9,4.3,4.3,4.3
	c2.4,0,4.3-1.9,4.3-4.3C16.4,19.9,14.5,17.9,12.1,17.9z M10.7,18.9h0.7v1.4h0l0.9-1.4h0.7l-0.9,1.4l1.1,1.5h-0.8l-1-1.4h-0.1v1.4
	h-0.7V18.9z M13.2,25.5h-0.7L12,23.7h0l-0.4,1.8h-0.7l-0.8-2.9h0.7l0.5,1.8h0l0.5-1.8h0.6l0.5,1.8h0l0.4-1.8h0.7L13.2,25.5z
	 M15.6,17.6v-1.7c-0.4-0.1-0.7-0.3-1.1-0.3V17c-0.3-0.1-0.6-0.2-0.8-0.3v-1.3c-0.4-0.1-0.7-0.1-1.1-0.1v1.2c-0.1,0-0.3,0-0.4,0
	c-0.1,0-0.3,0-0.4,0v-1.2c-0.4,0-0.7,0-1.1,0.1v1.3c-0.3,0.1-0.6,0.2-0.8,0.3v-1.4c-0.4,0.1-0.7,0.2-1.1,0.3v1.7
	c-1.4,1.1-2.3,2.7-2.3,4.7c0,1.9,0.9,3.6,2.3,4.7v7.2c0.4,0.1,0.7,0.2,1.1,0.3v-6.9c0.3,0.1,0.6,0.2,0.8,0.3v6.8
	c0.4,0.1,0.7,0.1,1.1,0.1V28c0.1,0,0.3,0,0.4,0c0.2,0,0.3,0,0.4,0v6.7c0.4,0,0.7-0.1,1.1-0.1v-6.8c0.3-0.1,0.6-0.2,0.8-0.3v7
	c0.4-0.1,0.7-0.2,1.1-0.3v-7.3c1.4-1.1,2.3-2.7,2.3-4.6C17.9,20.3,17,18.7,15.6,17.6z M12.1,26.9c-2.6,0-4.6-2.1-4.6-4.6
	c0-2.6,2.1-4.6,4.6-4.6c2.6,0,4.6,2.1,4.6,4.6C16.7,24.8,14.7,26.9,12.1,26.9z M12.1,17.9c-2.4,0-4.3,1.9-4.3,4.3
	c0,2.4,1.9,4.3,4.3,4.3c2.4,0,4.3-1.9,4.3-4.3C16.4,19.9,14.5,17.9,12.1,17.9z M10.7,18.9h0.7v1.4h0l0.9-1.4h0.7l-0.9,1.4l1.1,1.5
	h-0.8l-1-1.4h-0.1v1.4h-0.7V18.9z M13.2,25.5h-0.7L12,23.7h0l-0.4,1.8h-0.7l-0.8-2.9h0.7l0.5,1.8h0l0.5-1.8h0.6l0.5,1.8h0l0.4-1.8
	h0.7L13.2,25.5z M12.1,17.9c-2.4,0-4.3,1.9-4.3,4.3c0,2.4,1.9,4.3,4.3,4.3c2.4,0,4.3-1.9,4.3-4.3C16.4,19.9,14.5,17.9,12.1,17.9z
	 M10.7,18.9h0.7v1.4h0l0.9-1.4h0.7l-0.9,1.4l1.1,1.5h-0.8l-1-1.4h-0.1v1.4h-0.7V18.9z M13.2,25.5h-0.7L12,23.7h0l-0.4,1.8h-0.7
	l-0.8-2.9h0.7l0.5,1.8h0l0.5-1.8h0.6l0.5,1.8h0l0.4-1.8h0.7L13.2,25.5z M12.1,17.9c-2.4,0-4.3,1.9-4.3,4.3c0,2.4,1.9,4.3,4.3,4.3
	c2.4,0,4.3-1.9,4.3-4.3C16.4,19.9,14.5,17.9,12.1,17.9z M10.7,18.9h0.7v1.4h0l0.9-1.4h0.7l-0.9,1.4l1.1,1.5h-0.8l-1-1.4h-0.1v1.4
	h-0.7V18.9z M13.2,25.5h-0.7L12,23.7h0l-0.4,1.8h-0.7l-0.8-2.9h0.7l0.5,1.8h0l0.5-1.8h0.6l0.5,1.8h0l0.4-1.8h0.7L13.2,25.5z
	 M12.1,17.9c-2.4,0-4.3,1.9-4.3,4.3c0,2.4,1.9,4.3,4.3,4.3c2.4,0,4.3-1.9,4.3-4.3C16.4,19.9,14.5,17.9,12.1,17.9z M10.7,18.9h0.7
	v1.4h0l0.9-1.4h0.7l-0.9,1.4l1.1,1.5h-0.8l-1-1.4h-0.1v1.4h-0.7V18.9z M13.2,25.5h-0.7L12,23.7h0l-0.4,1.8h-0.7l-0.8-2.9h0.7
	l0.5,1.8h0l0.5-1.8h0.6l0.5,1.8h0l0.4-1.8h0.7L13.2,25.5z M12.1,17.9c-2.4,0-4.3,1.9-4.3,4.3c0,2.4,1.9,4.3,4.3,4.3
	c2.4,0,4.3-1.9,4.3-4.3C16.4,19.9,14.5,17.9,12.1,17.9z M10.7,18.9h0.7v1.4h0l0.9-1.4h0.7l-0.9,1.4l1.1,1.5h-0.8l-1-1.4h-0.1v1.4
	h-0.7V18.9z M13.2,25.5h-0.7L12,23.7h0l-0.4,1.8h-0.7l-0.8-2.9h0.7l0.5,1.8h0l0.5-1.8h0.6l0.5,1.8h0l0.4-1.8h0.7L13.2,25.5z
	 M12.1,17.9c-2.4,0-4.3,1.9-4.3,4.3c0,2.4,1.9,4.3,4.3,4.3c2.4,0,4.3-1.9,4.3-4.3C16.4,19.9,14.5,17.9,12.1,17.9z M10.7,18.9h0.7
	v1.4h0l0.9-1.4h0.7l-0.9,1.4l1.1,1.5h-0.8l-1-1.4h-0.1v1.4h-0.7V18.9z M13.2,25.5h-0.7L12,23.7h0l-0.4,1.8h-0.7l-0.8-2.9h0.7
	l0.5,1.8h0l0.5-1.8h0.6l0.5,1.8h0l0.4-1.8h0.7L13.2,25.5z M12.1,17.9c-2.4,0-4.3,1.9-4.3,4.3c0,2.4,1.9,4.3,4.3,4.3
	c2.4,0,4.3-1.9,4.3-4.3C16.4,19.9,14.5,17.9,12.1,17.9z M10.7,18.9h0.7v1.4h0l0.9-1.4h0.7l-0.9,1.4l1.1,1.5h-0.8l-1-1.4h-0.1v1.4
	h-0.7V18.9z M13.2,25.5h-0.7L12,23.7h0l-0.4,1.8h-0.7l-0.8-2.9h0.7l0.5,1.8h0l0.5-1.8h0.6l0.5,1.8h0l0.4-1.8h0.7L13.2,25.5z
	 M12.1,17.9c-2.4,0-4.3,1.9-4.3,4.3c0,2.4,1.9,4.3,4.3,4.3c2.4,0,4.3-1.9,4.3-4.3C16.4,19.9,14.5,17.9,12.1,17.9z M10.7,18.9h0.7
	v1.4h0l0.9-1.4h0.7l-0.9,1.4l1.1,1.5h-0.8l-1-1.4h-0.1v1.4h-0.7V18.9z M13.2,25.5h-0.7L12,23.7h0l-0.4,1.8h-0.7l-0.8-2.9h0.7
	l0.5,1.8h0l0.5-1.8h0.6l0.5,1.8h0l0.4-1.8h0.7L13.2,25.5z M12.1,17.9c-2.4,0-4.3,1.9-4.3,4.3c0,2.4,1.9,4.3,4.3,4.3
	c2.4,0,4.3-1.9,4.3-4.3C16.4,19.9,14.5,17.9,12.1,17.9z M10.7,18.9h0.7v1.4h0l0.9-1.4h0.7l-0.9,1.4l1.1,1.5h-0.8l-1-1.4h-0.1v1.4
	h-0.7V18.9z M13.2,25.5h-0.7L12,23.7h0l-0.4,1.8h-0.7l-0.8-2.9h0.7l0.5,1.8h0l0.5-1.8h0.6l0.5,1.8h0l0.4-1.8h0.7L13.2,25.5z
	 M12.1,17.9c-2.4,0-4.3,1.9-4.3,4.3c0,2.4,1.9,4.3,4.3,4.3c2.4,0,4.3-1.9,4.3-4.3C16.4,19.9,14.5,17.9,12.1,17.9z M10.7,18.9h0.7
	v1.4h0l0.9-1.4h0.7l-0.9,1.4l1.1,1.5h-0.8l-1-1.4h-0.1v1.4h-0.7V18.9z M13.2,25.5h-0.7L12,23.7h0l-0.4,1.8h-0.7l-0.8-2.9h0.7
	l0.5,1.8h0l0.5-1.8h0.6l0.5,1.8h0l0.4-1.8h0.7L13.2,25.5z M12.1,17.9c-2.4,0-4.3,1.9-4.3,4.3c0,2.4,1.9,4.3,4.3,4.3
	c2.4,0,4.3-1.9,4.3-4.3C16.4,19.9,14.5,17.9,12.1,17.9z M10.7,18.9h0.7v1.4h0l0.9-1.4h0.7l-0.9,1.4l1.1,1.5h-0.8l-1-1.4h-0.1v1.4
	h-0.7V18.9z M13.2,25.5h-0.7L12,23.7h0l-0.4,1.8h-0.7l-0.8-2.9h0.7l0.5,1.8h0l0.5-1.8h0.6l0.5,1.8h0l0.4-1.8h0.7L13.2,25.5z
	 M12.1,17.9c-2.4,0-4.3,1.9-4.3,4.3c0,2.4,1.9,4.3,4.3,4.3c2.4,0,4.3-1.9,4.3-4.3C16.4,19.9,14.5,17.9,12.1,17.9z M10.7,18.9h0.7
	v1.4h0l0.9-1.4h0.7l-0.9,1.4l1.1,1.5h-0.8l-1-1.4h-0.1v1.4h-0.7V18.9z M13.2,25.5h-0.7L12,23.7h0l-0.4,1.8h-0.7l-0.8-2.9h0.7
	l0.5,1.8h0l0.5-1.8h0.6l0.5,1.8h0l0.4-1.8h0.7L13.2,25.5z M12.1,17.9c-2.4,0-4.3,1.9-4.3,4.3c0,2.4,1.9,4.3,4.3,4.3
	c2.4,0,4.3-1.9,4.3-4.3C16.4,19.9,14.5,17.9,12.1,17.9z M10.7,18.9h0.7v1.4h0l0.9-1.4h0.7l-0.9,1.4l1.1,1.5h-0.8l-1-1.4h-0.1v1.4
	h-0.7V18.9z M13.2,25.5h-0.7L12,23.7h0l-0.4,1.8h-0.7l-0.8-2.9h0.7l0.5,1.8h0l0.5-1.8h0.6l0.5,1.8h0l0.4-1.8h0.7L13.2,25.5z
	 M12.1,17.9c-2.4,0-4.3,1.9-4.3,4.3c0,2.4,1.9,4.3,4.3,4.3c2.4,0,4.3-1.9,4.3-4.3C16.4,19.9,14.5,17.9,12.1,17.9z M10.7,18.9h0.7
	v1.4h0l0.9-1.4h0.7l-0.9,1.4l1.1,1.5h-0.8l-1-1.4h-0.1v1.4h-0.7V18.9z M13.2,25.5h-0.7L12,23.7h0l-0.4,1.8h-0.7l-0.8-2.9h0.7
	l0.5,1.8h0l0.5-1.8h0.6l0.5,1.8h0l0.4-1.8h0.7L13.2,25.5z M12.1,17.9c-2.4,0-4.3,1.9-4.3,4.3c0,2.4,1.9,4.3,4.3,4.3
	c2.4,0,4.3-1.9,4.3-4.3C16.4,19.9,14.5,17.9,12.1,17.9z M10.7,18.9h0.7v1.4h0l0.9-1.4h0.7l-0.9,1.4l1.1,1.5h-0.8l-1-1.4h-0.1v1.4
	h-0.7V18.9z M13.2,25.5h-0.7L12,23.7h0l-0.4,1.8h-0.7l-0.8-2.9h0.7l0.5,1.8h0l0.5-1.8h0.6l0.5,1.8h0l0.4-1.8h0.7L13.2,25.5z
	 M12.1,17.9c-2.4,0-4.3,1.9-4.3,4.3c0,2.4,1.9,4.3,4.3,4.3c2.4,0,4.3-1.9,4.3-4.3C16.4,19.9,14.5,17.9,12.1,17.9z M10.7,18.9h0.7
	v1.4h0l0.9-1.4h0.7l-0.9,1.4l1.1,1.5h-0.8l-1-1.4h-0.1v1.4h-0.7V18.9z M13.2,25.5h-0.7L12,23.7h0l-0.4,1.8h-0.7l-0.8-2.9h0.7
	l0.5,1.8h0l0.5-1.8h0.6l0.5,1.8h0l0.4-1.8h0.7L13.2,25.5z M12.1,17.9c-2.4,0-4.3,1.9-4.3,4.3c0,2.4,1.9,4.3,4.3,4.3
	c2.4,0,4.3-1.9,4.3-4.3C16.4,19.9,14.5,17.9,12.1,17.9z M10.7,18.9h0.7v1.4h0l0.9-1.4h0.7l-0.9,1.4l1.1,1.5h-0.8l-1-1.4h-0.1v1.4
	h-0.7V18.9z M13.2,25.5h-0.7L12,23.7h0l-0.4,1.8h-0.7l-0.8-2.9h0.7l0.5,1.8h0l0.5-1.8h0.6l0.5,1.8h0l0.4-1.8h0.7L13.2,25.5z
	 M15.6,17.6v-1.7c-0.4-0.1-0.7-0.3-1.1-0.3V17c-0.3-0.1-0.6-0.2-0.8-0.3v-1.3c-0.4-0.1-0.7-0.1-1.1-0.1v1.2c-0.1,0-0.3,0-0.4,0
	c-0.1,0-0.3,0-0.4,0v-1.2c-0.4,0-0.7,0-1.1,0.1v1.3c-0.3,0.1-0.6,0.2-0.8,0.3v-1.4c-0.4,0.1-0.7,0.2-1.1,0.3v1.7
	c-1.4,1.1-2.3,2.7-2.3,4.7c0,1.9,0.9,3.6,2.3,4.7v7.2c0.4,0.1,0.7,0.2,1.1,0.3v-6.9c0.3,0.1,0.6,0.2,0.8,0.3v6.8
	c0.4,0.1,0.7,0.1,1.1,0.1V28c0.1,0,0.3,0,0.4,0c0.2,0,0.3,0,0.4,0v6.7c0.4,0,0.7-0.1,1.1-0.1v-6.8c0.3-0.1,0.6-0.2,0.8-0.3v7
	c0.4-0.1,0.7-0.2,1.1-0.3v-7.3c1.4-1.1,2.3-2.7,2.3-4.6C17.9,20.3,17,18.7,15.6,17.6z M12.1,26.9c-2.6,0-4.6-2.1-4.6-4.6
	c0-2.6,2.1-4.6,4.6-4.6c2.6,0,4.6,2.1,4.6,4.6C16.7,24.8,14.7,26.9,12.1,26.9z M12.1,17.9c-2.4,0-4.3,1.9-4.3,4.3
	c0,2.4,1.9,4.3,4.3,4.3c2.4,0,4.3-1.9,4.3-4.3C16.4,19.9,14.5,17.9,12.1,17.9z M10.7,18.9h0.7v1.4h0l0.9-1.4h0.7l-0.9,1.4l1.1,1.5
	h-0.8l-1-1.4h-0.1v1.4h-0.7V18.9z M13.2,25.5h-0.7L12,23.7h0l-0.4,1.8h-0.7l-0.8-2.9h0.7l0.5,1.8h0l0.5-1.8h0.6l0.5,1.8h0l0.4-1.8
	h0.7L13.2,25.5z M12.1,17.9c-2.4,0-4.3,1.9-4.3,4.3c0,2.4,1.9,4.3,4.3,4.3c2.4,0,4.3-1.9,4.3-4.3C16.4,19.9,14.5,17.9,12.1,17.9z
	 M10.7,18.9h0.7v1.4h0l0.9-1.4h0.7l-0.9,1.4l1.1,1.5h-0.8l-1-1.4h-0.1v1.4h-0.7V18.9z M13.2,25.5h-0.7L12,23.7h0l-0.4,1.8h-0.7
	l-0.8-2.9h0.7l0.5,1.8h0l0.5-1.8h0.6l0.5,1.8h0l0.4-1.8h0.7L13.2,25.5z M12.1,17.9c-2.4,0-4.3,1.9-4.3,4.3c0,2.4,1.9,4.3,4.3,4.3
	c2.4,0,4.3-1.9,4.3-4.3C16.4,19.9,14.5,17.9,12.1,17.9z M10.7,18.9h0.7v1.4h0l0.9-1.4h0.7l-0.9,1.4l1.1,1.5h-0.8l-1-1.4h-0.1v1.4
	h-0.7V18.9z M13.2,25.5h-0.7L12,23.7h0l-0.4,1.8h-0.7l-0.8-2.9h0.7l0.5,1.8h0l0.5-1.8h0.6l0.5,1.8h0l0.4-1.8h0.7L13.2,25.5z
	 M12.1,17.9c-2.4,0-4.3,1.9-4.3,4.3c0,2.4,1.9,4.3,4.3,4.3c2.4,0,4.3-1.9,4.3-4.3C16.4,19.9,14.5,17.9,12.1,17.9z M10.7,18.9h0.7
	v1.4h0l0.9-1.4h0.7l-0.9,1.4l1.1,1.5h-0.8l-1-1.4h-0.1v1.4h-0.7V18.9z M13.2,25.5h-0.7L12,23.7h0l-0.4,1.8h-0.7l-0.8-2.9h0.7
	l0.5,1.8h0l0.5-1.8h0.6l0.5,1.8h0l0.4-1.8h0.7L13.2,25.5z M12.1,17.9c-2.4,0-4.3,1.9-4.3,4.3c0,2.4,1.9,4.3,4.3,4.3
	c2.4,0,4.3-1.9,4.3-4.3C16.4,19.9,14.5,17.9,12.1,17.9z M10.7,18.9h0.7v1.4h0l0.9-1.4h0.7l-0.9,1.4l1.1,1.5h-0.8l-1-1.4h-0.1v1.4
	h-0.7V18.9z M13.2,25.5h-0.7L12,23.7h0l-0.4,1.8h-0.7l-0.8-2.9h0.7l0.5,1.8h0l0.5-1.8h0.6l0.5,1.8h0l0.4-1.8h0.7L13.2,25.5z
	 M12.1,17.9c-2.4,0-4.3,1.9-4.3,4.3c0,2.4,1.9,4.3,4.3,4.3c2.4,0,4.3-1.9,4.3-4.3C16.4,19.9,14.5,17.9,12.1,17.9z M10.7,18.9h0.7
	v1.4h0l0.9-1.4h0.7l-0.9,1.4l1.1,1.5h-0.8l-1-1.4h-0.1v1.4h-0.7V18.9z M13.2,25.5h-0.7L12,23.7h0l-0.4,1.8h-0.7l-0.8-2.9h0.7
	l0.5,1.8h0l0.5-1.8h0.6l0.5,1.8h0l0.4-1.8h0.7L13.2,25.5z M12.1,17.9c-2.4,0-4.3,1.9-4.3,4.3c0,2.4,1.9,4.3,4.3,4.3
	c2.4,0,4.3-1.9,4.3-4.3C16.4,19.9,14.5,17.9,12.1,17.9z M10.7,18.9h0.7v1.4h0l0.9-1.4h0.7l-0.9,1.4l1.1,1.5h-0.8l-1-1.4h-0.1v1.4
	h-0.7V18.9z M13.2,25.5h-0.7L12,23.7h0l-0.4,1.8h-0.7l-0.8-2.9h0.7l0.5,1.8h0l0.5-1.8h0.6l0.5,1.8h0l0.4-1.8h0.7L13.2,25.5z
	 M12.1,17.9c-2.4,0-4.3,1.9-4.3,4.3c0,2.4,1.9,4.3,4.3,4.3c2.4,0,4.3-1.9,4.3-4.3C16.4,19.9,14.5,17.9,12.1,17.9z M10.7,18.9h0.7
	v1.4h0l0.9-1.4h0.7l-0.9,1.4l1.1,1.5h-0.8l-1-1.4h-0.1v1.4h-0.7V18.9z M13.2,25.5h-0.7L12,23.7h0l-0.4,1.8h-0.7l-0.8-2.9h0.7
	l0.5,1.8h0l0.5-1.8h0.6l0.5,1.8h0l0.4-1.8h0.7L13.2,25.5z M12.1,17.9c-2.4,0-4.3,1.9-4.3,4.3c0,2.4,1.9,4.3,4.3,4.3
	c2.4,0,4.3-1.9,4.3-4.3C16.4,19.9,14.5,17.9,12.1,17.9z M10.7,18.9h0.7v1.4h0l0.9-1.4h0.7l-0.9,1.4l1.1,1.5h-0.8l-1-1.4h-0.1v1.4
	h-0.7V18.9z M13.2,25.5h-0.7L12,23.7h0l-0.4,1.8h-0.7l-0.8-2.9h0.7l0.5,1.8h0l0.5-1.8h0.6l0.5,1.8h0l0.4-1.8h0.7L13.2,25.5z
	 M12.1,17.9c-2.4,0-4.3,1.9-4.3,4.3c0,2.4,1.9,4.3,4.3,4.3c2.4,0,4.3-1.9,4.3-4.3C16.4,19.9,14.5,17.9,12.1,17.9z M10.7,18.9h0.7
	v1.4h0l0.9-1.4h0.7l-0.9,1.4l1.1,1.5h-0.8l-1-1.4h-0.1v1.4h-0.7V18.9z M13.2,25.5h-0.7L12,23.7h0l-0.4,1.8h-0.7l-0.8-2.9h0.7
	l0.5,1.8h0l0.5-1.8h0.6l0.5,1.8h0l0.4-1.8h0.7L13.2,25.5z M12.1,17.9c-2.4,0-4.3,1.9-4.3,4.3c0,2.4,1.9,4.3,4.3,4.3
	c2.4,0,4.3-1.9,4.3-4.3C16.4,19.9,14.5,17.9,12.1,17.9z M10.7,18.9h0.7v1.4h0l0.9-1.4h0.7l-0.9,1.4l1.1,1.5h-0.8l-1-1.4h-0.1v1.4
	h-0.7V18.9z M13.2,25.5h-0.7L12,23.7h0l-0.4,1.8h-0.7l-0.8-2.9h0.7l0.5,1.8h0l0.5-1.8h0.6l0.5,1.8h0l0.4-1.8h0.7L13.2,25.5z
	 M12.1,17.9c-2.4,0-4.3,1.9-4.3,4.3c0,2.4,1.9,4.3,4.3,4.3c2.4,0,4.3-1.9,4.3-4.3C16.4,19.9,14.5,17.9,12.1,17.9z M10.7,18.9h0.7
	v1.4h0l0.9-1.4h0.7l-0.9,1.4l1.1,1.5h-0.8l-1-1.4h-0.1v1.4h-0.7V18.9z M13.2,25.5h-0.7L12,23.7h0l-0.4,1.8h-0.7l-0.8-2.9h0.7
	l0.5,1.8h0l0.5-1.8h0.6l0.5,1.8h0l0.4-1.8h0.7L13.2,25.5z M12.1,17.9c-2.4,0-4.3,1.9-4.3,4.3c0,2.4,1.9,4.3,4.3,4.3
	c2.4,0,4.3-1.9,4.3-4.3C16.4,19.9,14.5,17.9,12.1,17.9z M10.7,18.9h0.7v1.4h0l0.9-1.4h0.7l-0.9,1.4l1.1,1.5h-0.8l-1-1.4h-0.1v1.4
	h-0.7V18.9z M13.2,25.5h-0.7L12,23.7h0l-0.4,1.8h-0.7l-0.8-2.9h0.7l0.5,1.8h0l0.5-1.8h0.6l0.5,1.8h0l0.4-1.8h0.7L13.2,25.5z
	 M15.6,17.6v-1.7c-0.4-0.1-0.7-0.3-1.1-0.3V17c-0.3-0.1-0.6-0.2-0.8-0.3v-1.3c-0.4-0.1-0.7-0.1-1.1-0.1v1.2c-0.1,0-0.3,0-0.4,0
	c-0.1,0-0.3,0-0.4,0v-1.2c-0.4,0-0.7,0-1.1,0.1v1.3c-0.3,0.1-0.6,0.2-0.8,0.3v-1.4c-0.4,0.1-0.7,0.2-1.1,0.3v1.7
	c-1.4,1.1-2.3,2.7-2.3,4.7c0,1.9,0.9,3.6,2.3,4.7v7.2c0.4,0.1,0.7,0.2,1.1,0.3v-6.9c0.3,0.1,0.6,0.2,0.8,0.3v6.8
	c0.4,0.1,0.7,0.1,1.1,0.1V28c0.1,0,0.3,0,0.4,0c0.2,0,0.3,0,0.4,0v6.7c0.4,0,0.7-0.1,1.1-0.1v-6.8c0.3-0.1,0.6-0.2,0.8-0.3v7
	c0.4-0.1,0.7-0.2,1.1-0.3v-7.3c1.4-1.1,2.3-2.7,2.3-4.6C17.9,20.3,17,18.7,15.6,17.6z M12.1,26.9c-2.6,0-4.6-2.1-4.6-4.6
	c0-2.6,2.1-4.6,4.6-4.6c2.6,0,4.6,2.1,4.6,4.6C16.7,24.8,14.7,26.9,12.1,26.9z M12.1,17.9c-2.4,0-4.3,1.9-4.3,4.3
	c0,2.4,1.9,4.3,4.3,4.3c2.4,0,4.3-1.9,4.3-4.3C16.4,19.9,14.5,17.9,12.1,17.9z M10.7,18.9h0.7v1.4h0l0.9-1.4h0.7l-0.9,1.4l1.1,1.5
	h-0.8l-1-1.4h-0.1v1.4h-0.7V18.9z M13.2,25.5h-0.7L12,23.7h0l-0.4,1.8h-0.7l-0.8-2.9h0.7l0.5,1.8h0l0.5-1.8h0.6l0.5,1.8h0l0.4-1.8
	h0.7L13.2,25.5z M12.1,17.9c-2.4,0-4.3,1.9-4.3,4.3c0,2.4,1.9,4.3,4.3,4.3c2.4,0,4.3-1.9,4.3-4.3C16.4,19.9,14.5,17.9,12.1,17.9z
	 M10.7,18.9h0.7v1.4h0l0.9-1.4h0.7l-0.9,1.4l1.1,1.5h-0.8l-1-1.4h-0.1v1.4h-0.7V18.9z M13.2,25.5h-0.7L12,23.7h0l-0.4,1.8h-0.7
	l-0.8-2.9h0.7l0.5,1.8h0l0.5-1.8h0.6l0.5,1.8h0l0.4-1.8h0.7L13.2,25.5z M12.1,17.9c-2.4,0-4.3,1.9-4.3,4.3c0,2.4,1.9,4.3,4.3,4.3
	c2.4,0,4.3-1.9,4.3-4.3C16.4,19.9,14.5,17.9,12.1,17.9z M10.7,18.9h0.7v1.4h0l0.9-1.4h0.7l-0.9,1.4l1.1,1.5h-0.8l-1-1.4h-0.1v1.4
	h-0.7V18.9z M13.2,25.5h-0.7L12,23.7h0l-0.4,1.8h-0.7l-0.8-2.9h0.7l0.5,1.8h0l0.5-1.8h0.6l0.5,1.8h0l0.4-1.8h0.7L13.2,25.5z
	 M12.1,17.9c-2.4,0-4.3,1.9-4.3,4.3c0,2.4,1.9,4.3,4.3,4.3c2.4,0,4.3-1.9,4.3-4.3C16.4,19.9,14.5,17.9,12.1,17.9z M10.7,18.9h0.7
	v1.4h0l0.9-1.4h0.7l-0.9,1.4l1.1,1.5h-0.8l-1-1.4h-0.1v1.4h-0.7V18.9z M13.2,25.5h-0.7L12,23.7h0l-0.4,1.8h-0.7l-0.8-2.9h0.7
	l0.5,1.8h0l0.5-1.8h0.6l0.5,1.8h0l0.4-1.8h0.7L13.2,25.5z M12.1,17.9c-2.4,0-4.3,1.9-4.3,4.3c0,2.4,1.9,4.3,4.3,4.3
	c2.4,0,4.3-1.9,4.3-4.3C16.4,19.9,14.5,17.9,12.1,17.9z M10.7,18.9h0.7v1.4h0l0.9-1.4h0.7l-0.9,1.4l1.1,1.5h-0.8l-1-1.4h-0.1v1.4
	h-0.7V18.9z M13.2,25.5h-0.7L12,23.7h0l-0.4,1.8h-0.7l-0.8-2.9h0.7l0.5,1.8h0l0.5-1.8h0.6l0.5,1.8h0l0.4-1.8h0.7L13.2,25.5z
	 M12.1,17.9c-2.4,0-4.3,1.9-4.3,4.3c0,2.4,1.9,4.3,4.3,4.3c2.4,0,4.3-1.9,4.3-4.3C16.4,19.9,14.5,17.9,12.1,17.9z M10.7,18.9h0.7
	v1.4h0l0.9-1.4h0.7l-0.9,1.4l1.1,1.5h-0.8l-1-1.4h-0.1v1.4h-0.7V18.9z M13.2,25.5h-0.7L12,23.7h0l-0.4,1.8h-0.7l-0.8-2.9h0.7
	l0.5,1.8h0l0.5-1.8h0.6l0.5,1.8h0l0.4-1.8h0.7L13.2,25.5z M12.1,17.9c-2.4,0-4.3,1.9-4.3,4.3c0,2.4,1.9,4.3,4.3,4.3
	c2.4,0,4.3-1.9,4.3-4.3C16.4,19.9,14.5,17.9,12.1,17.9z M10.7,18.9h0.7v1.4h0l0.9-1.4h0.7l-0.9,1.4l1.1,1.5h-0.8l-1-1.4h-0.1v1.4
	h-0.7V18.9z M13.2,25.5h-0.7L12,23.7h0l-0.4,1.8h-0.7l-0.8-2.9h0.7l0.5,1.8h0l0.5-1.8h0.6l0.5,1.8h0l0.4-1.8h0.7L13.2,25.5z
	 M12.1,17.9c-2.4,0-4.3,1.9-4.3,4.3c0,2.4,1.9,4.3,4.3,4.3c2.4,0,4.3-1.9,4.3-4.3C16.4,19.9,14.5,17.9,12.1,17.9z M10.7,18.9h0.7
	v1.4h0l0.9-1.4h0.7l-0.9,1.4l1.1,1.5h-0.8l-1-1.4h-0.1v1.4h-0.7V18.9z M13.2,25.5h-0.7L12,23.7h0l-0.4,1.8h-0.7l-0.8-2.9h0.7
	l0.5,1.8h0l0.5-1.8h0.6l0.5,1.8h0l0.4-1.8h0.7L13.2,25.5z M12.1,17.9c-2.4,0-4.3,1.9-4.3,4.3c0,2.4,1.9,4.3,4.3,4.3
	c2.4,0,4.3-1.9,4.3-4.3C16.4,19.9,14.5,17.9,12.1,17.9z M10.7,18.9h0.7v1.4h0l0.9-1.4h0.7l-0.9,1.4l1.1,1.5h-0.8l-1-1.4h-0.1v1.4
	h-0.7V18.9z M13.2,25.5h-0.7L12,23.7h0l-0.4,1.8h-0.7l-0.8-2.9h0.7l0.5,1.8h0l0.5-1.8h0.6l0.5,1.8h0l0.4-1.8h0.7L13.2,25.5z
	 M12.1,17.9c-2.4,0-4.3,1.9-4.3,4.3c0,2.4,1.9,4.3,4.3,4.3c2.4,0,4.3-1.9,4.3-4.3C16.4,19.9,14.5,17.9,12.1,17.9z M10.7,18.9h0.7
	v1.4h0l0.9-1.4h0.7l-0.9,1.4l1.1,1.5h-0.8l-1-1.4h-0.1v1.4h-0.7V18.9z M13.2,25.5h-0.7L12,23.7h0l-0.4,1.8h-0.7l-0.8-2.9h0.7
	l0.5,1.8h0l0.5-1.8h0.6l0.5,1.8h0l0.4-1.8h0.7L13.2,25.5z M12.1,17.9c-2.4,0-4.3,1.9-4.3,4.3c0,2.4,1.9,4.3,4.3,4.3
	c2.4,0,4.3-1.9,4.3-4.3C16.4,19.9,14.5,17.9,12.1,17.9z M10.7,18.9h0.7v1.4h0l0.9-1.4h0.7l-0.9,1.4l1.1,1.5h-0.8l-1-1.4h-0.1v1.4
	h-0.7V18.9z M13.2,25.5h-0.7L12,23.7h0l-0.4,1.8h-0.7l-0.8-2.9h0.7l0.5,1.8h0l0.5-1.8h0.6l0.5,1.8h0l0.4-1.8h0.7L13.2,25.5z
	 M12.1,17.9c-2.4,0-4.3,1.9-4.3,4.3c0,2.4,1.9,4.3,4.3,4.3c2.4,0,4.3-1.9,4.3-4.3C16.4,19.9,14.5,17.9,12.1,17.9z M10.7,18.9h0.7
	v1.4h0l0.9-1.4h0.7l-0.9,1.4l1.1,1.5h-0.8l-1-1.4h-0.1v1.4h-0.7V18.9z M13.2,25.5h-0.7L12,23.7h0l-0.4,1.8h-0.7l-0.8-2.9h0.7
	l0.5,1.8h0l0.5-1.8h0.6l0.5,1.8h0l0.4-1.8h0.7L13.2,25.5z M12.1,17.9c-2.4,0-4.3,1.9-4.3,4.3c0,2.4,1.9,4.3,4.3,4.3
	c2.4,0,4.3-1.9,4.3-4.3C16.4,19.9,14.5,17.9,12.1,17.9z M10.7,18.9h0.7v1.4h0l0.9-1.4h0.7l-0.9,1.4l1.1,1.5h-0.8l-1-1.4h-0.1v1.4
	h-0.7V18.9z M13.2,25.5h-0.7L12,23.7h0l-0.4,1.8h-0.7l-0.8-2.9h0.7l0.5,1.8h0l0.5-1.8h0.6l0.5,1.8h0l0.4-1.8h0.7L13.2,25.5z
	 M15.6,17.6v-1.7c-0.4-0.1-0.7-0.3-1.1-0.3V17c-0.3-0.1-0.6-0.2-0.8-0.3v-1.3c-0.4-0.1-0.7-0.1-1.1-0.1v1.2c-0.1,0-0.3,0-0.4,0
	c-0.1,0-0.3,0-0.4,0v-1.2c-0.4,0-0.7,0-1.1,0.1v1.3c-0.3,0.1-0.6,0.2-0.8,0.3v-1.4c-0.4,0.1-0.7,0.2-1.1,0.3v1.7
	c-1.4,1.1-2.3,2.7-2.3,4.7c0,1.9,0.9,3.6,2.3,4.7v7.2c0.4,0.1,0.7,0.2,1.1,0.3v-6.9c0.3,0.1,0.6,0.2,0.8,0.3v6.8
	c0.4,0.1,0.7,0.1,1.1,0.1V28c0.1,0,0.3,0,0.4,0c0.2,0,0.3,0,0.4,0v6.7c0.4,0,0.7-0.1,1.1-0.1v-6.8c0.3-0.1,0.6-0.2,0.8-0.3v7
	c0.4-0.1,0.7-0.2,1.1-0.3v-7.3c1.4-1.1,2.3-2.7,2.3-4.6C17.9,20.3,17,18.7,15.6,17.6z M12.1,26.9c-2.6,0-4.6-2.1-4.6-4.6
	c0-2.6,2.1-4.6,4.6-4.6c2.6,0,4.6,2.1,4.6,4.6C16.7,24.8,14.7,26.9,12.1,26.9z M12.1,17.9c-2.4,0-4.3,1.9-4.3,4.3
	c0,2.4,1.9,4.3,4.3,4.3c2.4,0,4.3-1.9,4.3-4.3C16.4,19.9,14.5,17.9,12.1,17.9z M10.7,18.9h0.7v1.4h0l0.9-1.4h0.7l-0.9,1.4l1.1,1.5
	h-0.8l-1-1.4h-0.1v1.4h-0.7V18.9z M13.2,25.5h-0.7L12,23.7h0l-0.4,1.8h-0.7l-0.8-2.9h0.7l0.5,1.8h0l0.5-1.8h0.6l0.5,1.8h0l0.4-1.8
	h0.7L13.2,25.5z M12.1,17.9c-2.4,0-4.3,1.9-4.3,4.3c0,2.4,1.9,4.3,4.3,4.3c2.4,0,4.3-1.9,4.3-4.3C16.4,19.9,14.5,17.9,12.1,17.9z
	 M10.7,18.9h0.7v1.4h0l0.9-1.4h0.7l-0.9,1.4l1.1,1.5h-0.8l-1-1.4h-0.1v1.4h-0.7V18.9z M13.2,25.5h-0.7L12,23.7h0l-0.4,1.8h-0.7
	l-0.8-2.9h0.7l0.5,1.8h0l0.5-1.8h0.6l0.5,1.8h0l0.4-1.8h0.7L13.2,25.5z M12.1,17.9c-2.4,0-4.3,1.9-4.3,4.3c0,2.4,1.9,4.3,4.3,4.3
	c2.4,0,4.3-1.9,4.3-4.3C16.4,19.9,14.5,17.9,12.1,17.9z M10.7,18.9h0.7v1.4h0l0.9-1.4h0.7l-0.9,1.4l1.1,1.5h-0.8l-1-1.4h-0.1v1.4
	h-0.7V18.9z M13.2,25.5h-0.7L12,23.7h0l-0.4,1.8h-0.7l-0.8-2.9h0.7l0.5,1.8h0l0.5-1.8h0.6l0.5,1.8h0l0.4-1.8h0.7L13.2,25.5z
	 M12.1,17.9c-2.4,0-4.3,1.9-4.3,4.3c0,2.4,1.9,4.3,4.3,4.3c2.4,0,4.3-1.9,4.3-4.3C16.4,19.9,14.5,17.9,12.1,17.9z M10.7,18.9h0.7
	v1.4h0l0.9-1.4h0.7l-0.9,1.4l1.1,1.5h-0.8l-1-1.4h-0.1v1.4h-0.7V18.9z M13.2,25.5h-0.7L12,23.7h0l-0.4,1.8h-0.7l-0.8-2.9h0.7
	l0.5,1.8h0l0.5-1.8h0.6l0.5,1.8h0l0.4-1.8h0.7L13.2,25.5z M12.1,17.9c-2.4,0-4.3,1.9-4.3,4.3c0,2.4,1.9,4.3,4.3,4.3
	c2.4,0,4.3-1.9,4.3-4.3C16.4,19.9,14.5,17.9,12.1,17.9z M10.7,18.9h0.7v1.4h0l0.9-1.4h0.7l-0.9,1.4l1.1,1.5h-0.8l-1-1.4h-0.1v1.4
	h-0.7V18.9z M13.2,25.5h-0.7L12,23.7h0l-0.4,1.8h-0.7l-0.8-2.9h0.7l0.5,1.8h0l0.5-1.8h0.6l0.5,1.8h0l0.4-1.8h0.7L13.2,25.5z
	 M12.1,17.9c-2.4,0-4.3,1.9-4.3,4.3c0,2.4,1.9,4.3,4.3,4.3c2.4,0,4.3-1.9,4.3-4.3C16.4,19.9,14.5,17.9,12.1,17.9z M10.7,18.9h0.7
	v1.4h0l0.9-1.4h0.7l-0.9,1.4l1.1,1.5h-0.8l-1-1.4h-0.1v1.4h-0.7V18.9z M13.2,25.5h-0.7L12,23.7h0l-0.4,1.8h-0.7l-0.8-2.9h0.7
	l0.5,1.8h0l0.5-1.8h0.6l0.5,1.8h0l0.4-1.8h0.7L13.2,25.5z M12.1,17.9c-2.4,0-4.3,1.9-4.3,4.3c0,2.4,1.9,4.3,4.3,4.3
	c2.4,0,4.3-1.9,4.3-4.3C16.4,19.9,14.5,17.9,12.1,17.9z M10.7,18.9h0.7v1.4h0l0.9-1.4h0.7l-0.9,1.4l1.1,1.5h-0.8l-1-1.4h-0.1v1.4
	h-0.7V18.9z M13.2,25.5h-0.7L12,23.7h0l-0.4,1.8h-0.7l-0.8-2.9h0.7l0.5,1.8h0l0.5-1.8h0.6l0.5,1.8h0l0.4-1.8h0.7L13.2,25.5z
	 M12.1,17.9c-2.4,0-4.3,1.9-4.3,4.3c0,2.4,1.9,4.3,4.3,4.3c2.4,0,4.3-1.9,4.3-4.3C16.4,19.9,14.5,17.9,12.1,17.9z M10.7,18.9h0.7
	v1.4h0l0.9-1.4h0.7l-0.9,1.4l1.1,1.5h-0.8l-1-1.4h-0.1v1.4h-0.7V18.9z M13.2,25.5h-0.7L12,23.7h0l-0.4,1.8h-0.7l-0.8-2.9h0.7
	l0.5,1.8h0l0.5-1.8h0.6l0.5,1.8h0l0.4-1.8h0.7L13.2,25.5z M12.1,17.9c-2.4,0-4.3,1.9-4.3,4.3c0,2.4,1.9,4.3,4.3,4.3
	c2.4,0,4.3-1.9,4.3-4.3C16.4,19.9,14.5,17.9,12.1,17.9z M10.7,18.9h0.7v1.4h0l0.9-1.4h0.7l-0.9,1.4l1.1,1.5h-0.8l-1-1.4h-0.1v1.4
	h-0.7V18.9z M13.2,25.5h-0.7L12,23.7h0l-0.4,1.8h-0.7l-0.8-2.9h0.7l0.5,1.8h0l0.5-1.8h0.6l0.5,1.8h0l0.4-1.8h0.7L13.2,25.5z
	 M15.6,17.6v-1.7c-0.4-0.1-0.7-0.3-1.1-0.3V17c-0.3-0.1-0.6-0.2-0.8-0.3v-1.3c-0.4-0.1-0.7-0.1-1.1-0.1v1.2c-0.1,0-0.3,0-0.4,0
	c-0.1,0-0.3,0-0.4,0v-1.2c-0.4,0-0.7,0-1.1,0.1v1.3c-0.3,0.1-0.6,0.2-0.8,0.3v-1.4c-0.4,0.1-0.7,0.2-1.1,0.3v1.7
	c-1.4,1.1-2.3,2.7-2.3,4.7c0,1.9,0.9,3.6,2.3,4.7v7.2c0.4,0.1,0.7,0.2,1.1,0.3v-6.9c0.3,0.1,0.6,0.2,0.8,0.3v6.8
	c0.4,0.1,0.7,0.1,1.1,0.1V28c0.1,0,0.3,0,0.4,0c0.2,0,0.3,0,0.4,0v6.7c0.4,0,0.7-0.1,1.1-0.1v-6.8c0.3-0.1,0.6-0.2,0.8-0.3v7
	c0.4-0.1,0.7-0.2,1.1-0.3v-7.3c1.4-1.1,2.3-2.7,2.3-4.6C17.9,20.3,17,18.7,15.6,17.6z M12.1,26.9c-2.6,0-4.6-2.1-4.6-4.6
	c0-2.6,2.1-4.6,4.6-4.6c2.6,0,4.6,2.1,4.6,4.6C16.7,24.8,14.7,26.9,12.1,26.9z M12.1,17.9c-2.4,0-4.3,1.9-4.3,4.3
	c0,2.4,1.9,4.3,4.3,4.3c2.4,0,4.3-1.9,4.3-4.3C16.4,19.9,14.5,17.9,12.1,17.9z M10.7,18.9h0.7v1.4h0l0.9-1.4h0.7l-0.9,1.4l1.1,1.5
	h-0.8l-1-1.4h-0.1v1.4h-0.7V18.9z M13.2,25.5h-0.7L12,23.7h0l-0.4,1.8h-0.7l-0.8-2.9h0.7l0.5,1.8h0l0.5-1.8h0.6l0.5,1.8h0l0.4-1.8
	h0.7L13.2,25.5z M12.1,17.9c-2.4,0-4.3,1.9-4.3,4.3c0,2.4,1.9,4.3,4.3,4.3c2.4,0,4.3-1.9,4.3-4.3C16.4,19.9,14.5,17.9,12.1,17.9z
	 M10.7,18.9h0.7v1.4h0l0.9-1.4h0.7l-0.9,1.4l1.1,1.5h-0.8l-1-1.4h-0.1v1.4h-0.7V18.9z M13.2,25.5h-0.7L12,23.7h0l-0.4,1.8h-0.7
	l-0.8-2.9h0.7l0.5,1.8h0l0.5-1.8h0.6l0.5,1.8h0l0.4-1.8h0.7L13.2,25.5z M12.1,17.9c-2.4,0-4.3,1.9-4.3,4.3c0,2.4,1.9,4.3,4.3,4.3
	c2.4,0,4.3-1.9,4.3-4.3C16.4,19.9,14.5,17.9,12.1,17.9z M10.7,18.9h0.7v1.4h0l0.9-1.4h0.7l-0.9,1.4l1.1,1.5h-0.8l-1-1.4h-0.1v1.4
	h-0.7V18.9z M13.2,25.5h-0.7L12,23.7h0l-0.4,1.8h-0.7l-0.8-2.9h0.7l0.5,1.8h0l0.5-1.8h0.6l0.5,1.8h0l0.4-1.8h0.7L13.2,25.5z
	 M12.1,17.9c-2.4,0-4.3,1.9-4.3,4.3c0,2.4,1.9,4.3,4.3,4.3c2.4,0,4.3-1.9,4.3-4.3C16.4,19.9,14.5,17.9,12.1,17.9z M10.7,18.9h0.7
	v1.4h0l0.9-1.4h0.7l-0.9,1.4l1.1,1.5h-0.8l-1-1.4h-0.1v1.4h-0.7V18.9z M13.2,25.5h-0.7L12,23.7h0l-0.4,1.8h-0.7l-0.8-2.9h0.7
	l0.5,1.8h0l0.5-1.8h0.6l0.5,1.8h0l0.4-1.8h0.7L13.2,25.5z M12.1,17.9c-2.4,0-4.3,1.9-4.3,4.3c0,2.4,1.9,4.3,4.3,4.3
	c2.4,0,4.3-1.9,4.3-4.3C16.4,19.9,14.5,17.9,12.1,17.9z M10.7,18.9h0.7v1.4h0l0.9-1.4h0.7l-0.9,1.4l1.1,1.5h-0.8l-1-1.4h-0.1v1.4
	h-0.7V18.9z M13.2,25.5h-0.7L12,23.7h0l-0.4,1.8h-0.7l-0.8-2.9h0.7l0.5,1.8h0l0.5-1.8h0.6l0.5,1.8h0l0.4-1.8h0.7L13.2,25.5z
	 M12.1,17.9c-2.4,0-4.3,1.9-4.3,4.3c0,2.4,1.9,4.3,4.3,4.3c2.4,0,4.3-1.9,4.3-4.3C16.4,19.9,14.5,17.9,12.1,17.9z M10.7,18.9h0.7
	v1.4h0l0.9-1.4h0.7l-0.9,1.4l1.1,1.5h-0.8l-1-1.4h-0.1v1.4h-0.7V18.9z M13.2,25.5h-0.7L12,23.7h0l-0.4,1.8h-0.7l-0.8-2.9h0.7
	l0.5,1.8h0l0.5-1.8h0.6l0.5,1.8h0l0.4-1.8h0.7L13.2,25.5z M12.1,17.9c-2.4,0-4.3,1.9-4.3,4.3c0,2.4,1.9,4.3,4.3,4.3
	c2.4,0,4.3-1.9,4.3-4.3C16.4,19.9,14.5,17.9,12.1,17.9z M10.7,18.9h0.7v1.4h0l0.9-1.4h0.7l-0.9,1.4l1.1,1.5h-0.8l-1-1.4h-0.1v1.4
	h-0.7V18.9z M13.2,25.5h-0.7L12,23.7h0l-0.4,1.8h-0.7l-0.8-2.9h0.7l0.5,1.8h0l0.5-1.8h0.6l0.5,1.8h0l0.4-1.8h0.7L13.2,25.5z
	 M12.1,17.9c-2.4,0-4.3,1.9-4.3,4.3c0,2.4,1.9,4.3,4.3,4.3c2.4,0,4.3-1.9,4.3-4.3C16.4,19.9,14.5,17.9,12.1,17.9z M10.7,18.9h0.7
	v1.4h0l0.9-1.4h0.7l-0.9,1.4l1.1,1.5h-0.8l-1-1.4h-0.1v1.4h-0.7V18.9z M13.2,25.5h-0.7L12,23.7h0l-0.4,1.8h-0.7l-0.8-2.9h0.7
	l0.5,1.8h0l0.5-1.8h0.6l0.5,1.8h0l0.4-1.8h0.7L13.2,25.5z M12.1,17.9c-2.4,0-4.3,1.9-4.3,4.3c0,2.4,1.9,4.3,4.3,4.3
	c2.4,0,4.3-1.9,4.3-4.3C16.4,19.9,14.5,17.9,12.1,17.9z M10.7,18.9h0.7v1.4h0l0.9-1.4h0.7l-0.9,1.4l1.1,1.5h-0.8l-1-1.4h-0.1v1.4
	h-0.7V18.9z M13.2,25.5h-0.7L12,23.7h0l-0.4,1.8h-0.7l-0.8-2.9h0.7l0.5,1.8h0l0.5-1.8h0.6l0.5,1.8h0l0.4-1.8h0.7L13.2,25.5z
	 M15.6,17.6v-1.7c-0.4-0.1-0.7-0.3-1.1-0.3V17c-0.3-0.1-0.6-0.2-0.8-0.3v-1.3c-0.4-0.1-0.7-0.1-1.1-0.1v1.2c-0.1,0-0.3,0-0.4,0
	c-0.1,0-0.3,0-0.4,0v-1.2c-0.4,0-0.7,0-1.1,0.1v1.3c-0.3,0.1-0.6,0.2-0.8,0.3v-1.4c-0.4,0.1-0.7,0.2-1.1,0.3v1.7
	c-1.4,1.1-2.3,2.7-2.3,4.7c0,1.9,0.9,3.6,2.3,4.7v7.2c0.4,0.1,0.7,0.2,1.1,0.3v-6.9c0.3,0.1,0.6,0.2,0.8,0.3v6.8
	c0.4,0.1,0.7,0.1,1.1,0.1V28c0.1,0,0.3,0,0.4,0c0.2,0,0.3,0,0.4,0v6.7c0.4,0,0.7-0.1,1.1-0.1v-6.8c0.3-0.1,0.6-0.2,0.8-0.3v7
	c0.4-0.1,0.7-0.2,1.1-0.3v-7.3c1.4-1.1,2.3-2.7,2.3-4.6C17.9,20.3,17,18.7,15.6,17.6z M12.1,26.9c-2.6,0-4.6-2.1-4.6-4.6
	c0-2.6,2.1-4.6,4.6-4.6c2.6,0,4.6,2.1,4.6,4.6C16.7,24.8,14.7,26.9,12.1,26.9z M12.1,17.9c-2.4,0-4.3,1.9-4.3,4.3
	c0,2.4,1.9,4.3,4.3,4.3c2.4,0,4.3-1.9,4.3-4.3C16.4,19.9,14.5,17.9,12.1,17.9z M10.7,18.9h0.7v1.4h0l0.9-1.4h0.7l-0.9,1.4l1.1,1.5
	h-0.8l-1-1.4h-0.1v1.4h-0.7V18.9z M13.2,25.5h-0.7L12,23.7h0l-0.4,1.8h-0.7l-0.8-2.9h0.7l0.5,1.8h0l0.5-1.8h0.6l0.5,1.8h0l0.4-1.8
	h0.7L13.2,25.5z M12.1,17.9c-2.4,0-4.3,1.9-4.3,4.3c0,2.4,1.9,4.3,4.3,4.3c2.4,0,4.3-1.9,4.3-4.3C16.4,19.9,14.5,17.9,12.1,17.9z
	 M10.7,18.9h0.7v1.4h0l0.9-1.4h0.7l-0.9,1.4l1.1,1.5h-0.8l-1-1.4h-0.1v1.4h-0.7V18.9z M13.2,25.5h-0.7L12,23.7h0l-0.4,1.8h-0.7
	l-0.8-2.9h0.7l0.5,1.8h0l0.5-1.8h0.6l0.5,1.8h0l0.4-1.8h0.7L13.2,25.5z M12.1,17.9c-2.4,0-4.3,1.9-4.3,4.3c0,2.4,1.9,4.3,4.3,4.3
	c2.4,0,4.3-1.9,4.3-4.3C16.4,19.9,14.5,17.9,12.1,17.9z M10.7,18.9h0.7v1.4h0l0.9-1.4h0.7l-0.9,1.4l1.1,1.5h-0.8l-1-1.4h-0.1v1.4
	h-0.7V18.9z M13.2,25.5h-0.7L12,23.7h0l-0.4,1.8h-0.7l-0.8-2.9h0.7l0.5,1.8h0l0.5-1.8h0.6l0.5,1.8h0l0.4-1.8h0.7L13.2,25.5z
	 M91.1,20.6c-2.3,0-4.2,2-4.2,4.4c0,2.4,1.9,4.4,4.2,4.4c2.3,0,4.2-2,4.2-4.4C95.4,22.5,93.5,20.6,91.1,20.6z M91.1,20.6
	c-2.3,0-4.2,2-4.2,4.4c0,2.4,1.9,4.4,4.2,4.4c2.3,0,4.2-2,4.2-4.4C95.4,22.5,93.5,20.6,91.1,20.6z M12.1,17.9
	c-2.4,0-4.3,1.9-4.3,4.3c0,2.4,1.9,4.3,4.3,4.3c2.4,0,4.3-1.9,4.3-4.3C16.4,19.9,14.5,17.9,12.1,17.9z M10.7,18.9h0.7v1.4h0l0.9-1.4
	h0.7l-0.9,1.4l1.1,1.5h-0.8l-1-1.4h-0.1v1.4h-0.7V18.9z M13.2,25.5h-0.7L12,23.7h0l-0.4,1.8h-0.7l-0.8-2.9h0.7l0.5,1.8h0l0.5-1.8
	h0.6l0.5,1.8h0l0.4-1.8h0.7L13.2,25.5z M12.1,17.9c-2.4,0-4.3,1.9-4.3,4.3c0,2.4,1.9,4.3,4.3,4.3c2.4,0,4.3-1.9,4.3-4.3
	C16.4,19.9,14.5,17.9,12.1,17.9z M10.7,18.9h0.7v1.4h0l0.9-1.4h0.7l-0.9,1.4l1.1,1.5h-0.8l-1-1.4h-0.1v1.4h-0.7V18.9z M13.2,25.5
	h-0.7L12,23.7h0l-0.4,1.8h-0.7l-0.8-2.9h0.7l0.5,1.8h0l0.5-1.8h0.6l0.5,1.8h0l0.4-1.8h0.7L13.2,25.5z M15.6,17.6v-1.7
	c-0.4-0.1-0.7-0.3-1.1-0.3V17c-0.3-0.1-0.6-0.2-0.8-0.3v-1.3c-0.4-0.1-0.7-0.1-1.1-0.1v1.2c-0.1,0-0.3,0-0.4,0c-0.1,0-0.3,0-0.4,0
	v-1.2c-0.4,0-0.7,0-1.1,0.1v1.3c-0.3,0.1-0.6,0.2-0.8,0.3v-1.4c-0.4,0.1-0.7,0.2-1.1,0.3v1.7c-1.4,1.1-2.3,2.7-2.3,4.7
	c0,1.9,0.9,3.6,2.3,4.7v7.2c0.4,0.1,0.7,0.2,1.1,0.3v-6.9c0.3,0.1,0.6,0.2,0.8,0.3v6.8c0.4,0.1,0.7,0.1,1.1,0.1V28
	c0.1,0,0.3,0,0.4,0c0.2,0,0.3,0,0.4,0v6.7c0.4,0,0.7-0.1,1.1-0.1v-6.8c0.3-0.1,0.6-0.2,0.8-0.3v7c0.4-0.1,0.7-0.2,1.1-0.3v-7.3
	c1.4-1.1,2.3-2.7,2.3-4.6C17.9,20.3,17,18.7,15.6,17.6z M12.1,26.9c-2.6,0-4.6-2.1-4.6-4.6c0-2.6,2.1-4.6,4.6-4.6
	c2.6,0,4.6,2.1,4.6,4.6C16.7,24.8,14.7,26.9,12.1,26.9z M12.1,17.9c-2.4,0-4.3,1.9-4.3,4.3c0,2.4,1.9,4.3,4.3,4.3
	c2.4,0,4.3-1.9,4.3-4.3C16.4,19.9,14.5,17.9,12.1,17.9z M10.7,18.9h0.7v1.4h0l0.9-1.4h0.7l-0.9,1.4l1.1,1.5h-0.8l-1-1.4h-0.1v1.4
	h-0.7V18.9z M13.2,25.5h-0.7L12,23.7h0l-0.4,1.8h-0.7l-0.8-2.9h0.7l0.5,1.8h0l0.5-1.8h0.6l0.5,1.8h0l0.4-1.8h0.7L13.2,25.5z
	 M12.1,17.9c-2.4,0-4.3,1.9-4.3,4.3c0,2.4,1.9,4.3,4.3,4.3c2.4,0,4.3-1.9,4.3-4.3C16.4,19.9,14.5,17.9,12.1,17.9z M10.7,18.9h0.7
	v1.4h0l0.9-1.4h0.7l-0.9,1.4l1.1,1.5h-0.8l-1-1.4h-0.1v1.4h-0.7V18.9z M13.2,25.5h-0.7L12,23.7h0l-0.4,1.8h-0.7l-0.8-2.9h0.7
	l0.5,1.8h0l0.5-1.8h0.6l0.5,1.8h0l0.4-1.8h0.7L13.2,25.5z M12.1,17.9c-2.4,0-4.3,1.9-4.3,4.3c0,2.4,1.9,4.3,4.3,4.3
	c2.4,0,4.3-1.9,4.3-4.3C16.4,19.9,14.5,17.9,12.1,17.9z M10.7,18.9h0.7v1.4h0l0.9-1.4h0.7l-0.9,1.4l1.1,1.5h-0.8l-1-1.4h-0.1v1.4
	h-0.7V18.9z M13.2,25.5h-0.7L12,23.7h0l-0.4,1.8h-0.7l-0.8-2.9h0.7l0.5,1.8h0l0.5-1.8h0.6l0.5,1.8h0l0.4-1.8h0.7L13.2,25.5z
	 M12.1,17.9c-2.4,0-4.3,1.9-4.3,4.3c0,2.4,1.9,4.3,4.3,4.3c2.4,0,4.3-1.9,4.3-4.3C16.4,19.9,14.5,17.9,12.1,17.9z M10.7,18.9h0.7
	v1.4h0l0.9-1.4h0.7l-0.9,1.4l1.1,1.5h-0.8l-1-1.4h-0.1v1.4h-0.7V18.9z M13.2,25.5h-0.7L12,23.7h0l-0.4,1.8h-0.7l-0.8-2.9h0.7
	l0.5,1.8h0l0.5-1.8h0.6l0.5,1.8h0l0.4-1.8h0.7L13.2,25.5z M12.1,17.9c-2.4,0-4.3,1.9-4.3,4.3c0,2.4,1.9,4.3,4.3,4.3
	c2.4,0,4.3-1.9,4.3-4.3C16.4,19.9,14.5,17.9,12.1,17.9z M10.7,18.9h0.7v1.4h0l0.9-1.4h0.7l-0.9,1.4l1.1,1.5h-0.8l-1-1.4h-0.1v1.4
	h-0.7V18.9z M13.2,25.5h-0.7L12,23.7h0l-0.4,1.8h-0.7l-0.8-2.9h0.7l0.5,1.8h0l0.5-1.8h0.6l0.5,1.8h0l0.4-1.8h0.7L13.2,25.5z
	 M15.6,17.6v-1.7c-0.4-0.1-0.7-0.3-1.1-0.3V17c-0.3-0.1-0.6-0.2-0.8-0.3v-1.3c-0.4-0.1-0.7-0.1-1.1-0.1v1.2c-0.1,0-0.3,0-0.4,0
	c-0.1,0-0.3,0-0.4,0v-1.2c-0.4,0-0.7,0-1.1,0.1v1.3c-0.3,0.1-0.6,0.2-0.8,0.3v-1.4c-0.4,0.1-0.7,0.2-1.1,0.3v1.7
	c-1.4,1.1-2.3,2.7-2.3,4.7c0,1.9,0.9,3.6,2.3,4.7v7.2c0.4,0.1,0.7,0.2,1.1,0.3v-6.9c0.3,0.1,0.6,0.2,0.8,0.3v6.8
	c0.4,0.1,0.7,0.1,1.1,0.1V28c0.1,0,0.3,0,0.4,0c0.2,0,0.3,0,0.4,0v6.7c0.4,0,0.7-0.1,1.1-0.1v-6.8c0.3-0.1,0.6-0.2,0.8-0.3v7
	c0.4-0.1,0.7-0.2,1.1-0.3v-7.3c1.4-1.1,2.3-2.7,2.3-4.6C17.9,20.3,17,18.7,15.6,17.6z M12.1,26.9c-2.6,0-4.6-2.1-4.6-4.6
	c0-2.6,2.1-4.6,4.6-4.6c2.6,0,4.6,2.1,4.6,4.6C16.7,24.8,14.7,26.9,12.1,26.9z M12.1,17.9c-2.4,0-4.3,1.9-4.3,4.3
	c0,2.4,1.9,4.3,4.3,4.3c2.4,0,4.3-1.9,4.3-4.3C16.4,19.9,14.5,17.9,12.1,17.9z M10.7,18.9h0.7v1.4h0l0.9-1.4h0.7l-0.9,1.4l1.1,1.5
	h-0.8l-1-1.4h-0.1v1.4h-0.7V18.9z M13.2,25.5h-0.7L12,23.7h0l-0.4,1.8h-0.7l-0.8-2.9h0.7l0.5,1.8h0l0.5-1.8h0.6l0.5,1.8h0l0.4-1.8
	h0.7L13.2,25.5z M91.1,20.6c-2.3,0-4.2,2-4.2,4.4c0,2.4,1.9,4.4,4.2,4.4c2.3,0,4.2-2,4.2-4.4C95.4,22.5,93.5,20.6,91.1,20.6z
	 M105,21.1h-2v3.2h2c1.2,0,1.8-0.6,1.8-1.7C106.8,21.4,106.2,21.1,105,21.1z M105,21.1h-2v3.2h2c1.2,0,1.8-0.6,1.8-1.7
	C106.8,21.4,106.2,21.1,105,21.1z M91.1,20.6c-2.3,0-4.2,2-4.2,4.4c0,2.4,1.9,4.4,4.2,4.4c2.3,0,4.2-2,4.2-4.4
	C95.4,22.5,93.5,20.6,91.1,20.6z M15.6,17.6v-1.7c-0.4-0.1-0.7-0.3-1.1-0.3V17c-0.3-0.1-0.6-0.2-0.8-0.3v-1.3
	c-0.4-0.1-0.7-0.1-1.1-0.1v1.2c-0.1,0-0.3,0-0.4,0c-0.1,0-0.3,0-0.4,0v-1.2c-0.4,0-0.7,0-1.1,0.1v1.3c-0.3,0.1-0.6,0.2-0.8,0.3v-1.4
	c-0.4,0.1-0.7,0.2-1.1,0.3v1.7c-1.4,1.1-2.3,2.7-2.3,4.7c0,1.9,0.9,3.6,2.3,4.7v7.2c0.4,0.1,0.7,0.2,1.1,0.3v-6.9
	c0.3,0.1,0.6,0.2,0.8,0.3v6.8c0.4,0.1,0.7,0.1,1.1,0.1V28c0.1,0,0.3,0,0.4,0c0.2,0,0.3,0,0.4,0v6.7c0.4,0,0.7-0.1,1.1-0.1v-6.8
	c0.3-0.1,0.6-0.2,0.8-0.3v7c0.4-0.1,0.7-0.2,1.1-0.3v-7.3c1.4-1.1,2.3-2.7,2.3-4.6C17.9,20.3,17,18.7,15.6,17.6z M12.1,26.9
	c-2.6,0-4.6-2.1-4.6-4.6c0-2.6,2.1-4.6,4.6-4.6c2.6,0,4.6,2.1,4.6,4.6C16.7,24.8,14.7,26.9,12.1,26.9z M12.1,17.9
	c-2.4,0-4.3,1.9-4.3,4.3c0,2.4,1.9,4.3,4.3,4.3c2.4,0,4.3-1.9,4.3-4.3C16.4,19.9,14.5,17.9,12.1,17.9z M10.7,18.9h0.7v1.4h0l0.9-1.4
	h0.7l-0.9,1.4l1.1,1.5h-0.8l-1-1.4h-0.1v1.4h-0.7V18.9z M13.2,25.5h-0.7L12,23.7h0l-0.4,1.8h-0.7l-0.8-2.9h0.7l0.5,1.8h0l0.5-1.8
	h0.6l0.5,1.8h0l0.4-1.8h0.7L13.2,25.5z M0,13.4v23.2h138V13.4H0z M23.1,35.7H1V14.3h22.1V35.7z M36.1,32.2l-4.6-6.8h-0.2v6.8h-3.4
	V17.9h3.4v6.8h0.2l4.5-6.8h3.4l-4.4,6.8l5.2,7.4H36.1z M49.9,20.8h-5.4v2.6h5.2v2.9h-5.1v3h5.3v2.9h-8.8V17.9h8.8V20.8z M64,32.2
	h-4.1l-4.7-9.7h-0.1v9.7h-3.2V18h4.2l4.5,9h0.1v-9H64V32.2z M77.1,32.2l-2.5-8.5h0l-2.1,8.5h-3.3L65.3,18h3.4l2.2,8.9h0l2.2-8.9H76
	l2.6,8.9h0l1.8-8.9h3.4l-3.3,14.2H77.1z M91.1,32.7c-4.3,0-7.7-3.5-7.7-7.7s3.5-7.7,7.7-7.7s7.7,3.5,7.7,7.7S95.4,32.7,91.1,32.7z
	 M107.2,32.2l-4.2-6.4H103v6.4h-3.2V18h5.6c2.8,0,5,1.3,5,4.4c0,1.9-0.9,3.8-2.9,4.1l3.8,5.7H107.2z M120.4,20.8h-2.8v11.4h-3.5
	V20.8h-3V18h9.3V20.8z M133.5,32.2H130v-5.9h-4.6v5.9H122V18h3.4v5.4h4.6V18h3.5V32.2z M105,21.1h-2v3.2h2c1.2,0,1.8-0.6,1.8-1.7
	C106.8,21.4,106.2,21.1,105,21.1z M91.1,20.6c-2.3,0-4.2,2-4.2,4.4c0,2.4,1.9,4.4,4.2,4.4c2.3,0,4.2-2,4.2-4.4
	C95.4,22.5,93.5,20.6,91.1,20.6z M8.7,26.9v7.2c0.4,0.1,0.7,0.2,1.1,0.3v-6.9c0.3,0.1,0.6,0.2,0.8,0.3v6.8c0.4,0.1,0.7,0.1,1.1,0.1
	V28c0.1,0,0.3,0,0.4,0c0.2,0,0.3,0,0.4,0v6.7c0.4,0,0.7-0.1,1.1-0.1v-6.8c0.3-0.1,0.6-0.2,0.8-0.3v7c0.4-0.1,0.7-0.2,1.1-0.3v-7.3
	c1.4-1.1,2.3-2.7,2.3-4.6c0-1.9-0.9-3.6-2.3-4.6v-1.7c-0.4-0.1-0.7-0.3-1.1-0.3V17c-0.3-0.1-0.6-0.2-0.8-0.3v-1.3
	c-0.4-0.1-0.7-0.1-1.1-0.1v1.2c-0.1,0-0.3,0-0.4,0c-0.1,0-0.3,0-0.4,0v-1.2c-0.4,0-0.7,0-1.1,0.1v1.3c-0.3,0.1-0.6,0.2-0.8,0.3v-1.4
	c-0.4,0.1-0.7,0.2-1.1,0.3v1.7c-1.4,1.1-2.3,2.7-2.3,4.7C6.3,24.1,7.3,25.8,8.7,26.9z M12.1,17.6c2.6,0,4.6,2.1,4.6,4.6
	c0,2.6-2.1,4.6-4.6,4.6c-2.6,0-4.6-2.1-4.6-4.6C7.5,19.7,9.6,17.6,12.1,17.6z M12.1,26.5c2.4,0,4.3-1.9,4.3-4.3
	c0-2.4-1.9-4.3-4.3-4.3c-2.4,0-4.3,1.9-4.3,4.3C7.8,24.6,9.7,26.5,12.1,26.5z M10.7,18.9h0.7v1.4h0l0.9-1.4h0.7l-0.9,1.4l1.1,1.5
	h-0.8l-1-1.4h-0.1v1.4h-0.7V18.9z M10.8,22.5l0.5,1.8h0l0.5-1.8h0.6l0.5,1.8h0l0.4-1.8h0.7l-0.7,2.9h-0.7L12,23.7h0l-0.4,1.8h-0.7
	l-0.8-2.9H10.8z M12.1,17.9c-2.4,0-4.3,1.9-4.3,4.3c0,2.4,1.9,4.3,4.3,4.3c2.4,0,4.3-1.9,4.3-4.3C16.4,19.9,14.5,17.9,12.1,17.9z
	 M10.7,18.9h0.7v1.4h0l0.9-1.4h0.7l-0.9,1.4l1.1,1.5h-0.8l-1-1.4h-0.1v1.4h-0.7V18.9z M13.2,25.5h-0.7L12,23.7h0l-0.4,1.8h-0.7
	l-0.8-2.9h0.7l0.5,1.8h0l0.5-1.8h0.6l0.5,1.8h0l0.4-1.8h0.7L13.2,25.5z M12.1,17.9c-2.4,0-4.3,1.9-4.3,4.3c0,2.4,1.9,4.3,4.3,4.3
	c2.4,0,4.3-1.9,4.3-4.3C16.4,19.9,14.5,17.9,12.1,17.9z M10.7,18.9h0.7v1.4h0l0.9-1.4h0.7l-0.9,1.4l1.1,1.5h-0.8l-1-1.4h-0.1v1.4
	h-0.7V18.9z M13.2,25.5h-0.7L12,23.7h0l-0.4,1.8h-0.7l-0.8-2.9h0.7l0.5,1.8h0l0.5-1.8h0.6l0.5,1.8h0l0.4-1.8h0.7L13.2,25.5z
	 M15.6,17.6v-1.7c-0.4-0.1-0.7-0.3-1.1-0.3V17c-0.3-0.1-0.6-0.2-0.8-0.3v-1.3c-0.4-0.1-0.7-0.1-1.1-0.1v1.2c-0.1,0-0.3,0-0.4,0
	c-0.1,0-0.3,0-0.4,0v-1.2c-0.4,0-0.7,0-1.1,0.1v1.3c-0.3,0.1-0.6,0.2-0.8,0.3v-1.4c-0.4,0.1-0.7,0.2-1.1,0.3v1.7
	c-1.4,1.1-2.3,2.7-2.3,4.7c0,1.9,0.9,3.6,2.3,4.7v7.2c0.4,0.1,0.7,0.2,1.1,0.3v-6.9c0.3,0.1,0.6,0.2,0.8,0.3v6.8
	c0.4,0.1,0.7,0.1,1.1,0.1V28c0.1,0,0.3,0,0.4,0c0.2,0,0.3,0,0.4,0v6.7c0.4,0,0.7-0.1,1.1-0.1v-6.8c0.3-0.1,0.6-0.2,0.8-0.3v7
	c0.4-0.1,0.7-0.2,1.1-0.3v-7.3c1.4-1.1,2.3-2.7,2.3-4.6C17.9,20.3,17,18.7,15.6,17.6z M12.1,26.9c-2.6,0-4.6-2.1-4.6-4.6
	c0-2.6,2.1-4.6,4.6-4.6c2.6,0,4.6,2.1,4.6,4.6C16.7,24.8,14.7,26.9,12.1,26.9z M12.1,17.9c-2.4,0-4.3,1.9-4.3,4.3
	c0,2.4,1.9,4.3,4.3,4.3c2.4,0,4.3-1.9,4.3-4.3C16.4,19.9,14.5,17.9,12.1,17.9z M10.7,18.9h0.7v1.4h0l0.9-1.4h0.7l-0.9,1.4l1.1,1.5
	h-0.8l-1-1.4h-0.1v1.4h-0.7V18.9z M13.2,25.5h-0.7L12,23.7h0l-0.4,1.8h-0.7l-0.8-2.9h0.7l0.5,1.8h0l0.5-1.8h0.6l0.5,1.8h0l0.4-1.8
	h0.7L13.2,25.5z M91.1,20.6c-2.3,0-4.2,2-4.2,4.4c0,2.4,1.9,4.4,4.2,4.4c2.3,0,4.2-2,4.2-4.4C95.4,22.5,93.5,20.6,91.1,20.6z
	 M105,21.1h-2v3.2h2c1.2,0,1.8-0.6,1.8-1.7C106.8,21.4,106.2,21.1,105,21.1z M105,21.1h-2v3.2h2c1.2,0,1.8-0.6,1.8-1.7
	C106.8,21.4,106.2,21.1,105,21.1z M91.1,20.6c-2.3,0-4.2,2-4.2,4.4c0,2.4,1.9,4.4,4.2,4.4c2.3,0,4.2-2,4.2-4.4
	C95.4,22.5,93.5,20.6,91.1,20.6z M12.1,17.9c-2.4,0-4.3,1.9-4.3,4.3c0,2.4,1.9,4.3,4.3,4.3c2.4,0,4.3-1.9,4.3-4.3
	C16.4,19.9,14.5,17.9,12.1,17.9z M10.7,18.9h0.7v1.4h0l0.9-1.4h0.7l-0.9,1.4l1.1,1.5h-0.8l-1-1.4h-0.1v1.4h-0.7V18.9z M13.2,25.5
	h-0.7L12,23.7h0l-0.4,1.8h-0.7l-0.8-2.9h0.7l0.5,1.8h0l0.5-1.8h0.6l0.5,1.8h0l0.4-1.8h0.7L13.2,25.5z M12.1,17.9
	c-2.4,0-4.3,1.9-4.3,4.3c0,2.4,1.9,4.3,4.3,4.3c2.4,0,4.3-1.9,4.3-4.3C16.4,19.9,14.5,17.9,12.1,17.9z M10.7,18.9h0.7v1.4h0l0.9-1.4
	h0.7l-0.9,1.4l1.1,1.5h-0.8l-1-1.4h-0.1v1.4h-0.7V18.9z M13.2,25.5h-0.7L12,23.7h0l-0.4,1.8h-0.7l-0.8-2.9h0.7l0.5,1.8h0l0.5-1.8
	h0.6l0.5,1.8h0l0.4-1.8h0.7L13.2,25.5z M15.6,17.6v-1.7c-0.4-0.1-0.7-0.3-1.1-0.3V17c-0.3-0.1-0.6-0.2-0.8-0.3v-1.3
	c-0.4-0.1-0.7-0.1-1.1-0.1v1.2c-0.1,0-0.3,0-0.4,0c-0.1,0-0.3,0-0.4,0v-1.2c-0.4,0-0.7,0-1.1,0.1v1.3c-0.3,0.1-0.6,0.2-0.8,0.3v-1.4
	c-0.4,0.1-0.7,0.2-1.1,0.3v1.7c-1.4,1.1-2.3,2.7-2.3,4.7c0,1.9,0.9,3.6,2.3,4.7v7.2c0.4,0.1,0.7,0.2,1.1,0.3v-6.9
	c0.3,0.1,0.6,0.2,0.8,0.3v6.8c0.4,0.1,0.7,0.1,1.1,0.1V28c0.1,0,0.3,0,0.4,0c0.2,0,0.3,0,0.4,0v6.7c0.4,0,0.7-0.1,1.1-0.1v-6.8
	c0.3-0.1,0.6-0.2,0.8-0.3v7c0.4-0.1,0.7-0.2,1.1-0.3v-7.3c1.4-1.1,2.3-2.7,2.3-4.6C17.9,20.3,17,18.7,15.6,17.6z M12.1,26.9
	c-2.6,0-4.6-2.1-4.6-4.6c0-2.6,2.1-4.6,4.6-4.6c2.6,0,4.6,2.1,4.6,4.6C16.7,24.8,14.7,26.9,12.1,26.9z M12.1,17.9
	c-2.4,0-4.3,1.9-4.3,4.3c0,2.4,1.9,4.3,4.3,4.3c2.4,0,4.3-1.9,4.3-4.3C16.4,19.9,14.5,17.9,12.1,17.9z M10.7,18.9h0.7v1.4h0l0.9-1.4
	h0.7l-0.9,1.4l1.1,1.5h-0.8l-1-1.4h-0.1v1.4h-0.7V18.9z M13.2,25.5h-0.7L12,23.7h0l-0.4,1.8h-0.7l-0.8-2.9h0.7l0.5,1.8h0l0.5-1.8
	h0.6l0.5,1.8h0l0.4-1.8h0.7L13.2,25.5z M12.1,17.9c-2.4,0-4.3,1.9-4.3,4.3c0,2.4,1.9,4.3,4.3,4.3c2.4,0,4.3-1.9,4.3-4.3
	C16.4,19.9,14.5,17.9,12.1,17.9z M10.7,18.9h0.7v1.4h0l0.9-1.4h0.7l-0.9,1.4l1.1,1.5h-0.8l-1-1.4h-0.1v1.4h-0.7V18.9z M13.2,25.5
	h-0.7L12,23.7h0l-0.4,1.8h-0.7l-0.8-2.9h0.7l0.5,1.8h0l0.5-1.8h0.6l0.5,1.8h0l0.4-1.8h0.7L13.2,25.5z M12.1,17.9
	c-2.4,0-4.3,1.9-4.3,4.3c0,2.4,1.9,4.3,4.3,4.3c2.4,0,4.3-1.9,4.3-4.3C16.4,19.9,14.5,17.9,12.1,17.9z M10.7,18.9h0.7v1.4h0l0.9-1.4
	h0.7l-0.9,1.4l1.1,1.5h-0.8l-1-1.4h-0.1v1.4h-0.7V18.9z M13.2,25.5h-0.7L12,23.7h0l-0.4,1.8h-0.7l-0.8-2.9h0.7l0.5,1.8h0l0.5-1.8
	h0.6l0.5,1.8h0l0.4-1.8h0.7L13.2,25.5z M12.1,17.9c-2.4,0-4.3,1.9-4.3,4.3c0,2.4,1.9,4.3,4.3,4.3c2.4,0,4.3-1.9,4.3-4.3
	C16.4,19.9,14.5,17.9,12.1,17.9z M10.7,18.9h0.7v1.4h0l0.9-1.4h0.7l-0.9,1.4l1.1,1.5h-0.8l-1-1.4h-0.1v1.4h-0.7V18.9z M13.2,25.5
	h-0.7L12,23.7h0l-0.4,1.8h-0.7l-0.8-2.9h0.7l0.5,1.8h0l0.5-1.8h0.6l0.5,1.8h0l0.4-1.8h0.7L13.2,25.5z M12.1,17.9
	c-2.4,0-4.3,1.9-4.3,4.3c0,2.4,1.9,4.3,4.3,4.3c2.4,0,4.3-1.9,4.3-4.3C16.4,19.9,14.5,17.9,12.1,17.9z M10.7,18.9h0.7v1.4h0l0.9-1.4
	h0.7l-0.9,1.4l1.1,1.5h-0.8l-1-1.4h-0.1v1.4h-0.7V18.9z M13.2,25.5h-0.7L12,23.7h0l-0.4,1.8h-0.7l-0.8-2.9h0.7l0.5,1.8h0l0.5-1.8
	h0.6l0.5,1.8h0l0.4-1.8h0.7L13.2,25.5z M12.1,17.9c-2.4,0-4.3,1.9-4.3,4.3c0,2.4,1.9,4.3,4.3,4.3c2.4,0,4.3-1.9,4.3-4.3
	C16.4,19.9,14.5,17.9,12.1,17.9z M10.7,18.9h0.7v1.4h0l0.9-1.4h0.7l-0.9,1.4l1.1,1.5h-0.8l-1-1.4h-0.1v1.4h-0.7V18.9z M13.2,25.5
	h-0.7L12,23.7h0l-0.4,1.8h-0.7l-0.8-2.9h0.7l0.5,1.8h0l0.5-1.8h0.6l0.5,1.8h0l0.4-1.8h0.7L13.2,25.5z M12.1,17.9
	c-2.4,0-4.3,1.9-4.3,4.3c0,2.4,1.9,4.3,4.3,4.3c2.4,0,4.3-1.9,4.3-4.3C16.4,19.9,14.5,17.9,12.1,17.9z M10.7,18.9h0.7v1.4h0l0.9-1.4
	h0.7l-0.9,1.4l1.1,1.5h-0.8l-1-1.4h-0.1v1.4h-0.7V18.9z M13.2,25.5h-0.7L12,23.7h0l-0.4,1.8h-0.7l-0.8-2.9h0.7l0.5,1.8h0l0.5-1.8
	h0.6l0.5,1.8h0l0.4-1.8h0.7L13.2,25.5z M15.6,17.6v-1.7c-0.4-0.1-0.7-0.3-1.1-0.3V17c-0.3-0.1-0.6-0.2-0.8-0.3v-1.3
	c-0.4-0.1-0.7-0.1-1.1-0.1v1.2c-0.1,0-0.3,0-0.4,0c-0.1,0-0.3,0-0.4,0v-1.2c-0.4,0-0.7,0-1.1,0.1v1.3c-0.3,0.1-0.6,0.2-0.8,0.3v-1.4
	c-0.4,0.1-0.7,0.2-1.1,0.3v1.7c-1.4,1.1-2.3,2.7-2.3,4.7c0,1.9,0.9,3.6,2.3,4.7v7.2c0.4,0.1,0.7,0.2,1.1,0.3v-6.9
	c0.3,0.1,0.6,0.2,0.8,0.3v6.8c0.4,0.1,0.7,0.1,1.1,0.1V28c0.1,0,0.3,0,0.4,0c0.2,0,0.3,0,0.4,0v6.7c0.4,0,0.7-0.1,1.1-0.1v-6.8
	c0.3-0.1,0.6-0.2,0.8-0.3v7c0.4-0.1,0.7-0.2,1.1-0.3v-7.3c1.4-1.1,2.3-2.7,2.3-4.6C17.9,20.3,17,18.7,15.6,17.6z M12.1,26.9
	c-2.6,0-4.6-2.1-4.6-4.6c0-2.6,2.1-4.6,4.6-4.6c2.6,0,4.6,2.1,4.6,4.6C16.7,24.8,14.7,26.9,12.1,26.9z M12.1,17.9
	c-2.4,0-4.3,1.9-4.3,4.3c0,2.4,1.9,4.3,4.3,4.3c2.4,0,4.3-1.9,4.3-4.3C16.4,19.9,14.5,17.9,12.1,17.9z M10.7,18.9h0.7v1.4h0l0.9-1.4
	h0.7l-0.9,1.4l1.1,1.5h-0.8l-1-1.4h-0.1v1.4h-0.7V18.9z M13.2,25.5h-0.7L12,23.7h0l-0.4,1.8h-0.7l-0.8-2.9h0.7l0.5,1.8h0l0.5-1.8
	h0.6l0.5,1.8h0l0.4-1.8h0.7L13.2,25.5z M12.1,17.9c-2.4,0-4.3,1.9-4.3,4.3c0,2.4,1.9,4.3,4.3,4.3c2.4,0,4.3-1.9,4.3-4.3
	C16.4,19.9,14.5,17.9,12.1,17.9z M10.7,18.9h0.7v1.4h0l0.9-1.4h0.7l-0.9,1.4l1.1,1.5h-0.8l-1-1.4h-0.1v1.4h-0.7V18.9z M13.2,25.5
	h-0.7L12,23.7h0l-0.4,1.8h-0.7l-0.8-2.9h0.7l0.5,1.8h0l0.5-1.8h0.6l0.5,1.8h0l0.4-1.8h0.7L13.2,25.5z M12.1,17.9
	c-2.4,0-4.3,1.9-4.3,4.3c0,2.4,1.9,4.3,4.3,4.3c2.4,0,4.3-1.9,4.3-4.3C16.4,19.9,14.5,17.9,12.1,17.9z M10.7,18.9h0.7v1.4h0l0.9-1.4
	h0.7l-0.9,1.4l1.1,1.5h-0.8l-1-1.4h-0.1v1.4h-0.7V18.9z M13.2,25.5h-0.7L12,23.7h0l-0.4,1.8h-0.7l-0.8-2.9h0.7l0.5,1.8h0l0.5-1.8
	h0.6l0.5,1.8h0l0.4-1.8h0.7L13.2,25.5z M12.1,17.9c-2.4,0-4.3,1.9-4.3,4.3c0,2.4,1.9,4.3,4.3,4.3c2.4,0,4.3-1.9,4.3-4.3
	C16.4,19.9,14.5,17.9,12.1,17.9z M10.7,18.9h0.7v1.4h0l0.9-1.4h0.7l-0.9,1.4l1.1,1.5h-0.8l-1-1.4h-0.1v1.4h-0.7V18.9z M13.2,25.5
	h-0.7L12,23.7h0l-0.4,1.8h-0.7l-0.8-2.9h0.7l0.5,1.8h0l0.5-1.8h0.6l0.5,1.8h0l0.4-1.8h0.7L13.2,25.5z M12.1,17.9
	c-2.4,0-4.3,1.9-4.3,4.3c0,2.4,1.9,4.3,4.3,4.3c2.4,0,4.3-1.9,4.3-4.3C16.4,19.9,14.5,17.9,12.1,17.9z M10.7,18.9h0.7v1.4h0l0.9-1.4
	h0.7l-0.9,1.4l1.1,1.5h-0.8l-1-1.4h-0.1v1.4h-0.7V18.9z M13.2,25.5h-0.7L12,23.7h0l-0.4,1.8h-0.7l-0.8-2.9h0.7l0.5,1.8h0l0.5-1.8
	h0.6l0.5,1.8h0l0.4-1.8h0.7L13.2,25.5z M12.1,17.9c-2.4,0-4.3,1.9-4.3,4.3c0,2.4,1.9,4.3,4.3,4.3c2.4,0,4.3-1.9,4.3-4.3
	C16.4,19.9,14.5,17.9,12.1,17.9z M10.7,18.9h0.7v1.4h0l0.9-1.4h0.7l-0.9,1.4l1.1,1.5h-0.8l-1-1.4h-0.1v1.4h-0.7V18.9z M13.2,25.5
	h-0.7L12,23.7h0l-0.4,1.8h-0.7l-0.8-2.9h0.7l0.5,1.8h0l0.5-1.8h0.6l0.5,1.8h0l0.4-1.8h0.7L13.2,25.5z M12.1,17.9
	c-2.4,0-4.3,1.9-4.3,4.3c0,2.4,1.9,4.3,4.3,4.3c2.4,0,4.3-1.9,4.3-4.3C16.4,19.9,14.5,17.9,12.1,17.9z M10.7,18.9h0.7v1.4h0l0.9-1.4
	h0.7l-0.9,1.4l1.1,1.5h-0.8l-1-1.4h-0.1v1.4h-0.7V18.9z M13.2,25.5h-0.7L12,23.7h0l-0.4,1.8h-0.7l-0.8-2.9h0.7l0.5,1.8h0l0.5-1.8
	h0.6l0.5,1.8h0l0.4-1.8h0.7L13.2,25.5z M15.6,17.6v-1.7c-0.4-0.1-0.7-0.3-1.1-0.3V17c-0.3-0.1-0.6-0.2-0.8-0.3v-1.3
	c-0.4-0.1-0.7-0.1-1.1-0.1v1.2c-0.1,0-0.3,0-0.4,0c-0.1,0-0.3,0-0.4,0v-1.2c-0.4,0-0.7,0-1.1,0.1v1.3c-0.3,0.1-0.6,0.2-0.8,0.3v-1.4
	c-0.4,0.1-0.7,0.2-1.1,0.3v1.7c-1.4,1.1-2.3,2.7-2.3,4.7c0,1.9,0.9,3.6,2.3,4.7v7.2c0.4,0.1,0.7,0.2,1.1,0.3v-6.9
	c0.3,0.1,0.6,0.2,0.8,0.3v6.8c0.4,0.1,0.7,0.1,1.1,0.1V28c0.1,0,0.3,0,0.4,0c0.2,0,0.3,0,0.4,0v6.7c0.4,0,0.7-0.1,1.1-0.1v-6.8
	c0.3-0.1,0.6-0.2,0.8-0.3v7c0.4-0.1,0.7-0.2,1.1-0.3v-7.3c1.4-1.1,2.3-2.7,2.3-4.6C17.9,20.3,17,18.7,15.6,17.6z M12.1,26.9
	c-2.6,0-4.6-2.1-4.6-4.6c0-2.6,2.1-4.6,4.6-4.6c2.6,0,4.6,2.1,4.6,4.6C16.7,24.8,14.7,26.9,12.1,26.9z M12.1,17.9
	c-2.4,0-4.3,1.9-4.3,4.3c0,2.4,1.9,4.3,4.3,4.3c2.4,0,4.3-1.9,4.3-4.3C16.4,19.9,14.5,17.9,12.1,17.9z M10.7,18.9h0.7v1.4h0l0.9-1.4
	h0.7l-0.9,1.4l1.1,1.5h-0.8l-1-1.4h-0.1v1.4h-0.7V18.9z M13.2,25.5h-0.7L12,23.7h0l-0.4,1.8h-0.7l-0.8-2.9h0.7l0.5,1.8h0l0.5-1.8
	h0.6l0.5,1.8h0l0.4-1.8h0.7L13.2,25.5z M12.1,17.9c-2.4,0-4.3,1.9-4.3,4.3c0,2.4,1.9,4.3,4.3,4.3c2.4,0,4.3-1.9,4.3-4.3
	C16.4,19.9,14.5,17.9,12.1,17.9z M10.7,18.9h0.7v1.4h0l0.9-1.4h0.7l-0.9,1.4l1.1,1.5h-0.8l-1-1.4h-0.1v1.4h-0.7V18.9z M13.2,25.5
	h-0.7L12,23.7h0l-0.4,1.8h-0.7l-0.8-2.9h0.7l0.5,1.8h0l0.5-1.8h0.6l0.5,1.8h0l0.4-1.8h0.7L13.2,25.5z M12.1,17.9
	c-2.4,0-4.3,1.9-4.3,4.3c0,2.4,1.9,4.3,4.3,4.3c2.4,0,4.3-1.9,4.3-4.3C16.4,19.9,14.5,17.9,12.1,17.9z M10.7,18.9h0.7v1.4h0l0.9-1.4
	h0.7l-0.9,1.4l1.1,1.5h-0.8l-1-1.4h-0.1v1.4h-0.7V18.9z M13.2,25.5h-0.7L12,23.7h0l-0.4,1.8h-0.7l-0.8-2.9h0.7l0.5,1.8h0l0.5-1.8
	h0.6l0.5,1.8h0l0.4-1.8h0.7L13.2,25.5z M12.1,17.9c-2.4,0-4.3,1.9-4.3,4.3c0,2.4,1.9,4.3,4.3,4.3c2.4,0,4.3-1.9,4.3-4.3
	C16.4,19.9,14.5,17.9,12.1,17.9z M10.7,18.9h0.7v1.4h0l0.9-1.4h0.7l-0.9,1.4l1.1,1.5h-0.8l-1-1.4h-0.1v1.4h-0.7V18.9z M13.2,25.5
	h-0.7L12,23.7h0l-0.4,1.8h-0.7l-0.8-2.9h0.7l0.5,1.8h0l0.5-1.8h0.6l0.5,1.8h0l0.4-1.8h0.7L13.2,25.5z M12.1,17.9
	c-2.4,0-4.3,1.9-4.3,4.3c0,2.4,1.9,4.3,4.3,4.3c2.4,0,4.3-1.9,4.3-4.3C16.4,19.9,14.5,17.9,12.1,17.9z M10.7,18.9h0.7v1.4h0l0.9-1.4
	h0.7l-0.9,1.4l1.1,1.5h-0.8l-1-1.4h-0.1v1.4h-0.7V18.9z M13.2,25.5h-0.7L12,23.7h0l-0.4,1.8h-0.7l-0.8-2.9h0.7l0.5,1.8h0l0.5-1.8
	h0.6l0.5,1.8h0l0.4-1.8h0.7L13.2,25.5z M12.1,17.9c-2.4,0-4.3,1.9-4.3,4.3c0,2.4,1.9,4.3,4.3,4.3c2.4,0,4.3-1.9,4.3-4.3
	C16.4,19.9,14.5,17.9,12.1,17.9z M10.7,18.9h0.7v1.4h0l0.9-1.4h0.7l-0.9,1.4l1.1,1.5h-0.8l-1-1.4h-0.1v1.4h-0.7V18.9z M13.2,25.5
	h-0.7L12,23.7h0l-0.4,1.8h-0.7l-0.8-2.9h0.7l0.5,1.8h0l0.5-1.8h0.6l0.5,1.8h0l0.4-1.8h0.7L13.2,25.5z M12.1,17.9
	c-2.4,0-4.3,1.9-4.3,4.3c0,2.4,1.9,4.3,4.3,4.3c2.4,0,4.3-1.9,4.3-4.3C16.4,19.9,14.5,17.9,12.1,17.9z M10.7,18.9h0.7v1.4h0l0.9-1.4
	h0.7l-0.9,1.4l1.1,1.5h-0.8l-1-1.4h-0.1v1.4h-0.7V18.9z M13.2,25.5h-0.7L12,23.7h0l-0.4,1.8h-0.7l-0.8-2.9h0.7l0.5,1.8h0l0.5-1.8
	h0.6l0.5,1.8h0l0.4-1.8h0.7L13.2,25.5z M12.1,17.9c-2.4,0-4.3,1.9-4.3,4.3c0,2.4,1.9,4.3,4.3,4.3c2.4,0,4.3-1.9,4.3-4.3
	C16.4,19.9,14.5,17.9,12.1,17.9z M10.7,18.9h0.7v1.4h0l0.9-1.4h0.7l-0.9,1.4l1.1,1.5h-0.8l-1-1.4h-0.1v1.4h-0.7V18.9z M13.2,25.5
	h-0.7L12,23.7h0l-0.4,1.8h-0.7l-0.8-2.9h0.7l0.5,1.8h0l0.5-1.8h0.6l0.5,1.8h0l0.4-1.8h0.7L13.2,25.5z M12.1,17.9
	c-2.4,0-4.3,1.9-4.3,4.3c0,2.4,1.9,4.3,4.3,4.3c2.4,0,4.3-1.9,4.3-4.3C16.4,19.9,14.5,17.9,12.1,17.9z M10.7,18.9h0.7v1.4h0l0.9-1.4
	h0.7l-0.9,1.4l1.1,1.5h-0.8l-1-1.4h-0.1v1.4h-0.7V18.9z M13.2,25.5h-0.7L12,23.7h0l-0.4,1.8h-0.7l-0.8-2.9h0.7l0.5,1.8h0l0.5-1.8
	h0.6l0.5,1.8h0l0.4-1.8h0.7L13.2,25.5z M12.1,17.9c-2.4,0-4.3,1.9-4.3,4.3c0,2.4,1.9,4.3,4.3,4.3c2.4,0,4.3-1.9,4.3-4.3
	C16.4,19.9,14.5,17.9,12.1,17.9z M10.7,18.9h0.7v1.4h0l0.9-1.4h0.7l-0.9,1.4l1.1,1.5h-0.8l-1-1.4h-0.1v1.4h-0.7V18.9z M13.2,25.5
	h-0.7L12,23.7h0l-0.4,1.8h-0.7l-0.8-2.9h0.7l0.5,1.8h0l0.5-1.8h0.6l0.5,1.8h0l0.4-1.8h0.7L13.2,25.5z M12.1,17.9
	c-2.4,0-4.3,1.9-4.3,4.3c0,2.4,1.9,4.3,4.3,4.3c2.4,0,4.3-1.9,4.3-4.3C16.4,19.9,14.5,17.9,12.1,17.9z M10.7,18.9h0.7v1.4h0l0.9-1.4
	h0.7l-0.9,1.4l1.1,1.5h-0.8l-1-1.4h-0.1v1.4h-0.7V18.9z M13.2,25.5h-0.7L12,23.7h0l-0.4,1.8h-0.7l-0.8-2.9h0.7l0.5,1.8h0l0.5-1.8
	h0.6l0.5,1.8h0l0.4-1.8h0.7L13.2,25.5z M15.6,17.6v-1.7c-0.4-0.1-0.7-0.3-1.1-0.3V17c-0.3-0.1-0.6-0.2-0.8-0.3v-1.3
	c-0.4-0.1-0.7-0.1-1.1-0.1v1.2c-0.1,0-0.3,0-0.4,0c-0.1,0-0.3,0-0.4,0v-1.2c-0.4,0-0.7,0-1.1,0.1v1.3c-0.3,0.1-0.6,0.2-0.8,0.3v-1.4
	c-0.4,0.1-0.7,0.2-1.1,0.3v1.7c-1.4,1.1-2.3,2.7-2.3,4.7c0,1.9,0.9,3.6,2.3,4.7v7.2c0.4,0.1,0.7,0.2,1.1,0.3v-6.9
	c0.3,0.1,0.6,0.2,0.8,0.3v6.8c0.4,0.1,0.7,0.1,1.1,0.1V28c0.1,0,0.3,0,0.4,0c0.2,0,0.3,0,0.4,0v6.7c0.4,0,0.7-0.1,1.1-0.1v-6.8
	c0.3-0.1,0.6-0.2,0.8-0.3v7c0.4-0.1,0.7-0.2,1.1-0.3v-7.3c1.4-1.1,2.3-2.7,2.3-4.6C17.9,20.3,17,18.7,15.6,17.6z M12.1,26.9
	c-2.6,0-4.6-2.1-4.6-4.6c0-2.6,2.1-4.6,4.6-4.6c2.6,0,4.6,2.1,4.6,4.6C16.7,24.8,14.7,26.9,12.1,26.9z M12.1,17.9
	c-2.4,0-4.3,1.9-4.3,4.3c0,2.4,1.9,4.3,4.3,4.3c2.4,0,4.3-1.9,4.3-4.3C16.4,19.9,14.5,17.9,12.1,17.9z M10.7,18.9h0.7v1.4h0l0.9-1.4
	h0.7l-0.9,1.4l1.1,1.5h-0.8l-1-1.4h-0.1v1.4h-0.7V18.9z M13.2,25.5h-0.7L12,23.7h0l-0.4,1.8h-0.7l-0.8-2.9h0.7l0.5,1.8h0l0.5-1.8
	h0.6l0.5,1.8h0l0.4-1.8h0.7L13.2,25.5z M12.1,17.9c-2.4,0-4.3,1.9-4.3,4.3c0,2.4,1.9,4.3,4.3,4.3c2.4,0,4.3-1.9,4.3-4.3
	C16.4,19.9,14.5,17.9,12.1,17.9z M10.7,18.9h0.7v1.4h0l0.9-1.4h0.7l-0.9,1.4l1.1,1.5h-0.8l-1-1.4h-0.1v1.4h-0.7V18.9z M13.2,25.5
	h-0.7L12,23.7h0l-0.4,1.8h-0.7l-0.8-2.9h0.7l0.5,1.8h0l0.5-1.8h0.6l0.5,1.8h0l0.4-1.8h0.7L13.2,25.5z M12.1,17.9
	c-2.4,0-4.3,1.9-4.3,4.3c0,2.4,1.9,4.3,4.3,4.3c2.4,0,4.3-1.9,4.3-4.3C16.4,19.9,14.5,17.9,12.1,17.9z M10.7,18.9h0.7v1.4h0l0.9-1.4
	h0.7l-0.9,1.4l1.1,1.5h-0.8l-1-1.4h-0.1v1.4h-0.7V18.9z M13.2,25.5h-0.7L12,23.7h0l-0.4,1.8h-0.7l-0.8-2.9h0.7l0.5,1.8h0l0.5-1.8
	h0.6l0.5,1.8h0l0.4-1.8h0.7L13.2,25.5z M12.1,17.9c-2.4,0-4.3,1.9-4.3,4.3c0,2.4,1.9,4.3,4.3,4.3c2.4,0,4.3-1.9,4.3-4.3
	C16.4,19.9,14.5,17.9,12.1,17.9z M10.7,18.9h0.7v1.4h0l0.9-1.4h0.7l-0.9,1.4l1.1,1.5h-0.8l-1-1.4h-0.1v1.4h-0.7V18.9z M13.2,25.5
	h-0.7L12,23.7h0l-0.4,1.8h-0.7l-0.8-2.9h0.7l0.5,1.8h0l0.5-1.8h0.6l0.5,1.8h0l0.4-1.8h0.7L13.2,25.5z M12.1,17.9
	c-2.4,0-4.3,1.9-4.3,4.3c0,2.4,1.9,4.3,4.3,4.3c2.4,0,4.3-1.9,4.3-4.3C16.4,19.9,14.5,17.9,12.1,17.9z M10.7,18.9h0.7v1.4h0l0.9-1.4
	h0.7l-0.9,1.4l1.1,1.5h-0.8l-1-1.4h-0.1v1.4h-0.7V18.9z M13.2,25.5h-0.7L12,23.7h0l-0.4,1.8h-0.7l-0.8-2.9h0.7l0.5,1.8h0l0.5-1.8
	h0.6l0.5,1.8h0l0.4-1.8h0.7L13.2,25.5z M12.1,17.9c-2.4,0-4.3,1.9-4.3,4.3c0,2.4,1.9,4.3,4.3,4.3c2.4,0,4.3-1.9,4.3-4.3
	C16.4,19.9,14.5,17.9,12.1,17.9z M10.7,18.9h0.7v1.4h0l0.9-1.4h0.7l-0.9,1.4l1.1,1.5h-0.8l-1-1.4h-0.1v1.4h-0.7V18.9z M13.2,25.5
	h-0.7L12,23.7h0l-0.4,1.8h-0.7l-0.8-2.9h0.7l0.5,1.8h0l0.5-1.8h0.6l0.5,1.8h0l0.4-1.8h0.7L13.2,25.5z M12.1,17.9
	c-2.4,0-4.3,1.9-4.3,4.3c0,2.4,1.9,4.3,4.3,4.3c2.4,0,4.3-1.9,4.3-4.3C16.4,19.9,14.5,17.9,12.1,17.9z M10.7,18.9h0.7v1.4h0l0.9-1.4
	h0.7l-0.9,1.4l1.1,1.5h-0.8l-1-1.4h-0.1v1.4h-0.7V18.9z M13.2,25.5h-0.7L12,23.7h0l-0.4,1.8h-0.7l-0.8-2.9h0.7l0.5,1.8h0l0.5-1.8
	h0.6l0.5,1.8h0l0.4-1.8h0.7L13.2,25.5z M12.1,17.9c-2.4,0-4.3,1.9-4.3,4.3c0,2.4,1.9,4.3,4.3,4.3c2.4,0,4.3-1.9,4.3-4.3
	C16.4,19.9,14.5,17.9,12.1,17.9z M10.7,18.9h0.7v1.4h0l0.9-1.4h0.7l-0.9,1.4l1.1,1.5h-0.8l-1-1.4h-0.1v1.4h-0.7V18.9z M13.2,25.5
	h-0.7L12,23.7h0l-0.4,1.8h-0.7l-0.8-2.9h0.7l0.5,1.8h0l0.5-1.8h0.6l0.5,1.8h0l0.4-1.8h0.7L13.2,25.5z M12.1,17.9
	c-2.4,0-4.3,1.9-4.3,4.3c0,2.4,1.9,4.3,4.3,4.3c2.4,0,4.3-1.9,4.3-4.3C16.4,19.9,14.5,17.9,12.1,17.9z M10.7,18.9h0.7v1.4h0l0.9-1.4
	h0.7l-0.9,1.4l1.1,1.5h-0.8l-1-1.4h-0.1v1.4h-0.7V18.9z M13.2,25.5h-0.7L12,23.7h0l-0.4,1.8h-0.7l-0.8-2.9h0.7l0.5,1.8h0l0.5-1.8
	h0.6l0.5,1.8h0l0.4-1.8h0.7L13.2,25.5z M12.1,17.9c-2.4,0-4.3,1.9-4.3,4.3c0,2.4,1.9,4.3,4.3,4.3c2.4,0,4.3-1.9,4.3-4.3
	C16.4,19.9,14.5,17.9,12.1,17.9z M10.7,18.9h0.7v1.4h0l0.9-1.4h0.7l-0.9,1.4l1.1,1.5h-0.8l-1-1.4h-0.1v1.4h-0.7V18.9z M13.2,25.5
	h-0.7L12,23.7h0l-0.4,1.8h-0.7l-0.8-2.9h0.7l0.5,1.8h0l0.5-1.8h0.6l0.5,1.8h0l0.4-1.8h0.7L13.2,25.5z M12.1,17.9
	c-2.4,0-4.3,1.9-4.3,4.3c0,2.4,1.9,4.3,4.3,4.3c2.4,0,4.3-1.9,4.3-4.3C16.4,19.9,14.5,17.9,12.1,17.9z M10.7,18.9h0.7v1.4h0l0.9-1.4
	h0.7l-0.9,1.4l1.1,1.5h-0.8l-1-1.4h-0.1v1.4h-0.7V18.9z M13.2,25.5h-0.7L12,23.7h0l-0.4,1.8h-0.7l-0.8-2.9h0.7l0.5,1.8h0l0.5-1.8
	h0.6l0.5,1.8h0l0.4-1.8h0.7L13.2,25.5z M15.6,17.6v-1.7c-0.4-0.1-0.7-0.3-1.1-0.3V17c-0.3-0.1-0.6-0.2-0.8-0.3v-1.3
	c-0.4-0.1-0.7-0.1-1.1-0.1v1.2c-0.1,0-0.3,0-0.4,0c-0.1,0-0.3,0-0.4,0v-1.2c-0.4,0-0.7,0-1.1,0.1v1.3c-0.3,0.1-0.6,0.2-0.8,0.3v-1.4
	c-0.4,0.1-0.7,0.2-1.1,0.3v1.7c-1.4,1.1-2.3,2.7-2.3,4.7c0,1.9,0.9,3.6,2.3,4.7v7.2c0.4,0.1,0.7,0.2,1.1,0.3v-6.9
	c0.3,0.1,0.6,0.2,0.8,0.3v6.8c0.4,0.1,0.7,0.1,1.1,0.1V28c0.1,0,0.3,0,0.4,0c0.2,0,0.3,0,0.4,0v6.7c0.4,0,0.7-0.1,1.1-0.1v-6.8
	c0.3-0.1,0.6-0.2,0.8-0.3v7c0.4-0.1,0.7-0.2,1.1-0.3v-7.3c1.4-1.1,2.3-2.7,2.3-4.6C17.9,20.3,17,18.7,15.6,17.6z M12.1,26.9
	c-2.6,0-4.6-2.1-4.6-4.6c0-2.6,2.1-4.6,4.6-4.6c2.6,0,4.6,2.1,4.6,4.6C16.7,24.8,14.7,26.9,12.1,26.9z M12.1,17.9
	c-2.4,0-4.3,1.9-4.3,4.3c0,2.4,1.9,4.3,4.3,4.3c2.4,0,4.3-1.9,4.3-4.3C16.4,19.9,14.5,17.9,12.1,17.9z M10.7,18.9h0.7v1.4h0l0.9-1.4
	h0.7l-0.9,1.4l1.1,1.5h-0.8l-1-1.4h-0.1v1.4h-0.7V18.9z M13.2,25.5h-0.7L12,23.7h0l-0.4,1.8h-0.7l-0.8-2.9h0.7l0.5,1.8h0l0.5-1.8
	h0.6l0.5,1.8h0l0.4-1.8h0.7L13.2,25.5z M12.1,17.9c-2.4,0-4.3,1.9-4.3,4.3c0,2.4,1.9,4.3,4.3,4.3c2.4,0,4.3-1.9,4.3-4.3
	C16.4,19.9,14.5,17.9,12.1,17.9z M10.7,18.9h0.7v1.4h0l0.9-1.4h0.7l-0.9,1.4l1.1,1.5h-0.8l-1-1.4h-0.1v1.4h-0.7V18.9z M13.2,25.5
	h-0.7L12,23.7h0l-0.4,1.8h-0.7l-0.8-2.9h0.7l0.5,1.8h0l0.5-1.8h0.6l0.5,1.8h0l0.4-1.8h0.7L13.2,25.5z M12.1,17.9
	c-2.4,0-4.3,1.9-4.3,4.3c0,2.4,1.9,4.3,4.3,4.3c2.4,0,4.3-1.9,4.3-4.3C16.4,19.9,14.5,17.9,12.1,17.9z M10.7,18.9h0.7v1.4h0l0.9-1.4
	h0.7l-0.9,1.4l1.1,1.5h-0.8l-1-1.4h-0.1v1.4h-0.7V18.9z M13.2,25.5h-0.7L12,23.7h0l-0.4,1.8h-0.7l-0.8-2.9h0.7l0.5,1.8h0l0.5-1.8
	h0.6l0.5,1.8h0l0.4-1.8h0.7L13.2,25.5z M12.1,17.9c-2.4,0-4.3,1.9-4.3,4.3c0,2.4,1.9,4.3,4.3,4.3c2.4,0,4.3-1.9,4.3-4.3
	C16.4,19.9,14.5,17.9,12.1,17.9z M10.7,18.9h0.7v1.4h0l0.9-1.4h0.7l-0.9,1.4l1.1,1.5h-0.8l-1-1.4h-0.1v1.4h-0.7V18.9z M13.2,25.5
	h-0.7L12,23.7h0l-0.4,1.8h-0.7l-0.8-2.9h0.7l0.5,1.8h0l0.5-1.8h0.6l0.5,1.8h0l0.4-1.8h0.7L13.2,25.5z M12.1,17.9
	c-2.4,0-4.3,1.9-4.3,4.3c0,2.4,1.9,4.3,4.3,4.3c2.4,0,4.3-1.9,4.3-4.3C16.4,19.9,14.5,17.9,12.1,17.9z M10.7,18.9h0.7v1.4h0l0.9-1.4
	h0.7l-0.9,1.4l1.1,1.5h-0.8l-1-1.4h-0.1v1.4h-0.7V18.9z M13.2,25.5h-0.7L12,23.7h0l-0.4,1.8h-0.7l-0.8-2.9h0.7l0.5,1.8h0l0.5-1.8
	h0.6l0.5,1.8h0l0.4-1.8h0.7L13.2,25.5z M12.1,17.9c-2.4,0-4.3,1.9-4.3,4.3c0,2.4,1.9,4.3,4.3,4.3c2.4,0,4.3-1.9,4.3-4.3
	C16.4,19.9,14.5,17.9,12.1,17.9z M10.7,18.9h0.7v1.4h0l0.9-1.4h0.7l-0.9,1.4l1.1,1.5h-0.8l-1-1.4h-0.1v1.4h-0.7V18.9z M13.2,25.5
	h-0.7L12,23.7h0l-0.4,1.8h-0.7l-0.8-2.9h0.7l0.5,1.8h0l0.5-1.8h0.6l0.5,1.8h0l0.4-1.8h0.7L13.2,25.5z M12.1,17.9
	c-2.4,0-4.3,1.9-4.3,4.3c0,2.4,1.9,4.3,4.3,4.3c2.4,0,4.3-1.9,4.3-4.3C16.4,19.9,14.5,17.9,12.1,17.9z M10.7,18.9h0.7v1.4h0l0.9-1.4
	h0.7l-0.9,1.4l1.1,1.5h-0.8l-1-1.4h-0.1v1.4h-0.7V18.9z M13.2,25.5h-0.7L12,23.7h0l-0.4,1.8h-0.7l-0.8-2.9h0.7l0.5,1.8h0l0.5-1.8
	h0.6l0.5,1.8h0l0.4-1.8h0.7L13.2,25.5z M12.1,17.9c-2.4,0-4.3,1.9-4.3,4.3c0,2.4,1.9,4.3,4.3,4.3c2.4,0,4.3-1.9,4.3-4.3
	C16.4,19.9,14.5,17.9,12.1,17.9z M10.7,18.9h0.7v1.4h0l0.9-1.4h0.7l-0.9,1.4l1.1,1.5h-0.8l-1-1.4h-0.1v1.4h-0.7V18.9z M13.2,25.5
	h-0.7L12,23.7h0l-0.4,1.8h-0.7l-0.8-2.9h0.7l0.5,1.8h0l0.5-1.8h0.6l0.5,1.8h0l0.4-1.8h0.7L13.2,25.5z M12.1,17.9
	c-2.4,0-4.3,1.9-4.3,4.3c0,2.4,1.9,4.3,4.3,4.3c2.4,0,4.3-1.9,4.3-4.3C16.4,19.9,14.5,17.9,12.1,17.9z M10.7,18.9h0.7v1.4h0l0.9-1.4
	h0.7l-0.9,1.4l1.1,1.5h-0.8l-1-1.4h-0.1v1.4h-0.7V18.9z M13.2,25.5h-0.7L12,23.7h0l-0.4,1.8h-0.7l-0.8-2.9h0.7l0.5,1.8h0l0.5-1.8
	h0.6l0.5,1.8h0l0.4-1.8h0.7L13.2,25.5z M12.1,17.9c-2.4,0-4.3,1.9-4.3,4.3c0,2.4,1.9,4.3,4.3,4.3c2.4,0,4.3-1.9,4.3-4.3
	C16.4,19.9,14.5,17.9,12.1,17.9z M10.7,18.9h0.7v1.4h0l0.9-1.4h0.7l-0.9,1.4l1.1,1.5h-0.8l-1-1.4h-0.1v1.4h-0.7V18.9z M13.2,25.5
	h-0.7L12,23.7h0l-0.4,1.8h-0.7l-0.8-2.9h0.7l0.5,1.8h0l0.5-1.8h0.6l0.5,1.8h0l0.4-1.8h0.7L13.2,25.5z M12.1,17.9
	c-2.4,0-4.3,1.9-4.3,4.3c0,2.4,1.9,4.3,4.3,4.3c2.4,0,4.3-1.9,4.3-4.3C16.4,19.9,14.5,17.9,12.1,17.9z M10.7,18.9h0.7v1.4h0l0.9-1.4
	h0.7l-0.9,1.4l1.1,1.5h-0.8l-1-1.4h-0.1v1.4h-0.7V18.9z M13.2,25.5h-0.7L12,23.7h0l-0.4,1.8h-0.7l-0.8-2.9h0.7l0.5,1.8h0l0.5-1.8
	h0.6l0.5,1.8h0l0.4-1.8h0.7L13.2,25.5z M12.1,17.9c-2.4,0-4.3,1.9-4.3,4.3c0,2.4,1.9,4.3,4.3,4.3c2.4,0,4.3-1.9,4.3-4.3
	C16.4,19.9,14.5,17.9,12.1,17.9z M10.7,18.9h0.7v1.4h0l0.9-1.4h0.7l-0.9,1.4l1.1,1.5h-0.8l-1-1.4h-0.1v1.4h-0.7V18.9z M13.2,25.5
	h-0.7L12,23.7h0l-0.4,1.8h-0.7l-0.8-2.9h0.7l0.5,1.8h0l0.5-1.8h0.6l0.5,1.8h0l0.4-1.8h0.7L13.2,25.5z M12.1,17.9
	c-2.4,0-4.3,1.9-4.3,4.3c0,2.4,1.9,4.3,4.3,4.3c2.4,0,4.3-1.9,4.3-4.3C16.4,19.9,14.5,17.9,12.1,17.9z M10.7,18.9h0.7v1.4h0l0.9-1.4
	h0.7l-0.9,1.4l1.1,1.5h-0.8l-1-1.4h-0.1v1.4h-0.7V18.9z M13.2,25.5h-0.7L12,23.7h0l-0.4,1.8h-0.7l-0.8-2.9h0.7l0.5,1.8h0l0.5-1.8
	h0.6l0.5,1.8h0l0.4-1.8h0.7L13.2,25.5z M12.1,17.9c-2.4,0-4.3,1.9-4.3,4.3c0,2.4,1.9,4.3,4.3,4.3c2.4,0,4.3-1.9,4.3-4.3
	C16.4,19.9,14.5,17.9,12.1,17.9z M10.7,18.9h0.7v1.4h0l0.9-1.4h0.7l-0.9,1.4l1.1,1.5h-0.8l-1-1.4h-0.1v1.4h-0.7V18.9z M13.2,25.5
	h-0.7L12,23.7h0l-0.4,1.8h-0.7l-0.8-2.9h0.7l0.5,1.8h0l0.5-1.8h0.6l0.5,1.8h0l0.4-1.8h0.7L13.2,25.5z M12.1,17.9
	c-2.4,0-4.3,1.9-4.3,4.3c0,2.4,1.9,4.3,4.3,4.3c2.4,0,4.3-1.9,4.3-4.3C16.4,19.9,14.5,17.9,12.1,17.9z M10.7,18.9h0.7v1.4h0l0.9-1.4
	h0.7l-0.9,1.4l1.1,1.5h-0.8l-1-1.4h-0.1v1.4h-0.7V18.9z M13.2,25.5h-0.7L12,23.7h0l-0.4,1.8h-0.7l-0.8-2.9h0.7l0.5,1.8h0l0.5-1.8
	h0.6l0.5,1.8h0l0.4-1.8h0.7L13.2,25.5z M15.6,17.6v-1.7c-0.4-0.1-0.7-0.3-1.1-0.3V17c-0.3-0.1-0.6-0.2-0.8-0.3v-1.3
	c-0.4-0.1-0.7-0.1-1.1-0.1v1.2c-0.1,0-0.3,0-0.4,0c-0.1,0-0.3,0-0.4,0v-1.2c-0.4,0-0.7,0-1.1,0.1v1.3c-0.3,0.1-0.6,0.2-0.8,0.3v-1.4
	c-0.4,0.1-0.7,0.2-1.1,0.3v1.7c-1.4,1.1-2.3,2.7-2.3,4.7c0,1.9,0.9,3.6,2.3,4.7v7.2c0.4,0.1,0.7,0.2,1.1,0.3v-6.9
	c0.3,0.1,0.6,0.2,0.8,0.3v6.8c0.4,0.1,0.7,0.1,1.1,0.1V28c0.1,0,0.3,0,0.4,0c0.2,0,0.3,0,0.4,0v6.7c0.4,0,0.7-0.1,1.1-0.1v-6.8
	c0.3-0.1,0.6-0.2,0.8-0.3v7c0.4-0.1,0.7-0.2,1.1-0.3v-7.3c1.4-1.1,2.3-2.7,2.3-4.6C17.9,20.3,17,18.7,15.6,17.6z M12.1,26.9
	c-2.6,0-4.6-2.1-4.6-4.6c0-2.6,2.1-4.6,4.6-4.6c2.6,0,4.6,2.1,4.6,4.6C16.7,24.8,14.7,26.9,12.1,26.9z M12.1,17.9
	c-2.4,0-4.3,1.9-4.3,4.3c0,2.4,1.9,4.3,4.3,4.3c2.4,0,4.3-1.9,4.3-4.3C16.4,19.9,14.5,17.9,12.1,17.9z M10.7,18.9h0.7v1.4h0l0.9-1.4
	h0.7l-0.9,1.4l1.1,1.5h-0.8l-1-1.4h-0.1v1.4h-0.7V18.9z M13.2,25.5h-0.7L12,23.7h0l-0.4,1.8h-0.7l-0.8-2.9h0.7l0.5,1.8h0l0.5-1.8
	h0.6l0.5,1.8h0l0.4-1.8h0.7L13.2,25.5z M12.1,17.9c-2.4,0-4.3,1.9-4.3,4.3c0,2.4,1.9,4.3,4.3,4.3c2.4,0,4.3-1.9,4.3-4.3
	C16.4,19.9,14.5,17.9,12.1,17.9z M10.7,18.9h0.7v1.4h0l0.9-1.4h0.7l-0.9,1.4l1.1,1.5h-0.8l-1-1.4h-0.1v1.4h-0.7V18.9z M13.2,25.5
	h-0.7L12,23.7h0l-0.4,1.8h-0.7l-0.8-2.9h0.7l0.5,1.8h0l0.5-1.8h0.6l0.5,1.8h0l0.4-1.8h0.7L13.2,25.5z M12.1,17.9
	c-2.4,0-4.3,1.9-4.3,4.3c0,2.4,1.9,4.3,4.3,4.3c2.4,0,4.3-1.9,4.3-4.3C16.4,19.9,14.5,17.9,12.1,17.9z M10.7,18.9h0.7v1.4h0l0.9-1.4
	h0.7l-0.9,1.4l1.1,1.5h-0.8l-1-1.4h-0.1v1.4h-0.7V18.9z M13.2,25.5h-0.7L12,23.7h0l-0.4,1.8h-0.7l-0.8-2.9h0.7l0.5,1.8h0l0.5-1.8
	h0.6l0.5,1.8h0l0.4-1.8h0.7L13.2,25.5z M12.1,17.9c-2.4,0-4.3,1.9-4.3,4.3c0,2.4,1.9,4.3,4.3,4.3c2.4,0,4.3-1.9,4.3-4.3
	C16.4,19.9,14.5,17.9,12.1,17.9z M10.7,18.9h0.7v1.4h0l0.9-1.4h0.7l-0.9,1.4l1.1,1.5h-0.8l-1-1.4h-0.1v1.4h-0.7V18.9z M13.2,25.5
	h-0.7L12,23.7h0l-0.4,1.8h-0.7l-0.8-2.9h0.7l0.5,1.8h0l0.5-1.8h0.6l0.5,1.8h0l0.4-1.8h0.7L13.2,25.5z M12.1,17.9
	c-2.4,0-4.3,1.9-4.3,4.3c0,2.4,1.9,4.3,4.3,4.3c2.4,0,4.3-1.9,4.3-4.3C16.4,19.9,14.5,17.9,12.1,17.9z M10.7,18.9h0.7v1.4h0l0.9-1.4
	h0.7l-0.9,1.4l1.1,1.5h-0.8l-1-1.4h-0.1v1.4h-0.7V18.9z M13.2,25.5h-0.7L12,23.7h0l-0.4,1.8h-0.7l-0.8-2.9h0.7l0.5,1.8h0l0.5-1.8
	h0.6l0.5,1.8h0l0.4-1.8h0.7L13.2,25.5z M12.1,17.9c-2.4,0-4.3,1.9-4.3,4.3c0,2.4,1.9,4.3,4.3,4.3c2.4,0,4.3-1.9,4.3-4.3
	C16.4,19.9,14.5,17.9,12.1,17.9z M10.7,18.9h0.7v1.4h0l0.9-1.4h0.7l-0.9,1.4l1.1,1.5h-0.8l-1-1.4h-0.1v1.4h-0.7V18.9z M13.2,25.5
	h-0.7L12,23.7h0l-0.4,1.8h-0.7l-0.8-2.9h0.7l0.5,1.8h0l0.5-1.8h0.6l0.5,1.8h0l0.4-1.8h0.7L13.2,25.5z M12.1,17.9
	c-2.4,0-4.3,1.9-4.3,4.3c0,2.4,1.9,4.3,4.3,4.3c2.4,0,4.3-1.9,4.3-4.3C16.4,19.9,14.5,17.9,12.1,17.9z M10.7,18.9h0.7v1.4h0l0.9-1.4
	h0.7l-0.9,1.4l1.1,1.5h-0.8l-1-1.4h-0.1v1.4h-0.7V18.9z M13.2,25.5h-0.7L12,23.7h0l-0.4,1.8h-0.7l-0.8-2.9h0.7l0.5,1.8h0l0.5-1.8
	h0.6l0.5,1.8h0l0.4-1.8h0.7L13.2,25.5z M12.1,17.9c-2.4,0-4.3,1.9-4.3,4.3c0,2.4,1.9,4.3,4.3,4.3c2.4,0,4.3-1.9,4.3-4.3
	C16.4,19.9,14.5,17.9,12.1,17.9z M10.7,18.9h0.7v1.4h0l0.9-1.4h0.7l-0.9,1.4l1.1,1.5h-0.8l-1-1.4h-0.1v1.4h-0.7V18.9z M13.2,25.5
	h-0.7L12,23.7h0l-0.4,1.8h-0.7l-0.8-2.9h0.7l0.5,1.8h0l0.5-1.8h0.6l0.5,1.8h0l0.4-1.8h0.7L13.2,25.5z M12.1,17.9
	c-2.4,0-4.3,1.9-4.3,4.3c0,2.4,1.9,4.3,4.3,4.3c2.4,0,4.3-1.9,4.3-4.3C16.4,19.9,14.5,17.9,12.1,17.9z M10.7,18.9h0.7v1.4h0l0.9-1.4
	h0.7l-0.9,1.4l1.1,1.5h-0.8l-1-1.4h-0.1v1.4h-0.7V18.9z M13.2,25.5h-0.7L12,23.7h0l-0.4,1.8h-0.7l-0.8-2.9h0.7l0.5,1.8h0l0.5-1.8
	h0.6l0.5,1.8h0l0.4-1.8h0.7L13.2,25.5z M12.1,17.9c-2.4,0-4.3,1.9-4.3,4.3c0,2.4,1.9,4.3,4.3,4.3c2.4,0,4.3-1.9,4.3-4.3
	C16.4,19.9,14.5,17.9,12.1,17.9z M10.7,18.9h0.7v1.4h0l0.9-1.4h0.7l-0.9,1.4l1.1,1.5h-0.8l-1-1.4h-0.1v1.4h-0.7V18.9z M13.2,25.5
	h-0.7L12,23.7h0l-0.4,1.8h-0.7l-0.8-2.9h0.7l0.5,1.8h0l0.5-1.8h0.6l0.5,1.8h0l0.4-1.8h0.7L13.2,25.5z M12.1,17.9
	c-2.4,0-4.3,1.9-4.3,4.3c0,2.4,1.9,4.3,4.3,4.3c2.4,0,4.3-1.9,4.3-4.3C16.4,19.9,14.5,17.9,12.1,17.9z M10.7,18.9h0.7v1.4h0l0.9-1.4
	h0.7l-0.9,1.4l1.1,1.5h-0.8l-1-1.4h-0.1v1.4h-0.7V18.9z M13.2,25.5h-0.7L12,23.7h0l-0.4,1.8h-0.7l-0.8-2.9h0.7l0.5,1.8h0l0.5-1.8
	h0.6l0.5,1.8h0l0.4-1.8h0.7L13.2,25.5z M12.1,17.9c-2.4,0-4.3,1.9-4.3,4.3c0,2.4,1.9,4.3,4.3,4.3c2.4,0,4.3-1.9,4.3-4.3
	C16.4,19.9,14.5,17.9,12.1,17.9z M10.7,18.9h0.7v1.4h0l0.9-1.4h0.7l-0.9,1.4l1.1,1.5h-0.8l-1-1.4h-0.1v1.4h-0.7V18.9z M13.2,25.5
	h-0.7L12,23.7h0l-0.4,1.8h-0.7l-0.8-2.9h0.7l0.5,1.8h0l0.5-1.8h0.6l0.5,1.8h0l0.4-1.8h0.7L13.2,25.5z M12.1,17.9
	c-2.4,0-4.3,1.9-4.3,4.3c0,2.4,1.9,4.3,4.3,4.3c2.4,0,4.3-1.9,4.3-4.3C16.4,19.9,14.5,17.9,12.1,17.9z M10.7,18.9h0.7v1.4h0l0.9-1.4
	h0.7l-0.9,1.4l1.1,1.5h-0.8l-1-1.4h-0.1v1.4h-0.7V18.9z M13.2,25.5h-0.7L12,23.7h0l-0.4,1.8h-0.7l-0.8-2.9h0.7l0.5,1.8h0l0.5-1.8
	h0.6l0.5,1.8h0l0.4-1.8h0.7L13.2,25.5z M12.1,17.9c-2.4,0-4.3,1.9-4.3,4.3c0,2.4,1.9,4.3,4.3,4.3c2.4,0,4.3-1.9,4.3-4.3
	C16.4,19.9,14.5,17.9,12.1,17.9z M10.7,18.9h0.7v1.4h0l0.9-1.4h0.7l-0.9,1.4l1.1,1.5h-0.8l-1-1.4h-0.1v1.4h-0.7V18.9z M13.2,25.5
	h-0.7L12,23.7h0l-0.4,1.8h-0.7l-0.8-2.9h0.7l0.5,1.8h0l0.5-1.8h0.6l0.5,1.8h0l0.4-1.8h0.7L13.2,25.5z M12.1,17.9
	c-2.4,0-4.3,1.9-4.3,4.3c0,2.4,1.9,4.3,4.3,4.3c2.4,0,4.3-1.9,4.3-4.3C16.4,19.9,14.5,17.9,12.1,17.9z M10.7,18.9h0.7v1.4h0l0.9-1.4
	h0.7l-0.9,1.4l1.1,1.5h-0.8l-1-1.4h-0.1v1.4h-0.7V18.9z M13.2,25.5h-0.7L12,23.7h0l-0.4,1.8h-0.7l-0.8-2.9h0.7l0.5,1.8h0l0.5-1.8
	h0.6l0.5,1.8h0l0.4-1.8h0.7L13.2,25.5z M15.6,17.6v-1.7c-0.4-0.1-0.7-0.3-1.1-0.3V17c-0.3-0.1-0.6-0.2-0.8-0.3v-1.3
	c-0.4-0.1-0.7-0.1-1.1-0.1v1.2c-0.1,0-0.3,0-0.4,0c-0.1,0-0.3,0-0.4,0v-1.2c-0.4,0-0.7,0-1.1,0.1v1.3c-0.3,0.1-0.6,0.2-0.8,0.3v-1.4
	c-0.4,0.1-0.7,0.2-1.1,0.3v1.7c-1.4,1.1-2.3,2.7-2.3,4.7c0,1.9,0.9,3.6,2.3,4.7v7.2c0.4,0.1,0.7,0.2,1.1,0.3v-6.9
	c0.3,0.1,0.6,0.2,0.8,0.3v6.8c0.4,0.1,0.7,0.1,1.1,0.1V28c0.1,0,0.3,0,0.4,0c0.2,0,0.3,0,0.4,0v6.7c0.4,0,0.7-0.1,1.1-0.1v-6.8
	c0.3-0.1,0.6-0.2,0.8-0.3v7c0.4-0.1,0.7-0.2,1.1-0.3v-7.3c1.4-1.1,2.3-2.7,2.3-4.6C17.9,20.3,17,18.7,15.6,17.6z M12.1,26.9
	c-2.6,0-4.6-2.1-4.6-4.6c0-2.6,2.1-4.6,4.6-4.6c2.6,0,4.6,2.1,4.6,4.6C16.7,24.8,14.7,26.9,12.1,26.9z M12.1,17.9
	c-2.4,0-4.3,1.9-4.3,4.3c0,2.4,1.9,4.3,4.3,4.3c2.4,0,4.3-1.9,4.3-4.3C16.4,19.9,14.5,17.9,12.1,17.9z M10.7,18.9h0.7v1.4h0l0.9-1.4
	h0.7l-0.9,1.4l1.1,1.5h-0.8l-1-1.4h-0.1v1.4h-0.7V18.9z M13.2,25.5h-0.7L12,23.7h0l-0.4,1.8h-0.7l-0.8-2.9h0.7l0.5,1.8h0l0.5-1.8
	h0.6l0.5,1.8h0l0.4-1.8h0.7L13.2,25.5z M12.1,17.9c-2.4,0-4.3,1.9-4.3,4.3c0,2.4,1.9,4.3,4.3,4.3c2.4,0,4.3-1.9,4.3-4.3
	C16.4,19.9,14.5,17.9,12.1,17.9z M10.7,18.9h0.7v1.4h0l0.9-1.4h0.7l-0.9,1.4l1.1,1.5h-0.8l-1-1.4h-0.1v1.4h-0.7V18.9z M13.2,25.5
	h-0.7L12,23.7h0l-0.4,1.8h-0.7l-0.8-2.9h0.7l0.5,1.8h0l0.5-1.8h0.6l0.5,1.8h0l0.4-1.8h0.7L13.2,25.5z M12.1,17.9
	c-2.4,0-4.3,1.9-4.3,4.3c0,2.4,1.9,4.3,4.3,4.3c2.4,0,4.3-1.9,4.3-4.3C16.4,19.9,14.5,17.9,12.1,17.9z M10.7,18.9h0.7v1.4h0l0.9-1.4
	h0.7l-0.9,1.4l1.1,1.5h-0.8l-1-1.4h-0.1v1.4h-0.7V18.9z M13.2,25.5h-0.7L12,23.7h0l-0.4,1.8h-0.7l-0.8-2.9h0.7l0.5,1.8h0l0.5-1.8
	h0.6l0.5,1.8h0l0.4-1.8h0.7L13.2,25.5z M12.1,17.9c-2.4,0-4.3,1.9-4.3,4.3c0,2.4,1.9,4.3,4.3,4.3c2.4,0,4.3-1.9,4.3-4.3
	C16.4,19.9,14.5,17.9,12.1,17.9z M10.7,18.9h0.7v1.4h0l0.9-1.4h0.7l-0.9,1.4l1.1,1.5h-0.8l-1-1.4h-0.1v1.4h-0.7V18.9z M13.2,25.5
	h-0.7L12,23.7h0l-0.4,1.8h-0.7l-0.8-2.9h0.7l0.5,1.8h0l0.5-1.8h0.6l0.5,1.8h0l0.4-1.8h0.7L13.2,25.5z M12.1,17.9
	c-2.4,0-4.3,1.9-4.3,4.3c0,2.4,1.9,4.3,4.3,4.3c2.4,0,4.3-1.9,4.3-4.3C16.4,19.9,14.5,17.9,12.1,17.9z M10.7,18.9h0.7v1.4h0l0.9-1.4
	h0.7l-0.9,1.4l1.1,1.5h-0.8l-1-1.4h-0.1v1.4h-0.7V18.9z M13.2,25.5h-0.7L12,23.7h0l-0.4,1.8h-0.7l-0.8-2.9h0.7l0.5,1.8h0l0.5-1.8
	h0.6l0.5,1.8h0l0.4-1.8h0.7L13.2,25.5z M12.1,17.9c-2.4,0-4.3,1.9-4.3,4.3c0,2.4,1.9,4.3,4.3,4.3c2.4,0,4.3-1.9,4.3-4.3
	C16.4,19.9,14.5,17.9,12.1,17.9z M10.7,18.9h0.7v1.4h0l0.9-1.4h0.7l-0.9,1.4l1.1,1.5h-0.8l-1-1.4h-0.1v1.4h-0.7V18.9z M13.2,25.5
	h-0.7L12,23.7h0l-0.4,1.8h-0.7l-0.8-2.9h0.7l0.5,1.8h0l0.5-1.8h0.6l0.5,1.8h0l0.4-1.8h0.7L13.2,25.5z M12.1,17.9
	c-2.4,0-4.3,1.9-4.3,4.3c0,2.4,1.9,4.3,4.3,4.3c2.4,0,4.3-1.9,4.3-4.3C16.4,19.9,14.5,17.9,12.1,17.9z M10.7,18.9h0.7v1.4h0l0.9-1.4
	h0.7l-0.9,1.4l1.1,1.5h-0.8l-1-1.4h-0.1v1.4h-0.7V18.9z M13.2,25.5h-0.7L12,23.7h0l-0.4,1.8h-0.7l-0.8-2.9h0.7l0.5,1.8h0l0.5-1.8
	h0.6l0.5,1.8h0l0.4-1.8h0.7L13.2,25.5z M12.1,17.9c-2.4,0-4.3,1.9-4.3,4.3c0,2.4,1.9,4.3,4.3,4.3c2.4,0,4.3-1.9,4.3-4.3
	C16.4,19.9,14.5,17.9,12.1,17.9z M10.7,18.9h0.7v1.4h0l0.9-1.4h0.7l-0.9,1.4l1.1,1.5h-0.8l-1-1.4h-0.1v1.4h-0.7V18.9z M13.2,25.5
	h-0.7L12,23.7h0l-0.4,1.8h-0.7l-0.8-2.9h0.7l0.5,1.8h0l0.5-1.8h0.6l0.5,1.8h0l0.4-1.8h0.7L13.2,25.5z M12.1,17.9
	c-2.4,0-4.3,1.9-4.3,4.3c0,2.4,1.9,4.3,4.3,4.3c2.4,0,4.3-1.9,4.3-4.3C16.4,19.9,14.5,17.9,12.1,17.9z M10.7,18.9h0.7v1.4h0l0.9-1.4
	h0.7l-0.9,1.4l1.1,1.5h-0.8l-1-1.4h-0.1v1.4h-0.7V18.9z M13.2,25.5h-0.7L12,23.7h0l-0.4,1.8h-0.7l-0.8-2.9h0.7l0.5,1.8h0l0.5-1.8
	h0.6l0.5,1.8h0l0.4-1.8h0.7L13.2,25.5z M12.1,17.9c-2.4,0-4.3,1.9-4.3,4.3c0,2.4,1.9,4.3,4.3,4.3c2.4,0,4.3-1.9,4.3-4.3
	C16.4,19.9,14.5,17.9,12.1,17.9z M10.7,18.9h0.7v1.4h0l0.9-1.4h0.7l-0.9,1.4l1.1,1.5h-0.8l-1-1.4h-0.1v1.4h-0.7V18.9z M13.2,25.5
	h-0.7L12,23.7h0l-0.4,1.8h-0.7l-0.8-2.9h0.7l0.5,1.8h0l0.5-1.8h0.6l0.5,1.8h0l0.4-1.8h0.7L13.2,25.5z M12.1,17.9
	c-2.4,0-4.3,1.9-4.3,4.3c0,2.4,1.9,4.3,4.3,4.3c2.4,0,4.3-1.9,4.3-4.3C16.4,19.9,14.5,17.9,12.1,17.9z M10.7,18.9h0.7v1.4h0l0.9-1.4
	h0.7l-0.9,1.4l1.1,1.5h-0.8l-1-1.4h-0.1v1.4h-0.7V18.9z M13.2,25.5h-0.7L12,23.7h0l-0.4,1.8h-0.7l-0.8-2.9h0.7l0.5,1.8h0l0.5-1.8
	h0.6l0.5,1.8h0l0.4-1.8h0.7L13.2,25.5z M12.1,17.9c-2.4,0-4.3,1.9-4.3,4.3c0,2.4,1.9,4.3,4.3,4.3c2.4,0,4.3-1.9,4.3-4.3
	C16.4,19.9,14.5,17.9,12.1,17.9z M10.7,18.9h0.7v1.4h0l0.9-1.4h0.7l-0.9,1.4l1.1,1.5h-0.8l-1-1.4h-0.1v1.4h-0.7V18.9z M13.2,25.5
	h-0.7L12,23.7h0l-0.4,1.8h-0.7l-0.8-2.9h0.7l0.5,1.8h0l0.5-1.8h0.6l0.5,1.8h0l0.4-1.8h0.7L13.2,25.5z M12.1,17.9
	c-2.4,0-4.3,1.9-4.3,4.3c0,2.4,1.9,4.3,4.3,4.3c2.4,0,4.3-1.9,4.3-4.3C16.4,19.9,14.5,17.9,12.1,17.9z M10.7,18.9h0.7v1.4h0l0.9-1.4
	h0.7l-0.9,1.4l1.1,1.5h-0.8l-1-1.4h-0.1v1.4h-0.7V18.9z M13.2,25.5h-0.7L12,23.7h0l-0.4,1.8h-0.7l-0.8-2.9h0.7l0.5,1.8h0l0.5-1.8
	h0.6l0.5,1.8h0l0.4-1.8h0.7L13.2,25.5z M12.1,17.9c-2.4,0-4.3,1.9-4.3,4.3c0,2.4,1.9,4.3,4.3,4.3c2.4,0,4.3-1.9,4.3-4.3
	C16.4,19.9,14.5,17.9,12.1,17.9z M10.7,18.9h0.7v1.4h0l0.9-1.4h0.7l-0.9,1.4l1.1,1.5h-0.8l-1-1.4h-0.1v1.4h-0.7V18.9z M13.2,25.5
	h-0.7L12,23.7h0l-0.4,1.8h-0.7l-0.8-2.9h0.7l0.5,1.8h0l0.5-1.8h0.6l0.5,1.8h0l0.4-1.8h0.7L13.2,25.5z M12.1,17.9
	c-2.4,0-4.3,1.9-4.3,4.3c0,2.4,1.9,4.3,4.3,4.3c2.4,0,4.3-1.9,4.3-4.3C16.4,19.9,14.5,17.9,12.1,17.9z M10.7,18.9h0.7v1.4h0l0.9-1.4
	h0.7l-0.9,1.4l1.1,1.5h-0.8l-1-1.4h-0.1v1.4h-0.7V18.9z M13.2,25.5h-0.7L12,23.7h0l-0.4,1.8h-0.7l-0.8-2.9h0.7l0.5,1.8h0l0.5-1.8
	h0.6l0.5,1.8h0l0.4-1.8h0.7L13.2,25.5z M12.1,17.9c-2.4,0-4.3,1.9-4.3,4.3c0,2.4,1.9,4.3,4.3,4.3c2.4,0,4.3-1.9,4.3-4.3
	C16.4,19.9,14.5,17.9,12.1,17.9z M10.7,18.9h0.7v1.4h0l0.9-1.4h0.7l-0.9,1.4l1.1,1.5h-0.8l-1-1.4h-0.1v1.4h-0.7V18.9z M13.2,25.5
	h-0.7L12,23.7h0l-0.4,1.8h-0.7l-0.8-2.9h0.7l0.5,1.8h0l0.5-1.8h0.6l0.5,1.8h0l0.4-1.8h0.7L13.2,25.5z M12.1,17.9
	c-2.4,0-4.3,1.9-4.3,4.3c0,2.4,1.9,4.3,4.3,4.3c2.4,0,4.3-1.9,4.3-4.3C16.4,19.9,14.5,17.9,12.1,17.9z M10.7,18.9h0.7v1.4h0l0.9-1.4
	h0.7l-0.9,1.4l1.1,1.5h-0.8l-1-1.4h-0.1v1.4h-0.7V18.9z M13.2,25.5h-0.7L12,23.7h0l-0.4,1.8h-0.7l-0.8-2.9h0.7l0.5,1.8h0l0.5-1.8
	h0.6l0.5,1.8h0l0.4-1.8h0.7L13.2,25.5z M12.1,17.9c-2.4,0-4.3,1.9-4.3,4.3c0,2.4,1.9,4.3,4.3,4.3c2.4,0,4.3-1.9,4.3-4.3
	C16.4,19.9,14.5,17.9,12.1,17.9z M10.7,18.9h0.7v1.4h0l0.9-1.4h0.7l-0.9,1.4l1.1,1.5h-0.8l-1-1.4h-0.1v1.4h-0.7V18.9z M13.2,25.5
	h-0.7L12,23.7h0l-0.4,1.8h-0.7l-0.8-2.9h0.7l0.5,1.8h0l0.5-1.8h0.6l0.5,1.8h0l0.4-1.8h0.7L13.2,25.5z M12.1,17.9
	c-2.4,0-4.3,1.9-4.3,4.3c0,2.4,1.9,4.3,4.3,4.3c2.4,0,4.3-1.9,4.3-4.3C16.4,19.9,14.5,17.9,12.1,17.9z M10.7,18.9h0.7v1.4h0l0.9-1.4
	h0.7l-0.9,1.4l1.1,1.5h-0.8l-1-1.4h-0.1v1.4h-0.7V18.9z M13.2,25.5h-0.7L12,23.7h0l-0.4,1.8h-0.7l-0.8-2.9h0.7l0.5,1.8h0l0.5-1.8
	h0.6l0.5,1.8h0l0.4-1.8h0.7L13.2,25.5z M15.6,17.6v-1.7c-0.4-0.1-0.7-0.3-1.1-0.3V17c-0.3-0.1-0.6-0.2-0.8-0.3v-1.3
	c-0.4-0.1-0.7-0.1-1.1-0.1v1.2c-0.1,0-0.3,0-0.4,0c-0.1,0-0.3,0-0.4,0v-1.2c-0.4,0-0.7,0-1.1,0.1v1.3c-0.3,0.1-0.6,0.2-0.8,0.3v-1.4
	c-0.4,0.1-0.7,0.2-1.1,0.3v1.7c-1.4,1.1-2.3,2.7-2.3,4.7c0,1.9,0.9,3.6,2.3,4.7v7.2c0.4,0.1,0.7,0.2,1.1,0.3v-6.9
	c0.3,0.1,0.6,0.2,0.8,0.3v6.8c0.4,0.1,0.7,0.1,1.1,0.1V28c0.1,0,0.3,0,0.4,0c0.2,0,0.3,0,0.4,0v6.7c0.4,0,0.7-0.1,1.1-0.1v-6.8
	c0.3-0.1,0.6-0.2,0.8-0.3v7c0.4-0.1,0.7-0.2,1.1-0.3v-7.3c1.4-1.1,2.3-2.7,2.3-4.6C17.9,20.3,17,18.7,15.6,17.6z M12.1,26.9
	c-2.6,0-4.6-2.1-4.6-4.6c0-2.6,2.1-4.6,4.6-4.6c2.6,0,4.6,2.1,4.6,4.6C16.7,24.8,14.7,26.9,12.1,26.9z M12.1,17.9
	c-2.4,0-4.3,1.9-4.3,4.3c0,2.4,1.9,4.3,4.3,4.3c2.4,0,4.3-1.9,4.3-4.3C16.4,19.9,14.5,17.9,12.1,17.9z M10.7,18.9h0.7v1.4h0l0.9-1.4
	h0.7l-0.9,1.4l1.1,1.5h-0.8l-1-1.4h-0.1v1.4h-0.7V18.9z M13.2,25.5h-0.7L12,23.7h0l-0.4,1.8h-0.7l-0.8-2.9h0.7l0.5,1.8h0l0.5-1.8
	h0.6l0.5,1.8h0l0.4-1.8h0.7L13.2,25.5z M12.1,17.9c-2.4,0-4.3,1.9-4.3,4.3c0,2.4,1.9,4.3,4.3,4.3c2.4,0,4.3-1.9,4.3-4.3
	C16.4,19.9,14.5,17.9,12.1,17.9z M10.7,18.9h0.7v1.4h0l0.9-1.4h0.7l-0.9,1.4l1.1,1.5h-0.8l-1-1.4h-0.1v1.4h-0.7V18.9z M13.2,25.5
	h-0.7L12,23.7h0l-0.4,1.8h-0.7l-0.8-2.9h0.7l0.5,1.8h0l0.5-1.8h0.6l0.5,1.8h0l0.4-1.8h0.7L13.2,25.5z M12.1,17.9
	c-2.4,0-4.3,1.9-4.3,4.3c0,2.4,1.9,4.3,4.3,4.3c2.4,0,4.3-1.9,4.3-4.3C16.4,19.9,14.5,17.9,12.1,17.9z M10.7,18.9h0.7v1.4h0l0.9-1.4
	h0.7l-0.9,1.4l1.1,1.5h-0.8l-1-1.4h-0.1v1.4h-0.7V18.9z M13.2,25.5h-0.7L12,23.7h0l-0.4,1.8h-0.7l-0.8-2.9h0.7l0.5,1.8h0l0.5-1.8
	h0.6l0.5,1.8h0l0.4-1.8h0.7L13.2,25.5z M12.1,17.9c-2.4,0-4.3,1.9-4.3,4.3c0,2.4,1.9,4.3,4.3,4.3c2.4,0,4.3-1.9,4.3-4.3
	C16.4,19.9,14.5,17.9,12.1,17.9z M10.7,18.9h0.7v1.4h0l0.9-1.4h0.7l-0.9,1.4l1.1,1.5h-0.8l-1-1.4h-0.1v1.4h-0.7V18.9z M13.2,25.5
	h-0.7L12,23.7h0l-0.4,1.8h-0.7l-0.8-2.9h0.7l0.5,1.8h0l0.5-1.8h0.6l0.5,1.8h0l0.4-1.8h0.7L13.2,25.5z M12.1,17.9
	c-2.4,0-4.3,1.9-4.3,4.3c0,2.4,1.9,4.3,4.3,4.3c2.4,0,4.3-1.9,4.3-4.3C16.4,19.9,14.5,17.9,12.1,17.9z M10.7,18.9h0.7v1.4h0l0.9-1.4
	h0.7l-0.9,1.4l1.1,1.5h-0.8l-1-1.4h-0.1v1.4h-0.7V18.9z M13.2,25.5h-0.7L12,23.7h0l-0.4,1.8h-0.7l-0.8-2.9h0.7l0.5,1.8h0l0.5-1.8
	h0.6l0.5,1.8h0l0.4-1.8h0.7L13.2,25.5z M12.1,17.9c-2.4,0-4.3,1.9-4.3,4.3c0,2.4,1.9,4.3,4.3,4.3c2.4,0,4.3-1.9,4.3-4.3
	C16.4,19.9,14.5,17.9,12.1,17.9z M10.7,18.9h0.7v1.4h0l0.9-1.4h0.7l-0.9,1.4l1.1,1.5h-0.8l-1-1.4h-0.1v1.4h-0.7V18.9z M13.2,25.5
	h-0.7L12,23.7h0l-0.4,1.8h-0.7l-0.8-2.9h0.7l0.5,1.8h0l0.5-1.8h0.6l0.5,1.8h0l0.4-1.8h0.7L13.2,25.5z M12.1,17.9
	c-2.4,0-4.3,1.9-4.3,4.3c0,2.4,1.9,4.3,4.3,4.3c2.4,0,4.3-1.9,4.3-4.3C16.4,19.9,14.5,17.9,12.1,17.9z M10.7,18.9h0.7v1.4h0l0.9-1.4
	h0.7l-0.9,1.4l1.1,1.5h-0.8l-1-1.4h-0.1v1.4h-0.7V18.9z M13.2,25.5h-0.7L12,23.7h0l-0.4,1.8h-0.7l-0.8-2.9h0.7l0.5,1.8h0l0.5-1.8
	h0.6l0.5,1.8h0l0.4-1.8h0.7L13.2,25.5z M12.1,17.9c-2.4,0-4.3,1.9-4.3,4.3c0,2.4,1.9,4.3,4.3,4.3c2.4,0,4.3-1.9,4.3-4.3
	C16.4,19.9,14.5,17.9,12.1,17.9z M10.7,18.9h0.7v1.4h0l0.9-1.4h0.7l-0.9,1.4l1.1,1.5h-0.8l-1-1.4h-0.1v1.4h-0.7V18.9z M13.2,25.5
	h-0.7L12,23.7h0l-0.4,1.8h-0.7l-0.8-2.9h0.7l0.5,1.8h0l0.5-1.8h0.6l0.5,1.8h0l0.4-1.8h0.7L13.2,25.5z M12.1,17.9
	c-2.4,0-4.3,1.9-4.3,4.3c0,2.4,1.9,4.3,4.3,4.3c2.4,0,4.3-1.9,4.3-4.3C16.4,19.9,14.5,17.9,12.1,17.9z M10.7,18.9h0.7v1.4h0l0.9-1.4
	h0.7l-0.9,1.4l1.1,1.5h-0.8l-1-1.4h-0.1v1.4h-0.7V18.9z M13.2,25.5h-0.7L12,23.7h0l-0.4,1.8h-0.7l-0.8-2.9h0.7l0.5,1.8h0l0.5-1.8
	h0.6l0.5,1.8h0l0.4-1.8h0.7L13.2,25.5z M12.1,17.9c-2.4,0-4.3,1.9-4.3,4.3c0,2.4,1.9,4.3,4.3,4.3c2.4,0,4.3-1.9,4.3-4.3
	C16.4,19.9,14.5,17.9,12.1,17.9z M10.7,18.9h0.7v1.4h0l0.9-1.4h0.7l-0.9,1.4l1.1,1.5h-0.8l-1-1.4h-0.1v1.4h-0.7V18.9z M13.2,25.5
	h-0.7L12,23.7h0l-0.4,1.8h-0.7l-0.8-2.9h0.7l0.5,1.8h0l0.5-1.8h0.6l0.5,1.8h0l0.4-1.8h0.7L13.2,25.5z M12.1,17.9
	c-2.4,0-4.3,1.9-4.3,4.3c0,2.4,1.9,4.3,4.3,4.3c2.4,0,4.3-1.9,4.3-4.3C16.4,19.9,14.5,17.9,12.1,17.9z M10.7,18.9h0.7v1.4h0l0.9-1.4
	h0.7l-0.9,1.4l1.1,1.5h-0.8l-1-1.4h-0.1v1.4h-0.7V18.9z M13.2,25.5h-0.7L12,23.7h0l-0.4,1.8h-0.7l-0.8-2.9h0.7l0.5,1.8h0l0.5-1.8
	h0.6l0.5,1.8h0l0.4-1.8h0.7L13.2,25.5z M12.1,17.9c-2.4,0-4.3,1.9-4.3,4.3c0,2.4,1.9,4.3,4.3,4.3c2.4,0,4.3-1.9,4.3-4.3
	C16.4,19.9,14.5,17.9,12.1,17.9z M10.7,18.9h0.7v1.4h0l0.9-1.4h0.7l-0.9,1.4l1.1,1.5h-0.8l-1-1.4h-0.1v1.4h-0.7V18.9z M13.2,25.5
	h-0.7L12,23.7h0l-0.4,1.8h-0.7l-0.8-2.9h0.7l0.5,1.8h0l0.5-1.8h0.6l0.5,1.8h0l0.4-1.8h0.7L13.2,25.5z M12.1,17.9
	c-2.4,0-4.3,1.9-4.3,4.3c0,2.4,1.9,4.3,4.3,4.3c2.4,0,4.3-1.9,4.3-4.3C16.4,19.9,14.5,17.9,12.1,17.9z M10.7,18.9h0.7v1.4h0l0.9-1.4
	h0.7l-0.9,1.4l1.1,1.5h-0.8l-1-1.4h-0.1v1.4h-0.7V18.9z M13.2,25.5h-0.7L12,23.7h0l-0.4,1.8h-0.7l-0.8-2.9h0.7l0.5,1.8h0l0.5-1.8
	h0.6l0.5,1.8h0l0.4-1.8h0.7L13.2,25.5z M12.1,17.9c-2.4,0-4.3,1.9-4.3,4.3c0,2.4,1.9,4.3,4.3,4.3c2.4,0,4.3-1.9,4.3-4.3
	C16.4,19.9,14.5,17.9,12.1,17.9z M10.7,18.9h0.7v1.4h0l0.9-1.4h0.7l-0.9,1.4l1.1,1.5h-0.8l-1-1.4h-0.1v1.4h-0.7V18.9z M13.2,25.5
	h-0.7L12,23.7h0l-0.4,1.8h-0.7l-0.8-2.9h0.7l0.5,1.8h0l0.5-1.8h0.6l0.5,1.8h0l0.4-1.8h0.7L13.2,25.5z M12.1,17.9
	c-2.4,0-4.3,1.9-4.3,4.3c0,2.4,1.9,4.3,4.3,4.3c2.4,0,4.3-1.9,4.3-4.3C16.4,19.9,14.5,17.9,12.1,17.9z M10.7,18.9h0.7v1.4h0l0.9-1.4
	h0.7l-0.9,1.4l1.1,1.5h-0.8l-1-1.4h-0.1v1.4h-0.7V18.9z M13.2,25.5h-0.7L12,23.7h0l-0.4,1.8h-0.7l-0.8-2.9h0.7l0.5,1.8h0l0.5-1.8
	h0.6l0.5,1.8h0l0.4-1.8h0.7L13.2,25.5z M12.1,17.9c-2.4,0-4.3,1.9-4.3,4.3c0,2.4,1.9,4.3,4.3,4.3c2.4,0,4.3-1.9,4.3-4.3
	C16.4,19.9,14.5,17.9,12.1,17.9z M10.7,18.9h0.7v1.4h0l0.9-1.4h0.7l-0.9,1.4l1.1,1.5h-0.8l-1-1.4h-0.1v1.4h-0.7V18.9z M13.2,25.5
	h-0.7L12,23.7h0l-0.4,1.8h-0.7l-0.8-2.9h0.7l0.5,1.8h0l0.5-1.8h0.6l0.5,1.8h0l0.4-1.8h0.7L13.2,25.5z M12.1,17.9
	c-2.4,0-4.3,1.9-4.3,4.3c0,2.4,1.9,4.3,4.3,4.3c2.4,0,4.3-1.9,4.3-4.3C16.4,19.9,14.5,17.9,12.1,17.9z M10.7,18.9h0.7v1.4h0l0.9-1.4
	h0.7l-0.9,1.4l1.1,1.5h-0.8l-1-1.4h-0.1v1.4h-0.7V18.9z M13.2,25.5h-0.7L12,23.7h0l-0.4,1.8h-0.7l-0.8-2.9h0.7l0.5,1.8h0l0.5-1.8
	h0.6l0.5,1.8h0l0.4-1.8h0.7L13.2,25.5z M12.1,17.9c-2.4,0-4.3,1.9-4.3,4.3c0,2.4,1.9,4.3,4.3,4.3c2.4,0,4.3-1.9,4.3-4.3
	C16.4,19.9,14.5,17.9,12.1,17.9z M10.7,18.9h0.7v1.4h0l0.9-1.4h0.7l-0.9,1.4l1.1,1.5h-0.8l-1-1.4h-0.1v1.4h-0.7V18.9z M13.2,25.5
	h-0.7L12,23.7h0l-0.4,1.8h-0.7l-0.8-2.9h0.7l0.5,1.8h0l0.5-1.8h0.6l0.5,1.8h0l0.4-1.8h0.7L13.2,25.5z M12.1,17.9
	c-2.4,0-4.3,1.9-4.3,4.3c0,2.4,1.9,4.3,4.3,4.3c2.4,0,4.3-1.9,4.3-4.3C16.4,19.9,14.5,17.9,12.1,17.9z M10.7,18.9h0.7v1.4h0l0.9-1.4
	h0.7l-0.9,1.4l1.1,1.5h-0.8l-1-1.4h-0.1v1.4h-0.7V18.9z M13.2,25.5h-0.7L12,23.7h0l-0.4,1.8h-0.7l-0.8-2.9h0.7l0.5,1.8h0l0.5-1.8
	h0.6l0.5,1.8h0l0.4-1.8h0.7L13.2,25.5z M15.6,17.6v-1.7c-0.4-0.1-0.7-0.3-1.1-0.3V17c-0.3-0.1-0.6-0.2-0.8-0.3v-1.3
	c-0.4-0.1-0.7-0.1-1.1-0.1v1.2c-0.1,0-0.3,0-0.4,0c-0.1,0-0.3,0-0.4,0v-1.2c-0.4,0-0.7,0-1.1,0.1v1.3c-0.3,0.1-0.6,0.2-0.8,0.3v-1.4
	c-0.4,0.1-0.7,0.2-1.1,0.3v1.7c-1.4,1.1-2.3,2.7-2.3,4.7c0,1.9,0.9,3.6,2.3,4.7v7.2c0.4,0.1,0.7,0.2,1.1,0.3v-6.9
	c0.3,0.1,0.6,0.2,0.8,0.3v6.8c0.4,0.1,0.7,0.1,1.1,0.1V28c0.1,0,0.3,0,0.4,0c0.2,0,0.3,0,0.4,0v6.7c0.4,0,0.7-0.1,1.1-0.1v-6.8
	c0.3-0.1,0.6-0.2,0.8-0.3v7c0.4-0.1,0.7-0.2,1.1-0.3v-7.3c1.4-1.1,2.3-2.7,2.3-4.6C17.9,20.3,17,18.7,15.6,17.6z M12.1,26.9
	c-2.6,0-4.6-2.1-4.6-4.6c0-2.6,2.1-4.6,4.6-4.6c2.6,0,4.6,2.1,4.6,4.6C16.7,24.8,14.7,26.9,12.1,26.9z M12.1,17.9
	c-2.4,0-4.3,1.9-4.3,4.3c0,2.4,1.9,4.3,4.3,4.3c2.4,0,4.3-1.9,4.3-4.3C16.4,19.9,14.5,17.9,12.1,17.9z M10.7,18.9h0.7v1.4h0l0.9-1.4
	h0.7l-0.9,1.4l1.1,1.5h-0.8l-1-1.4h-0.1v1.4h-0.7V18.9z M13.2,25.5h-0.7L12,23.7h0l-0.4,1.8h-0.7l-0.8-2.9h0.7l0.5,1.8h0l0.5-1.8
	h0.6l0.5,1.8h0l0.4-1.8h0.7L13.2,25.5z M12.1,17.9c-2.4,0-4.3,1.9-4.3,4.3c0,2.4,1.9,4.3,4.3,4.3c2.4,0,4.3-1.9,4.3-4.3
	C16.4,19.9,14.5,17.9,12.1,17.9z M10.7,18.9h0.7v1.4h0l0.9-1.4h0.7l-0.9,1.4l1.1,1.5h-0.8l-1-1.4h-0.1v1.4h-0.7V18.9z M13.2,25.5
	h-0.7L12,23.7h0l-0.4,1.8h-0.7l-0.8-2.9h0.7l0.5,1.8h0l0.5-1.8h0.6l0.5,1.8h0l0.4-1.8h0.7L13.2,25.5z M12.1,17.9
	c-2.4,0-4.3,1.9-4.3,4.3c0,2.4,1.9,4.3,4.3,4.3c2.4,0,4.3-1.9,4.3-4.3C16.4,19.9,14.5,17.9,12.1,17.9z M10.7,18.9h0.7v1.4h0l0.9-1.4
	h0.7l-0.9,1.4l1.1,1.5h-0.8l-1-1.4h-0.1v1.4h-0.7V18.9z M13.2,25.5h-0.7L12,23.7h0l-0.4,1.8h-0.7l-0.8-2.9h0.7l0.5,1.8h0l0.5-1.8
	h0.6l0.5,1.8h0l0.4-1.8h0.7L13.2,25.5z M12.1,17.9c-2.4,0-4.3,1.9-4.3,4.3c0,2.4,1.9,4.3,4.3,4.3c2.4,0,4.3-1.9,4.3-4.3
	C16.4,19.9,14.5,17.9,12.1,17.9z M10.7,18.9h0.7v1.4h0l0.9-1.4h0.7l-0.9,1.4l1.1,1.5h-0.8l-1-1.4h-0.1v1.4h-0.7V18.9z M13.2,25.5
	h-0.7L12,23.7h0l-0.4,1.8h-0.7l-0.8-2.9h0.7l0.5,1.8h0l0.5-1.8h0.6l0.5,1.8h0l0.4-1.8h0.7L13.2,25.5z M12.1,17.9
	c-2.4,0-4.3,1.9-4.3,4.3c0,2.4,1.9,4.3,4.3,4.3c2.4,0,4.3-1.9,4.3-4.3C16.4,19.9,14.5,17.9,12.1,17.9z M10.7,18.9h0.7v1.4h0l0.9-1.4
	h0.7l-0.9,1.4l1.1,1.5h-0.8l-1-1.4h-0.1v1.4h-0.7V18.9z M13.2,25.5h-0.7L12,23.7h0l-0.4,1.8h-0.7l-0.8-2.9h0.7l0.5,1.8h0l0.5-1.8
	h0.6l0.5,1.8h0l0.4-1.8h0.7L13.2,25.5z M12.1,17.9c-2.4,0-4.3,1.9-4.3,4.3c0,2.4,1.9,4.3,4.3,4.3c2.4,0,4.3-1.9,4.3-4.3
	C16.4,19.9,14.5,17.9,12.1,17.9z M10.7,18.9h0.7v1.4h0l0.9-1.4h0.7l-0.9,1.4l1.1,1.5h-0.8l-1-1.4h-0.1v1.4h-0.7V18.9z M13.2,25.5
	h-0.7L12,23.7h0l-0.4,1.8h-0.7l-0.8-2.9h0.7l0.5,1.8h0l0.5-1.8h0.6l0.5,1.8h0l0.4-1.8h0.7L13.2,25.5z M12.1,17.9
	c-2.4,0-4.3,1.9-4.3,4.3c0,2.4,1.9,4.3,4.3,4.3c2.4,0,4.3-1.9,4.3-4.3C16.4,19.9,14.5,17.9,12.1,17.9z M10.7,18.9h0.7v1.4h0l0.9-1.4
	h0.7l-0.9,1.4l1.1,1.5h-0.8l-1-1.4h-0.1v1.4h-0.7V18.9z M13.2,25.5h-0.7L12,23.7h0l-0.4,1.8h-0.7l-0.8-2.9h0.7l0.5,1.8h0l0.5-1.8
	h0.6l0.5,1.8h0l0.4-1.8h0.7L13.2,25.5z M12.1,17.9c-2.4,0-4.3,1.9-4.3,4.3c0,2.4,1.9,4.3,4.3,4.3c2.4,0,4.3-1.9,4.3-4.3
	C16.4,19.9,14.5,17.9,12.1,17.9z M10.7,18.9h0.7v1.4h0l0.9-1.4h0.7l-0.9,1.4l1.1,1.5h-0.8l-1-1.4h-0.1v1.4h-0.7V18.9z M13.2,25.5
	h-0.7L12,23.7h0l-0.4,1.8h-0.7l-0.8-2.9h0.7l0.5,1.8h0l0.5-1.8h0.6l0.5,1.8h0l0.4-1.8h0.7L13.2,25.5z M12.1,17.9
	c-2.4,0-4.3,1.9-4.3,4.3c0,2.4,1.9,4.3,4.3,4.3c2.4,0,4.3-1.9,4.3-4.3C16.4,19.9,14.5,17.9,12.1,17.9z M10.7,18.9h0.7v1.4h0l0.9-1.4
	h0.7l-0.9,1.4l1.1,1.5h-0.8l-1-1.4h-0.1v1.4h-0.7V18.9z M13.2,25.5h-0.7L12,23.7h0l-0.4,1.8h-0.7l-0.8-2.9h0.7l0.5,1.8h0l0.5-1.8
	h0.6l0.5,1.8h0l0.4-1.8h0.7L13.2,25.5z"/>
</svg>
