<?xml version="1.0" encoding="utf-8"?>
<!-- Generator: Adobe Illustrator 27.2.0, SVG Export Plug-In . SVG Version: 6.00 Build 0)  -->
<svg version="1.1" id="Layer_1" xmlns="http://www.w3.org/2000/svg" xmlns:xlink="http://www.w3.org/1999/xlink" x="0px" y="0px"
	 viewBox="0 0 138 50" style="enable-background:new 0 0 138 50;" xml:space="preserve">
<path d="M33.3,18.6v12.7c0,0.2-0.2,0.4-0.4,0.4h-7.3c-0.2,0-0.4-0.2-0.4-0.4v-6.1c0-0.2-0.1-0.3-0.3-0.1l-4.7,6.3
	c-0.1,0.2-0.4,0.3-0.7,0.3h-5.6c-0.2,0-0.5-0.2-0.7-0.3l-4.7-6.3c-0.1-0.2-0.3-0.1-0.3,0.1v6.1c0,0.2-0.2,0.4-0.4,0.4H0.4
	c-0.2,0-0.4-0.2-0.4-0.4V18.6c0-0.2,0.2-0.4,0.4-0.4h9.4c0.2,0,0.5,0.2,0.7,0.3l5.9,7.7c0.1,0.2,0.4,0.2,0.5,0l5.9-7.7
	c0.1-0.2,0.5-0.3,0.7-0.3h9.4C33.1,18.2,33.3,18.4,33.3,18.6z M69,31.3c0.1,0.2,0.1,0.3-0.2,0.3l-7.8,0c-0.2,0-0.5-0.2-0.7-0.3
	L59,29.6c-0.1-0.2-0.4-0.3-0.7-0.3H46.9c-0.2,0-0.5,0.2-0.7,0.3l-1.3,1.7c-0.1,0.2-0.5,0.3-0.7,0.3l-7.8,0c-0.2,0-0.3-0.2-0.2-0.3
	l9.7-12.8c0.1-0.2,0.4-0.3,0.7-0.3h11.9c0.2,0,0.5,0.2,0.7,0.3L69,31.3z M56.1,25.1l-2-2.7c-0.1-0.2-0.5-0.3-0.7-0.3h-1.5
	c-0.2,0-0.5,0.2-0.7,0.3l-2,2.7c-0.1,0.2-0.1,0.3,0.2,0.3h6.6C56.1,25.4,56.2,25.2,56.1,25.1z M98.2,18.2H73.3
	c-0.2,0-0.5,0.2-0.7,0.3l-1,1.3c-0.1,0.2-0.3,0.5-0.3,0.8v8.6c0,0.2,0.1,0.6,0.3,0.8l1,1.3c0.1,0.2,0.5,0.3,0.7,0.3h24.9
	c0.2,0,0.4-0.2,0.4-0.4v-3.7c0-0.2-0.2-0.4-0.4-0.4H79.8c-0.2,0-0.4-0.2-0.4-0.4v-3.6c0-0.2,0.2-0.4,0.4-0.4h18.3
	c0.2,0,0.4-0.2,0.4-0.4v-3.7C98.6,18.4,98.4,18.2,98.2,18.2z M131.4,31.4l-9.7-8c-0.2-0.2-0.2-0.4,0-0.5l8.7-4.6
	c0.2-0.1,0.2-0.2,0-0.2h-10.7c-0.2,0-0.6,0.1-0.8,0.2l-8.1,4.3c-0.2,0.1-0.4,0-0.4-0.2v-3.8c0-0.2-0.2-0.4-0.4-0.4h-7.3
	c-0.2,0-0.4,0.2-0.4,0.4v12.7c0,0.2,0.2,0.4,0.4,0.4h7.3c0.2,0,0.4-0.2,0.4-0.4v-1.9c0-0.2,0.2-0.5,0.4-0.6l4.4-2.3
	c0.2-0.1,0.5-0.1,0.7,0.1l6,4.9c0.2,0.2,0.5,0.3,0.8,0.3h8.8C131.5,31.7,131.6,31.6,131.4,31.4z M136.1,29.6l0.6,0.8h-0.5l-0.6-0.7
	h-0.8v0.7h-0.4v-2.3h1.5c0.4,0,0.8,0.3,0.8,0.8C136.6,29.2,136.4,29.5,136.1,29.6z M135.9,29.2c0.2,0,0.4-0.2,0.4-0.4
	c0-0.2-0.2-0.4-0.4-0.4h-1.1v0.7H135.9z M138,29.2c0,1.4-1.2,2.6-2.6,2.6c-1.4,0-2.6-1.2-2.6-2.6c0-1.4,1.2-2.6,2.6-2.6
	C136.8,26.6,138,27.8,138,29.2z M137.6,29.2c0-1.2-1-2.2-2.2-2.2c-1.2,0-2.2,1-2.2,2.2c0,1.2,1,2.2,2.2,2.2
	C136.6,31.4,137.6,30.4,137.6,29.2z"/>
</svg>
