<?xml version="1.0" encoding="utf-8"?>
<!-- Generator: Adobe Illustrator 27.3.1, SVG Export Plug-In . SVG Version: 6.00 Build 0)  -->
<svg version="1.1" id="Layer_1" xmlns="http://www.w3.org/2000/svg" xmlns:xlink="http://www.w3.org/1999/xlink" x="0px" y="0px"
	 viewBox="0 0 138 50" style="enable-background:new 0 0 138 50;" xml:space="preserve">
<g>
	<path d="M2.3,21.4L7.1,30h5.5l4.7-8.6h2.3v-1.6h-7v1.6h2l-3.4,6.3l-3.4-6.3h2.5v-1.6H0v1.6L2.3,21.4 M62.9,21.4v-1.6h9.4v1.6H70v7
		h2.2c2,0,3.3-1.3,3.3-3.1H77V30H62.9v-1.6h2.4v-7H62.9 M40,28.8c-1.7,0-2.5-1.9-2.5-3.8c0-2,1-3.7,2.6-3.6c1.6,0,2.5,1.8,2.4,3.7
		C42.5,26.8,41.7,28.8,40,28.8 M40,19.6c-4.7,0-7.2,2.4-7.2,5.3c0,3,2.4,5.4,7.3,5.4c4.8,0,7.2-2.4,7.2-5.4S44.7,19.6,40,19.6
		 M93.1,21.4l4.7,8.6h5.5l4.7-8.6h2.3v-1.6h-7v1.6h2l-3.4,6.3l-3.4-6.3h2.5v-1.6H90.7v1.6L93.1,21.4 M130.7,28.8
		c-1.7,0-2.5-1.9-2.5-3.8c0-2,1-3.7,2.6-3.6c1.6,0,2.5,1.8,2.4,3.7C133.2,26.8,132.5,28.8,130.7,28.8 M130.7,19.6
		c-4.7,0-7.2,2.4-7.2,5.3c0,3,2.4,5.4,7.3,5.4c4.8,0,7.2-2.4,7.2-5.4S135.5,19.6,130.7,19.6"/>
</g>
</svg>
