<?xml version="1.0" encoding="utf-8"?>
<!-- Generator: Adobe Illustrator 27.3.1, SVG Export Plug-In . SVG Version: 6.00 Build 0)  -->
<svg version="1.1" id="Layer_1" xmlns="http://www.w3.org/2000/svg" xmlns:xlink="http://www.w3.org/1999/xlink" x="0px" y="0px"
	 viewBox="0 0 138 50" style="enable-background:new 0 0 138 50;" xml:space="preserve">
<g>
	<g transform="translate(570.8 729.44)">
		<path d="M-457.5-689.4h-2.7l-4.2,9.9h2.5l0.6-1.5h4.7l0.6,1.5h2.5L-457.5-689.4z M-460.3-682.9l1.4-3.3h0.2l1.4,3.3H-460.3z"/>
	</g>
	<g transform="translate(559.95 729.44)">
		<path d="M-461.6-689.4v2.1h3.6v7.8h2.3v-7.8h3.6v-2.1H-461.6z"/>
	</g>
	<g transform="translate(544.09 729.44)">
		<path d="M-463.6-689.4v6.3l-3.6-6.3h-2.7v9.9h2.3v-6.1l3.5,6.1h2.8v-9.9H-463.6z"/>
	</g>
	<g transform="translate(512.1 729.44)">
		<path d="M-467.7-689.4v2.1h3.6v7.8h2.3v-7.8h3.6v-2.1H-467.7z"/>
	</g>
	<g transform="translate(505.14 729.44)">
		<path d="M-468.5-689.4l-0.9,0.9v4.3l0.9,0.9h4.4v1.3l-0.4,0.4h-4.9v2.1h6.8l0.9-0.9v-4.3l-0.9-0.9h-4.4v-1.3l0.4-0.4h4.9v-2.1
			L-468.5-689.4z"/>
	</g>
	<g transform="translate(553 729.44)">
		<path d="M-462.4-689.4l-0.9,0.9v4.3l0.9,0.9h4.4v1.3l-0.4,0.4h-4.9v2.1h6.8l0.9-0.9v-4.3l-0.9-0.9h-4.4v-1.3l0.4-0.4h4.9v-2.1
			L-462.4-689.4z"/>
	</g>
	<g transform="translate(496.42 729.44)">
		<path d="M-469.7-689.4v9.9h7.6v-2.1h-5.3v-1.7h3.8v-2.1h-3.8v-1.8h5.3v-2.1H-469.7z"/>
	</g>
	<g transform="translate(521.53 729.44)">
		<path d="M-466.5-689.4v9.9h7.6v-2.1h-5.3v-1.7h3.8v-2.1h-3.8v-1.8h5.3v-2.1H-466.5z"/>
	</g>
	<g transform="translate(493.45 729.44)">
		<path d="M-470-689.4l-1.7,5.6h-0.2l-1.6-5.1l-0.1-0.5h-2.3l-0.1,0.5l-1.6,5.1h-0.2l-1.7-5.6h-2.6l3.1,9.9h2.6l1.6-5h0.2l1.6,5h2.6
			l3.1-9.9H-470z"/>
	</g>
	<g transform="translate(529.8 729.44)">
		<path d="M-458.7-682.9h0.5l0.9-0.9v-4.7l-0.9-0.9h-7.1v9.9h2.3v-3.5h1.8l1.7,3.5h2.5L-458.7-682.9z M-459.7-685.5l-0.4,0.4h-2.9
			v-2.2h2.9l0.4,0.4V-685.5z"/>
	</g>
	<g transform="translate(577.58 729.44)">
		<path d="M-452.6-682.9h0.5l0.9-0.9v-4.7l-0.9-0.9h-7.1v9.9h2.3v-3.5h1.8l1.7,3.5h2.5L-452.6-682.9z M-453.6-685.5l-0.4,0.4h-2.9
			v-2.2h2.9l0.4,0.4V-685.5z"/>
	</g>
	<g transform="translate(567.55 764.72)">
		<path d="M-495.4-749.7l0.6-0.4l4.6-3.4h-6.4l-0.2-0.7l-1.7-5.4l-1.8,5.4l-0.2,0.7h-6.4l4.6,3.4l0.6,0.4l-0.2,0.7l-1.8,5.4l4.6-3.3
			l0.6-0.4l0.6,0.4l4.6,3.3l-1.8-5.4L-495.4-749.7z M-495.4-749.7l0.6-0.4l4.6-3.4h-6.4l-0.2-0.7l-1.7-5.4l-1.8,5.4l-0.2,0.7h-6.4
			l4.6,3.4l0.6,0.4l-0.2,0.7l-1.8,5.4l4.6-3.3l0.6-0.4l0.6,0.4l4.6,3.3l-1.8-5.4L-495.4-749.7z M-460.6-764.4
			c-0.1-0.2-0.4-0.3-0.6-0.3h-15c-0.1,0-0.1,0-0.2,0c-0.1,0-0.3,0.1-0.4,0.2c0,0.1-0.1,0.1-0.1,0.2l-6.9,15.9l-2.8-5.9l1-0.7h-1.3
			l-4.4-9.3c-0.1-0.3-0.5-0.5-0.8-0.5h-12.8c-0.2,0-0.5,0.1-0.6,0.3c0,0.1-0.1,0.1-0.1,0.2l-4.4,9.3h-1.3l1,0.7l-2.8,5.9l-6.9-15.9
			c0-0.1-0.1-0.1-0.1-0.2s-0.1-0.1-0.2-0.1c-0.1-0.1-0.1-0.1-0.2-0.1c-0.1,0-0.2,0-0.2,0h-15c-0.2,0-0.4,0.1-0.5,0.2
			c0,0-0.1,0.1-0.1,0.1c-0.1,0.2-0.1,0.5,0,0.7l14.2,32.5c0,0,0,0.1,0,0.1c0,0,0,0.1,0.1,0.1c0.2,0.2,0.4,0.3,0.6,0.3h18.1
			c0.2,0,0.5-0.1,0.6-0.3c0-0.1,0.1-0.1,0.1-0.2l4.2-9.3l4.2,9.3c0,0.1,0.1,0.1,0.1,0.2c0.2,0.2,0.4,0.3,0.6,0.3h18.1
			c0.3,0,0.6-0.2,0.7-0.5l14.2-32.5C-460.4-764-460.5-764.2-460.6-764.4z M-492.2-764.2c0.1,0,0.2,0.1,0.3,0.2l4.3,9.1h-2l-3.5-7.3
			c-0.1-0.1-0.2-0.2-0.3-0.2h-4.6l-0.6-1.8H-492.2z M-505.2-764c0-0.1,0.2-0.2,0.3-0.2h6.3l-0.6,1.8h-4.6c-0.1,0-0.3,0.1-0.3,0.2
			l-3.5,7.3h-2L-505.2-764z M-501.3-754.5l2.6-7.9l0.1-0.4l0.1,0.4l2.6,8h8.8l-7.1,5.2l2.7,8.4l-7.1-5.2l-7.1,5.2l2.7-8.4l-5.4-4
			l-1.5-1.1l-0.2-0.2H-501.3z M-461-763.9l-14.2,32.5c0,0.1-0.2,0.2-0.3,0.2h-18.1c-0.1,0-0.2-0.1-0.3-0.2l-4.7-10.3l-4.7,10.3
			c0,0.1-0.2,0.2-0.3,0.2h-18.1c-0.1,0-0.2-0.1-0.3-0.2l-14.2-32.5c0-0.1,0-0.2,0-0.2c0-0.1,0.1-0.1,0.2-0.1h15
			c0.1,0,0.2,0.1,0.3,0.2l7.4,16.9l3.2-6.8l1.5,1.1l-3.4,7.2c-0.1,0.1-0.2,0.2-0.3,0.2h-1.9c-0.1,0-0.3-0.1-0.3-0.2l-7.2-16.6
			c0-0.1-0.2-0.2-0.3-0.2h-11.3c-0.1,0-0.2,0.1-0.1,0.2l12.7,29c0,0.1,0.2,0.2,0.3,0.2l15.8,0c0.1,0,0.3-0.1,0.3-0.2l4.5-10.1
			c0-0.1,0.2-0.2,0.3-0.2h1.9c0.1,0,0.3,0.1,0.3,0.2l4.5,10c0,0.1,0.2,0.2,0.3,0.2l15.8,0c0.1,0,0.3-0.1,0.3-0.2l12.7-29
			c0.1-0.1,0-0.2-0.1-0.2h-11.2c-0.1,0-0.3,0.1-0.3,0.2l-7.3,16.6c-0.1,0.1-0.2,0.2-0.3,0.2h-1.9c-0.1,0-0.3-0.1-0.3-0.2l-3.4-7.2
			l1.5-1.1l3.2,6.8l7.4-16.9c0-0.1,0.2-0.2,0.3-0.2h15c0.1,0,0.2,0,0.2,0.1C-461-764.1-461-764-461-763.9z M-501.8-749.7l-0.2,0.7
			l-1.8,5.4l4.6-3.3l0.6-0.4l0.6,0.4l4.6,3.3l-1.8-5.4l-0.2-0.7l0.6-0.4l4.6-3.4h-6.4l-0.2-0.7l-1.7-5.4l-1.8,5.4l-0.2,0.7h-6.4
			l4.6,3.4L-501.8-749.7z"/>
	</g>
	<g transform="translate(531.03 751.66)">
		<polygon points="-458.6,-735.9 -456.9,-730.5 -461.4,-733.8 -462,-734.3 -462.6,-733.8 -467.2,-730.5 -465.5,-735.9 
			-465.2,-736.6 -465.8,-737.1 -470.4,-740.4 -464,-740.4 -463.8,-741.1 -462,-746.5 -460.3,-741.1 -460.1,-740.4 -453.7,-740.4 
			-458.2,-737.1 -458.8,-736.6 		"/>
	</g>
	<g transform="translate(567.16 764.27)">
		<path d="M-460.2-764c-0.1-0.2-0.4-0.3-0.6-0.3h-15c-0.1,0-0.1,0-0.2,0c-0.1,0-0.3,0.1-0.4,0.2c0,0-0.1,0.1-0.1,0.2l-6.9,15.9
			l-2.8-5.9l1-0.7h-1.3l-4.4-9.3c-0.1-0.3-0.5-0.5-0.8-0.5h-12.8c-0.2,0-0.5,0.1-0.6,0.3c-0.1,0.1-0.1,0.1-0.1,0.2l-4.4,9.3h-1.3
			l1,0.7l-2.8,5.9l-6.9-15.9c0-0.1-0.1-0.1-0.1-0.2s-0.1-0.1-0.2-0.1c-0.1-0.1-0.1-0.1-0.2-0.1c-0.1,0-0.2,0-0.2,0h-15
			c-0.2,0-0.4,0.1-0.5,0.2c0,0-0.1,0.1-0.1,0.1c-0.1,0.2-0.1,0.5,0,0.7l14.2,32.5c0,0,0,0.1,0.1,0.1c0,0,0,0.1,0.1,0.1
			c0.2,0.2,0.4,0.3,0.6,0.3h18.1c0.2,0,0.5-0.1,0.6-0.3c0-0.1,0.1-0.1,0.1-0.2l4.2-9.3l0,0l4.2,9.3c0,0.1,0.1,0.1,0.1,0.2
			c0.2,0.2,0.4,0.3,0.6,0.3h18.1c0.3,0,0.6-0.2,0.7-0.5l14.2-32.5C-460.1-763.5-460.1-763.8-460.2-764z M-491.8-763.8
			c0.1,0,0.2,0.1,0.3,0.2l4.3,9.1h-2l-3.5-7.3c-0.1-0.1-0.2-0.2-0.3-0.2h-4.6l-0.6-1.8H-491.8z M-498-762l2.6,8h8.8l-7.1,5.2
			l2.7,8.4l-7.1-5.2l-7.1,5.2l2.7-8.4l-5.4-4l-1.5-1.1l-0.2-0.2h8.8l2.6-7.9l0.1-0.4L-498-762z M-504.8-763.6c0-0.1,0.2-0.2,0.3-0.2
			h6.3l-0.6,1.8h-4.6c-0.1,0-0.3,0.1-0.3,0.2l-3.5,7.3h-2L-504.8-763.6z M-460.6-763.5l-14.2,32.5c0,0.1-0.2,0.2-0.3,0.2h-18.1
			c-0.1,0-0.2-0.1-0.3-0.2l-4.7-10.3l-4.7,10.3c0,0.1-0.2,0.2-0.3,0.2h-18.1c-0.1,0-0.2-0.1-0.3-0.2l-14.2-32.5c0-0.1,0-0.2,0-0.2
			c0-0.1,0.1-0.1,0.2-0.1h15c0.1,0,0.2,0.1,0.3,0.2l7.4,16.9l3.2-6.8l1.5,1.1l-3.4,7.2c-0.1,0.1-0.2,0.2-0.3,0.2h-1.9
			c-0.1,0-0.3-0.1-0.3-0.2l-7.2-16.6c0-0.1-0.2-0.2-0.3-0.2h-11.3c-0.1,0-0.2,0.1-0.1,0.2l12.7,29c0,0.1,0.2,0.2,0.3,0.2l15.8,0
			c0.1,0,0.3-0.1,0.3-0.2l4.5-10.1c0-0.1,0.2-0.2,0.3-0.2h1.9c0.1,0,0.3,0.1,0.3,0.2l4.5,10c0,0.1,0.2,0.2,0.3,0.2l15.8,0
			c0.1,0,0.3-0.1,0.3-0.2l12.7-29c0.1-0.1,0-0.2-0.1-0.2h-11.2c-0.1,0-0.3,0.1-0.3,0.2l-7.3,16.6c-0.1,0.1-0.2,0.2-0.3,0.2h-1.9
			c-0.1,0-0.3-0.1-0.3-0.2l-3.4-7.2l1.5-1.1l3.2,6.8l7.4-16.9c0-0.1,0.2-0.2,0.3-0.2h15c0.1,0,0.2,0,0.2,0.1
			C-460.6-763.6-460.6-763.6-460.6-763.5z"/>
	</g>
</g>
</svg>
