<?xml version="1.0" encoding="utf-8"?>
<!-- Generator: Adobe Illustrator 27.8.1, SVG Export Plug-In . SVG Version: 6.00 Build 0)  -->
<svg version="1.1" id="Layer_2_00000023994061461855718610000012592701045869598372_"
	 xmlns="http://www.w3.org/2000/svg" xmlns:xlink="http://www.w3.org/1999/xlink" x="0px" y="0px" viewBox="0 0 512 512"
	 style="enable-background:new 0 0 512 512;" xml:space="preserve">
<style type="text/css">
	.st0{fill:#FFFFFF;}
</style>
<g>
	<path class="st0" d="M256,216.4c-21.8,0-39.6,17.8-39.6,39.6s17.8,39.6,39.6,39.6s39.6-17.8,39.6-39.6S277.8,216.4,256,216.4z
		 M256,282.7c-14.7,0-26.7-12-26.7-26.7s12-26.7,26.7-26.7c14.7,0,26.7,12,26.7,26.7C282.7,270.7,270.7,282.7,256,282.7z"/>
	<path class="st0" d="M256,71.2C154.1,71.2,71.2,154.1,71.2,256S154.1,440.8,256,440.8S440.8,357.9,440.8,256S357.9,71.2,256,71.2z
		 M308.3,332.6H202.9c-10.2-21.3-22.8-37.2-34.4-48.6c-28.8-28.3-61.7-40.1-83.9-42.2c1.8-22.3,8-43.5,17.5-62.6h307.7
		c9.6,19.1,15.7,40.2,17.5,62.6c-22.3,1.8-55.5,13.6-84.7,42.2C331.1,295.4,318.5,311.2,308.3,332.6z M256,84
		c62,0,116.5,33,146.7,82.4H109.3C139.5,117,194,84,256,84z M84,256c0-0.5,0-0.9,0-1.4c19.8,1.9,49.3,12.7,75.5,38.5
		c22.3,22,48.8,61.9,50.8,128.7C137.6,401.8,84,335,84,256z M223.2,424.9c-0.6-31.7-6.4-58-14.8-79.4h94.3
		c-8.4,21.5-14.2,47.8-14.8,79.6c-10.4,2-21.1,3-32,3C244.8,428,233.8,426.9,223.2,424.9z M300.9,422c2-66.9,28.5-106.9,50.8-128.9
		c26.6-26.1,56.4-36.9,76.3-38.6c0,0.5,0,1,0,1.4C428,335.3,374,402.2,300.9,422z"/>
	<path class="st0" d="M437,75C388.7,26.6,324.4,0,256,0S123.3,26.6,75,75C26.6,123.3,0,187.6,0,256s26.6,132.7,75,181
		c48.4,48.4,112.6,75,181,75s132.7-26.6,181-75c48.4-48.4,75-112.6,75-181S485.4,123.3,437,75z M428,428
		c-45.9,45.9-107,71.2-172,71.2S130,473.9,84,428c-45.9-46-71.2-107-71.2-172S38.1,130,84,84s107-71.2,172-71.2S382,38.1,428,84
		c45.9,45.9,71.2,107,71.2,172S473.9,382,428,428z"/>
</g>
</svg>
