<?xml version="1.0" encoding="utf-8"?>
<!-- Generator: Adobe Illustrator 27.8.1, SVG Export Plug-In . SVG Version: 6.00 Build 0)  -->
<svg version="1.1" id="Layer_2_00000027575198923588332770000001452070262780099467_"
	 xmlns="http://www.w3.org/2000/svg" xmlns:xlink="http://www.w3.org/1999/xlink" x="0px" y="0px" viewBox="0 0 512 512"
	 style="enable-background:new 0 0 512 512;" xml:space="preserve">
<style type="text/css">
	.st0{fill:#FFFFFF;}
</style>
<g id="Layer_2-2">
	<g>
		<path class="st0" d="M439.2,65.2H417c-40.1,0-72.8,32.7-72.8,72.8v111.6h-50.1v-30.9h-75.5v30.9H168V138
			c0-40.1-32.7-72.8-72.8-72.8H72.8C32.7,65.2,0,97.9,0,138v236.7c0,40.1,32.7,72.8,72.8,72.8H95c40.1,0,72.8-32.7,72.8-72.8V263.2
			h50.6v30.9H294v-30.9h50v111.6c0,40.1,32.7,72.8,72.8,72.8H439c40.1,0,72.8-32.7,72.8-72.8V138C512,97.9,479.3,65.2,439.2,65.2
			L439.2,65.2z M90.8,78.2l9.5,0.8c22.8,2,42.5,17.2,50.4,38.7l2.9,7.9l-62.8,26.9V78.2z M77.2,434.7l-9.5-0.8
			c-14.7-1.2-28.2-8.1-38.3-18.9c-10.1-11-15.6-25.2-15.6-40.1v-20.2l63.5,27.2L77.2,434.7L77.2,434.7z M77.2,367.1l-63.5-27.2
			v-56.6l63.5,27.2V367.1z M77.2,295.6l-63.5-27.2v-56.6L77.2,239V295.6z M77.2,224.2L13.7,197v-56.6l63.5,27.2
			C77.2,167.7,77.2,224.2,77.2,224.2z M77.2,152.8l-62.9-26.9l2.8-7.8c7.8-21.7,27.6-37,50.5-39.1h0.8h8.8v8.8V152.8L77.2,152.8z
			 M154.3,374.8c0,14.9-5.6,29.1-15.6,40.1c-10,10.9-23.6,17.6-38.3,18.9l-9.5,0.8v-53.2l63.5-27.2L154.3,374.8L154.3,374.8z
			 M154.3,333.8v5.7l-5.3,2.4l-58.2,24.9v-56.6l63.5-27.2V333.8L154.3,333.8z M154.3,268.1l-63.5,27.2v-56.6l63.5-27.2V268.1
			L154.3,268.1z M154.3,196.6l-5.3,2.3l-58.2,25v-56.6l63.5-27.2V196.6L154.3,196.6z M280.4,280.6h-48.3v-48.3h48.3V280.6z
			 M434.8,78.2l9.5,0.8c22.8,2,42.5,17.2,50.4,38.7l2.9,7.9l-62.8,26.9V78.2L434.8,78.2z M421.2,434.6l-9.5-0.8
			c-14.7-1.2-28.2-8.1-38.3-18.9c-10.1-11-15.6-25.2-15.6-40.1v-20.2l63.5,27.2v52.8H421.2z M421.2,367.1l-63.5-27.2v-56.6
			l63.5,27.2V367.1z M421.2,295.6l-63.5-27.2v-56.6l63.5,27.2V295.6L421.2,295.6z M421.2,224.2L357.7,197v-56.6l58.2,24.9l5.3,1.9
			V224.2L421.2,224.2z M421.2,152.8l-62.9-26.9l2.8-7.8c7.8-21.7,27.6-37,50.5-39.1l9.5-0.8v74.6L421.2,152.8L421.2,152.8z
			 M434.8,310.1l63.5-27.2v56.6l-63.5,27.2V310.1z M498.3,374.8c0,14.9-5.6,29.1-15.6,40.1c-10,10.9-23.7,17.6-38.3,18.9l-9.5,0.8
			v-53.2l63.5-27.2L498.3,374.8L498.3,374.8z M498.3,268.1l-63.5,27.2v-56.4l5.4-2.5l58.2-24.9v56.6L498.3,268.1L498.3,268.1z
			 M498.3,196.6l-63.5,27.2v-56.6l63.5-27.2V196.6z"/>
	</g>
</g>
</svg>
