<?xml version="1.0" encoding="utf-8"?>
<!-- Generator: Adobe Illustrator 27.8.1, SVG Export Plug-In . SVG Version: 6.00 Build 0)  -->
<svg version="1.1" id="Layer_2_00000159442970437797940690000005930409596525909151_"
	 xmlns="http://www.w3.org/2000/svg" xmlns:xlink="http://www.w3.org/1999/xlink" x="0px" y="0px" viewBox="0 0 512 512"
	 style="enable-background:new 0 0 512 512;" xml:space="preserve">
<style type="text/css">
	.st0{fill:#FFFFFF;}
</style>
<g id="Layer_2-2">
	<g>
		<path class="st0" d="M439.9,264.4l-70.6-53.1H142.7l-70.6,53.1h-72v144.9h72l70.6,53.1h226.7l70.6-53.1h72V264.4H439.9z
			 M67.5,395.7h-54V277.8h54V395.7z M149,450.2L81,399V274.4l68-51.1V450.2L149,450.2z M357.8,448.8H162.4V224.7h195.4V448.8z
			 M431,399.1L371.3,444V229.5l59.8,44.9L431,399.1L431,399.1z M498.5,395.7h-54V277.8h54V395.7z"/>
		<path class="st0" d="M202.9,147.9l-10.6-8.5c5.9-11.9,6.6-26.4-4.1-37.1c-11.5-11.6-15.2-25.7-10.5-40.9c1.3-4.5,3.3-8.6,5.2-11.7
			l10.3,9c-1.1,2.2-2.2,4.8-2.9,7.5c-2.8,10.1-0.3,18.8,7.4,26.7C215.8,111,210.6,133.8,202.9,147.9L202.9,147.9z"/>
		<path class="st0" d="M266.1,147.9l-10.6-8.5c5.9-11.9,6.6-26.4-4.1-37.1c-11.5-11.6-15.2-25.7-10.5-40.9c1.3-4.5,3.3-8.6,5.2-11.7
			l10.3,9c-1.1,2.2-2.2,4.8-3,7.5c-2.8,10.1-0.3,18.8,7.4,26.7C279.1,111,273.8,133.8,266.1,147.9z"/>
		<path class="st0" d="M329.3,147.9l-10.8-8.5c5.2-10.4,7.7-25.3-4.1-37.1c-11.5-11.6-15.2-25.7-10.5-40.9c1.3-4.5,3.3-8.6,5.2-11.7
			l10.3,9c-1.1,2.2-2.2,4.8-3,7.5c-2.8,10.1-0.3,18.8,7.4,26.7C342.3,111,337.1,133.8,329.3,147.9L329.3,147.9z"/>
	</g>
</g>
</svg>
