<?xml version="1.0" encoding="utf-8"?>
<!-- Generator: Adobe Illustrator 27.8.1, SVG Export Plug-In . SVG Version: 6.00 Build 0)  -->
<svg version="1.1" id="Layer_2_00000019637327092048315470000009826212783776818106_"
	 xmlns="http://www.w3.org/2000/svg" xmlns:xlink="http://www.w3.org/1999/xlink" x="0px" y="0px" viewBox="0 0 512 512"
	 style="enable-background:new 0 0 512 512;" xml:space="preserve">
<style type="text/css">
	.st0{fill:#FFFFFF;}
</style>
<g>
	<path class="st0" d="M238.2,164.4c-60.3,0-109.4,49.1-109.4,109.4s49,109.4,109.4,109.4s109.4-49.1,109.4-109.4
		S298.5,164.4,238.2,164.4L238.2,164.4z M238.2,369.8c-53,0-96-43-96-96s43-96,96-96s96,43,96,96S291.2,369.8,238.2,369.8
		L238.2,369.8z"/>
	<path class="st0" d="M238.2,225.2c-26.8,0-48.6,21.8-48.6,48.6s21.8,48.6,48.6,48.6s48.6-21.8,48.6-48.6S265,225.2,238.2,225.2
		L238.2,225.2z M238.2,309c-19.3,0-35.2-15.7-35.2-35.2s15.7-35.2,35.2-35.2c19.4,0,35.2,15.7,35.2,35.2S257.6,309,238.2,309
		L238.2,309z"/>
	<ellipse class="st0" cx="240" cy="440.6" rx="7.6" ry="7.6"/>
	<path class="st0" d="M327,423.9c-3.6,2.1-8.3,0.8-10.3-2.8c-2.1-3.6-0.8-8.3,2.8-10.3c1.1-0.7,2.5-1,3.7-1c2.6,0,5.2,1.3,6.6,3.8
		C331.8,417.2,330.6,421.8,327,423.9z"/>
	<path class="st0" d="M390.2,359.4c-1,1.8-2.6,3-4.6,3.5s-4,0.2-5.8-0.7s-3-2.7-3.5-4.7s-0.2-4,0.7-5.8c1-1.8,2.6-3,4.6-3.5
		c0.6-0.2,1.3-0.3,2-0.3c1.3,0,2.6,0.3,3.7,1c1.8,1,3,2.7,3.5,4.7C391.5,355.6,391.2,357.6,390.2,359.4L390.2,359.4z"/>
	<path class="st0" d="M156.6,137.1c-1.8,1-3.8,1.2-5.8,0.7s-3.6-1.8-4.7-3.5s-1.2-3.8-0.8-5.8c0.5-2,1.8-3.6,3.5-4.7
		c1.1-0.7,2.5-1,3.8-1c0.6,0,1.3,0.1,2,0.2c2,0.5,3.6,1.8,4.7,3.5l0.1,0.2C161.5,130.4,160.2,135,156.6,137.1L156.6,137.1z"/>
	<path class="st0" d="M99.2,196.2c-2.1,3.6-6.7,4.9-10.3,2.8c-1.8-1-3-2.7-3.5-4.6c-0.5-1.9-0.3-4,0.7-5.8s2.7-3,4.6-3.5
		c0.6-0.2,1.3-0.2,2-0.2c1.3,0,2.6,0.3,3.7,1c1.8,1,3,2.7,3.5,4.6C100.3,192.4,100.1,194.5,99.2,196.2z"/>
	<path class="st0" d="M78.9,276.2c0,2.1-0.8,3.9-2.2,5.4c-1.3,1.4-3.3,2.3-5.4,2.3l0,0c-4.1,0-7.6-3.4-7.6-7.6
		c0-2.1,0.8-3.9,2.2-5.4c1.3-1.4,3.3-2.3,5.4-2.3l0,0c2,0,3.9,0.8,5.4,2.2C78.2,272.2,78.9,274.2,78.9,276.2L78.9,276.2z"/>
	<path class="st0" d="M102.3,361.3c-0.5,2-1.8,3.6-3.5,4.7c-3.6,2.1-8.3,0.9-10.3-2.7c-1-1.8-1.2-3.8-0.8-5.7c0.5-2,1.8-3.6,3.5-4.7
		c1.1-0.7,2.5-1,3.8-1c0.6,0,1.3,0.1,2,0.2c2,0.5,3.6,1.8,4.7,3.5l0,0C102.5,357.3,102.8,359.3,102.3,361.3z"/>
	<path class="st0" d="M163.5,423.4c-1,1.8-2.6,3-4.6,3.5s-4,0.3-5.8-0.7s-3-2.6-3.5-4.6s-0.3-4,0.7-5.8s2.7-3,4.6-3.5
		c0.6-0.2,1.3-0.3,2-0.3c1.3,0,2.6,0.3,3.7,1l0,0c1.8,1,3,2.6,3.5,4.6C164.8,419.5,164.6,421.6,163.5,423.4L163.5,423.4z"/>
	<path class="st0" d="M431.8,80.2C380.1,28.4,311.3,0,238.2,0h-6.7v35.6l-8.3,0.5c-57.8,3.5-112.3,28.1-153.5,69.3
		C24.8,150.4,0,210.2,0,273.8s24.8,123.5,69.7,168.4c45,45,104.8,69.8,168.4,69.8s123.4-24.8,168.4-69.8
		c40.1-40.1,64.6-93.1,69-149.4l0.6-8.1h35.6l0.1-7.6c0-1.1,0-2.3,0-3.4C512,200.7,483.6,131.9,431.8,80.2z M462,294.3
		c-5.1,55.5-30.6,107.1-71.9,145c-41.6,38.2-95.6,59.3-151.9,59.3c-123.9,0-224.8-100.8-224.8-224.8c0-59.1,21.5-114.3,60.7-155.5
		c38.3-40.2,90.8-64.6,147.9-68.8l9.4-0.7v62.8h6.7c89.4,0,162.1,72.7,162.1,162.1c0,1.3,0,2.7,0,4l-0.2,6.9h62.8L462,294.3
		L462,294.3z M413.8,271.3l-0.5-8.3c-2.6-42-20.3-81.7-49.8-111.9S294.8,102.4,253,98.9l-8.1-0.7V13.3l9.3,0.5
		c64,3.9,124.2,31.3,169.4,77.3c45.3,46,71.8,106.6,74.7,170.9l0.4,9.2L413.8,271.3L413.8,271.3z"/>
</g>
</svg>
