<?xml version="1.0" encoding="utf-8"?>
<!-- Generator: Adobe Illustrator 27.8.1, SVG Export Plug-In . SVG Version: 6.00 Build 0)  -->
<svg version="1.1" id="Layer_2_00000036226693568197594660000009608248356934002106_"
	 xmlns="http://www.w3.org/2000/svg" xmlns:xlink="http://www.w3.org/1999/xlink" x="0px" y="0px" viewBox="0 0 512 512"
	 style="enable-background:new 0 0 512 512;" xml:space="preserve">
<style type="text/css">
	.st0{fill:#FFFFFF;}
</style>
<g id="Layer_2-2">
	<g>
		<path class="st0" d="M511.9,167.4V87.8h-30.5V59.3H468v28.4h-59.5V29H192.6v58.7H44V59.3H30.6v28.4H0.1v79.6h18.6v236H0.1V483
			h511.8v-79.6h-20.7v-236H511.9z M206.1,42.5h189v45.3h-189V42.5z M498.5,416.8v52.7h-485v-52.7H498.5z M32.1,403.3V168.1h52.5
			v235.2H32.1z M98.1,403.3V168.1h52.4v235.2H98.1z M164,403.3V168.1h52.4v235.2H164z M229.8,403.3V168.1h52.4v235.2H229.8
			L229.8,403.3z M295.6,403.3V168.1H348v235.2H295.6L295.6,403.3z M361.5,403.3V168.1h52.4v235.2H361.5z M427.3,403.3V168.1h50.5
			v235.2H427.3z M13.5,153.9v-52.7h485v52.7H13.5z"/>
	</g>
</g>
</svg>
