<?xml version="1.0" encoding="utf-8"?>
<!-- Generator: Adobe Illustrator 27.8.1, SVG Export Plug-In . SVG Version: 6.00 Build 0)  -->
<svg version="1.1" id="Layer_2_00000137819045208992578930000017446057818816393899_"
	 xmlns="http://www.w3.org/2000/svg" xmlns:xlink="http://www.w3.org/1999/xlink" x="0px" y="0px" viewBox="0 0 512 512"
	 style="enable-background:new 0 0 512 512;" xml:space="preserve">
<style type="text/css">
	.st0{fill:#FFFFFF;}
</style>
<g id="Layer_2-2">
	<g>
		<path class="st0" d="M65.2,0v512h381.6V0H65.2z M433.3,498.6H78.6V13.4h354.7L433.3,498.6L433.3,498.6z"/>
		<g>
			<path class="st0" d="M129.8,64.9v147h252.3v-147C382.1,64.9,129.8,64.9,129.8,64.9z M368.6,198.5l-17.6-0.1h-91.6l-54.6-76.5
				l-11,7.9l49,68.8h-99.6v-120h225.4V181"/>
			<path class="st0" d="M359.8,189.6L359.8,189.6L359.8,189.6L359.8,189.6z M359.8,189.6L359.8,189.6L359.8,189.6L359.8,189.6z
				 M359.8,189.6L359.8,189.6L359.8,189.6L359.8,189.6z M359.8,189.6L359.8,189.6L359.8,189.6L359.8,189.6z M359.8,189.6
				L359.8,189.6L359.8,189.6L359.8,189.6z M359.8,189.6L359.8,189.6L359.8,189.6L359.8,189.6z M359.8,189.6L359.8,189.6L359.8,189.6
				L359.8,189.6z"/>
		</g>
		<path class="st0" d="M184.4,356.1c-22.9,0-41.5,18.6-41.5,41.5s18.6,41.5,41.5,41.5s41.5-18.6,41.5-41.5S207.3,356.1,184.4,356.1z
			 M184.4,425.6c-15.4,0-28-12.5-28-28s12.5-28,28-28s28,12.6,28,28C212.5,413,199.9,425.6,184.4,425.6z"/>
		<path class="st0" d="M327.5,356.1c-22.9,0-41.5,18.6-41.5,41.5s18.6,41.5,41.5,41.5s41.5-18.6,41.5-41.5S350.3,356.1,327.5,356.1z
			 M327.5,425.6c-15.4,0-28-12.5-28-28s12.6-28,28-28s28,12.6,28,28S342.9,425.6,327.5,425.6z"/>
		<rect x="296.8" y="273.3" class="st0" width="61.4" height="13.4"/>
		<polygon class="st0" points="215.1,273.3 215.1,286.8 191.1,286.8 191.1,310.8 177.7,310.8 177.7,286.8 153.7,286.8 153.7,273.3 
			177.7,273.3 177.7,249.4 191.1,249.4 191.1,273.3 		"/>
	</g>
</g>
</svg>
