<?xml version="1.0" encoding="utf-8"?>
<!-- Generator: Adobe Illustrator 27.8.1, SVG Export Plug-In . SVG Version: 6.00 Build 0)  -->
<svg version="1.1" id="Layer_2_00000004508285590661363160000003083342379507546764_"
	 xmlns="http://www.w3.org/2000/svg" xmlns:xlink="http://www.w3.org/1999/xlink" x="0px" y="0px" viewBox="0 0 512 512"
	 style="enable-background:new 0 0 512 512;" xml:space="preserve">
<style type="text/css">
	.st0{fill:#FFFFFF;}
</style>
<g id="Layer_2-2">
	<g>
		<path class="st0" d="M377,165.8h26.9c17.4,0,31.5-14.2,31.5-31.5V31.5c0-17.4-14.2-31.5-31.5-31.5H377
			c-17.4,0-31.5,14.2-31.5,31.5v44.7h-45V44.7h-89v31.5h-45V31.5C166.5,14.2,152.4,0,135,0h-26.9C90.7,0,76.5,14.2,76.5,31.5v102.7
			c0,17.4,14.2,31.5,31.5,31.5h27c17.4,0,31.5-14.2,31.5-31.5V89.7h45v31.5h37.8v64.4h-42.4v140.7h42.4v62.6h-37.8v33.4h-45v-44.7
			c0-17.4-14.2-31.5-31.5-31.5h-26.9c-17.4,0-31.5,14.2-31.5,31.5v102.8c0,17.4,14.2,31.5,31.5,31.5H135c17.4,0,31.5-14.2,31.5-31.5
			v-44.7h45v29.7h89v-29.7h45v44.7c0,17.4,14.2,31.5,31.5,31.5h26.9c17.4,0,31.5-14.2,31.5-31.5V377.7c0-17.4-14.2-31.5-31.5-31.5
			H377c-17.4,0-31.5,14.2-31.5,31.5v44.7h-45V389h-37.8v-62.7h42.4V185.7h-42.4v-64.4h37.8V89.7h45v44.7
			C345.5,151.6,359.6,165.8,377,165.8z M358.9,31.5c0-9.9,8.2-18.1,18.1-18.1h26.9c9.9,0,18.1,8.2,18.1,18.1v102.7
			c0,9.9-8.2,18.1-18.1,18.1H377c-9.9,0-18.1-8.2-18.1-18.1V31.5z M153.1,134.3c0,9.9-8.2,18.1-18.1,18.1h-26.9
			c-10,0-18.1-8.2-18.1-18.1V31.5c0-9.9,8.1-18.1,18.1-18.1H135c9.9,0,18.1,8.2,18.1,18.1V134.3z M153.1,480.5
			c0,9.9-8.2,18.1-18.1,18.1h-26.9c-10,0-18.1-8.2-18.1-18.1V377.7c0-9.9,8.1-18.1,18.1-18.1H135c9.9,0,18.1,8.2,18.1,18.1V480.5z
			 M358.9,377.7c0-9.9,8.2-18.1,18.1-18.1h26.9c9.9,0,18.1,8.2,18.1,18.1v102.7c0,9.9-8.2,18.1-18.1,18.1H377
			c-9.9,0-18.1-8.2-18.1-18.1V377.7z M287,402.4V452h-62v-49.6H287z M291.7,199.1v113.8h-71.4V199.1H291.7z M287,107.8h-62V58.1h62
			V107.8z"/>
	</g>
</g>
</svg>
