<?xml version="1.0" encoding="utf-8"?>
<!-- Generator: Adobe Illustrator 27.8.1, SVG Export Plug-In . SVG Version: 6.00 Build 0)  -->
<svg version="1.1" id="Layer_2_00000176045474861923109170000002933832166726913177_"
	 xmlns="http://www.w3.org/2000/svg" xmlns:xlink="http://www.w3.org/1999/xlink" x="0px" y="0px" viewBox="0 0 512 512"
	 style="enable-background:new 0 0 512 512;" xml:space="preserve">
<style type="text/css">
	.st0{fill:#FFFFFF;}
</style>
<g id="Layer_2-2">
	<g>
		<path class="st0" d="M498.6,290.7v26.2h-52.4v-24.7L411.3,249h-33v-53.7h-90.9v-43.9h44.1V78H155.2v73.4h44.1v43.9h-61.9v43.9
			H59.8v63.6H13.4v-35.3H0v84h13.4v-35.3h46.3V391H144l39,43h263v-25.1h52.4v24.9H512V290.7H498.6L498.6,290.7z M137.3,377.4h-64
			V252.5h64V377.4L137.3,377.4z M199.2,420.5H190l-39.3-42.2V208.6h48.4L199.2,420.5L199.2,420.5z M168.6,137.9V91.3h149.3v46.5
			L168.6,137.9L168.6,137.9z M273.9,151.3v43.9h-61.2v-43.9L273.9,151.3L273.9,151.3z M432.7,420.5h-220V208.6h152.2v53.7h40
			l27.8,34.4V420.5L432.7,420.5z M498.6,395.3h-52.4v-65.2h52.4V395.3z"/>
	</g>
</g>
</svg>
