<?xml version="1.0" encoding="utf-8"?>
<!-- Generator: Adobe Illustrator 27.8.1, SVG Export Plug-In . SVG Version: 6.00 Build 0)  -->
<svg version="1.1" id="Layer_2_00000000940454647739839710000010558700821273173157_"
	 xmlns="http://www.w3.org/2000/svg" xmlns:xlink="http://www.w3.org/1999/xlink" x="0px" y="0px" viewBox="0 0 512 512"
	 style="enable-background:new 0 0 512 512;" xml:space="preserve">
<style type="text/css">
	.st0{fill:#FFFFFF;}
</style>
<g id="Layer_2-2">
	<g>
		<path class="st0" d="M487,59.6L428.1,0.7l-51.2,51.2L330.3,5.1L99.1,236.2l46.8,46.8L41,387.9l24.7,24.7l-39.9,39.8l9.5,9.5
			l49.4-49.4L60,387.8l95.4-95.4l39.9,39.9l-55.6,55.6l24.7,24.7l-89.2,89.1l9.5,9.5l98.7-98.7l-24.7-24.7l46-46l46.7,46.7
			l231.1-231.1l-46.7-46.7L487,59.6L487,59.6z M428.1,19.8L468,59.6l-37.2,37.2l-40-39.8L428.1,19.8z M251.5,369.5L118.1,236.2
			l42.3-42.3l133.3,133.3L251.5,369.5z M303.3,317.7L170,184.4L277.4,77l133.3,133.3L303.3,317.7L303.3,317.7z M463.6,157.4
			l-43.3,43.4L286.8,67.5l43.4-43.3L463.6,157.4z"/>
	</g>
</g>
</svg>
