<?xml version="1.0" encoding="utf-8"?>
<!-- Generator: Adobe Illustrator 27.8.1, SVG Export Plug-In . SVG Version: 6.00 Build 0)  -->
<svg version="1.1" id="Layer_2_00000019637327092048315470000009826212783776818106_"
	 xmlns="http://www.w3.org/2000/svg" xmlns:xlink="http://www.w3.org/1999/xlink" x="0px" y="0px" viewBox="0 0 512 512"
	 style="enable-background:new 0 0 512 512;" xml:space="preserve">
<style type="text/css">
	.st0{fill:#FFFFFF;}
</style>
<g id="Layer_2-2">
	<g>
		<path class="st0" d="M506.7,332.7l-1.6-4.8l-52.9-13.3l0.5-7.4c0.3-4.2,0.4-8.7,0.4-13.3c0-53.4-21.8-104.5-59.9-141.6l-8.9,10.1
			c35.3,34.5,55.4,82,55.4,131.5c0,2.4,0,4.5-0.1,6.5l-0.4,10.8L389.4,299l-0.1-6.7c-0.4-27.3-9.2-53.8-25-75.8L354,225
			c12.2,17.2,19.6,37.2,21.6,58.5l1.1,12.3L326,283.1l-1.2-5.2c-3.1-13.3-10.2-25.4-20.1-34.8l-3.9-3.7l50.8-177.7l-2.5-2.8
			c-23-25.5-56.9-40.2-93-40.2s-70,14.6-93,40.2l-2.5,2.8l15,52.3l-6.6,3.3c-10.8,5.3-21.1,11.7-30.9,19c-30.8,23-54.5,55-67.5,91
			l12.7,3.9c15.5-42.9,45.9-77.9,86.2-99.4l9.6-5.1l14.2,49.6l-5.8,3.5c-9,5.4-17.4,11.8-24.9,19.2l10.1,8.9
			c4.5-4.2,9.2-8.2,14.2-11.7l10.2-7.2l14.4,50.2l-3.9,3.7c-9.9,9.4-16.9,21.5-20.1,34.6l-1.2,5.2l-50.7,12.5l1.1-12.3
			c0.9-10.9,3.4-21.6,7.4-31.7l-12.1-5.7c-5.8,14.7-8.8,30.2-9,46.1l-0.1,6.7l-116,28.9l-1.1,3.5C-4.9,363.3-0.6,400,17.3,431.3
			c18,31.3,47.6,53.4,81.1,60.5l3.6,0.8l38-39.2l6.1,4.1c32.5,21.9,70.6,33.5,110,33.5c10.7,0,21.2-0.8,31.7-2.5l-2.7-13.2
			c-9.5,1.6-19.3,2.3-29,2.3c-34.5,0-68.2-9.7-97.4-28.1l-9.2-5.8l35.8-36.9l5.9,3.3c17.2,9.6,36.5,15.3,56.2,16.7v-13.5
			c-14.5-1-28.5-4.7-41.7-10.9l-11.2-5.2l36.3-37.4l5.1,1.6c13.1,3.9,27.3,3.9,40.3,0.1l5.2-1.6l2.2,2.3l0.3,0.4L409.6,493l3.6-0.7
			c33.6-7.2,63.2-29.1,81.4-60.3C512.4,401.2,516.7,365.1,506.7,332.7L506.7,332.7z M175.5,64.9l3.9-3.7
			C199.8,42.4,226.9,32,256.1,32s56.3,10.4,76.6,29.2l3.9,3.7l-47.7,166.2L280,228c-7.7-2.8-15.8-4.2-24-4.2s-16.4,1.5-24,4.2
			l-8.9,3.2L175.5,64.9L175.5,64.9z M98.7,476.9h-5.1l-1.2-0.4C66,468.3,43.5,450,29,424.7c-14.6-25.2-19.2-53.9-13-80.8l1.2-5.3
			L185.1,297l1.7,9.3c2.8,16.2,11.3,31,23.9,41.7l7.3,6.1L98.7,476.9L98.7,476.9z M256.1,351.2c-31.4,0-57-25.6-57-57s25.6-57,57-57
			s57,25.6,57,57S287.5,351.2,256.1,351.2z M482.9,425.4c-14.6,25.2-37.2,43.5-63.6,51.6l-5.2,1.6l-120-124.5l7.3-6
			c12.6-10.7,21.2-25.4,24.1-41.6l1.7-9.3l167.7,42l1.2,5.3C502.1,371.4,497.4,400.2,482.9,425.4L482.9,425.4z"/>
	</g>
</g>
</svg>
