<?xml version="1.0" encoding="utf-8"?>
<!-- Generator: Adobe Illustrator 27.8.1, SVG Export Plug-In . SVG Version: 6.00 Build 0)  -->
<svg version="1.1" id="Layer_2_00000023994061461855718610000012592701045869598372_"
	 xmlns="http://www.w3.org/2000/svg" xmlns:xlink="http://www.w3.org/1999/xlink" x="0px" y="0px" viewBox="0 0 512 512"
	 style="enable-background:new 0 0 512 512;" xml:space="preserve">
<style type="text/css">
	.st0{fill:#FFFFFF;}
</style>
<g>
	<path class="st0" d="M486,47.1c-20.3-9.4-44.4-2-55.9,17.2l-43.3,72.4l-49.3,20.9l-15.7-37l30.2-12.9l-29.9-70.3L192.4,92.6
		l29.9,70.3l26.9-11.4l15.7,37L197.8,217c-2.8,1.2-5.1,3.2-6.7,5.8l-28,45.5c-1.1,1.8-3.1,2.7-5.2,2.4l-98.3-13.6
		c-5.6-0.8-11.3,1.5-14.8,5.9l-20.5,26c-3.5,4.5-4.3,10.5-2.1,15.8l10.2,24c3.8,8.9,14,13,22.9,9.2l18.8-8c0.1,0,0.2,0,0.2,0
		L289,397.9c3.8,1.2,7.9,1,11.6-0.6l145.6-61.9c27.9-11.9,43-42.9,35.1-72.2l-17-63.3l43.2-95.2C517.3,83,507.7,57.1,486,47.1z
		 M229.8,144.5L210.9,100l103.9-44.2l18.9,44.5l-17.3,7.4l-72.6,30.9L229.8,144.5z M262.2,145.9l46.7-19.9l15.7,37l-46.7,20
		L262.2,145.9z M440.6,322.5L295,384.4c-0.6,0.2-1.2,0.3-1.8,0.1L78.7,316.7c-3.3-1-6.8-0.9-9.9,0.5l-18.8,8
		c-1.7,0.7-3.8-0.1-4.5-1.8l-10.2-24c-0.2-0.5-0.1-1.1,0.2-1.6l20.5-26c0.2-0.3,0.5-0.5,0.8-0.6s0.7-0.2,1.1-0.1l98.3,13.6
		c7.6,1,15-2.5,19-9l28-45.5c0.1-0.1,0.2-0.2,0.3-0.2l67.2-28.6l72.6-30.9l81.8-34.8c1.7-0.7,3.6-0.7,5.3,0.1
		c1.7,0.8,2.9,2.3,3.4,4.1L468,266.8C473.8,289.4,462.2,313.3,440.6,322.5z M494.6,99l-36.2,79.7L447,136.3
		c-1.5-5.7-5.5-10.5-10.8-13c-5.3-2.6-11.5-2.7-16.9-0.4l-10.6,4.5l33.4-55.8c7.8-13.1,24.1-18.1,37.9-11.7
		C494.8,66.6,501.3,84.2,494.6,99z"/>
	<path class="st0" d="M56.7,367.6c-2.7-4.5-7.4-7.1-12.6-7.1s-9.9,2.7-12.6,7.1L6.9,408.7c-4.3,7.1-6.4,15.2-6.2,23.5
		c0.6,23.5,20,42.4,43.4,42.4c0.2,0,0.5,0,0.7,0c23.6-0.4,42.7-19.9,42.7-43.4c0-7.9-2.1-15.6-6.2-22.3L56.7,367.6z M44.6,460.5
		c-16.1,0.3-29.5-12.6-29.9-28.7c-0.1-5.6,1.3-11.1,4.2-15.9l24.6-41.1c0.1-0.1,0.2-0.3,0.5-0.3s0.5,0.2,0.5,0.3L69,415.7l0.2,0.3
		c2.8,4.6,4.2,9.8,4.2,15.2C73.5,447.1,60.6,460.3,44.6,460.5z"/>
</g>
</svg>
