<?xml version="1.0" encoding="utf-8"?>
<!-- Generator: Adobe Illustrator 27.8.1, SVG Export Plug-In . SVG Version: 6.00 Build 0)  -->
<svg version="1.1" id="Layer_2_00000142174508862132257680000018222014530047236263_"
	 xmlns="http://www.w3.org/2000/svg" xmlns:xlink="http://www.w3.org/1999/xlink" x="0px" y="0px" viewBox="0 0 512 512"
	 style="enable-background:new 0 0 512 512;" xml:space="preserve">
<style type="text/css">
	.st0{fill:#FFFFFF;}
</style>
<g id="Layer_2-2">
	<g>
		<path class="st0" d="M272,77.7V0H128.9v79.5L78.6,183.6V512h354.9V181.5L272,77.7z M142.3,13.4h116.3v61.1H142.3V13.4z M420,498.6
			H92V186.7L139.7,88h123.5l156.9,100.8v309.7H420V498.6z"/>
		<path class="st0" d="M144.3,240v207.9h223.5V240H144.3z M354.4,434.4H157.7v-181h196.6v181H354.4z"/>
		<path class="st0" d="M259.1,298.8l-5.1-5.9l-5.1,5.9c-15.6,18.2-33.8,44.8-33.8,59.8c0,21.5,17.5,39,39,39s39-17.5,39-39
			C292.9,343.6,274.6,317,259.1,298.8z M279.5,358.6c0,14.1-11.5,25.5-25.5,25.5l0,0c-14.1,0-25.5-11.5-25.5-25.5v-0.2
			c0.2-8.9,11.6-26,18.4-35.3l7.1-9.8l7.1,9.8c6.8,9.3,18.2,26.4,18.4,35.3V358.6L279.5,358.6z"/>
		<rect x="187.1" y="174.8" class="st0" width="120" height="13.4"/>
	</g>
</g>
</svg>
