<?xml version="1.0" encoding="utf-8"?>
<!-- Generator: Adobe Illustrator 27.8.1, SVG Export Plug-In . SVG Version: 6.00 Build 0)  -->
<svg version="1.1" id="Layer_2_00000023994061461855718610000012592701045869598372_"
	 xmlns="http://www.w3.org/2000/svg" xmlns:xlink="http://www.w3.org/1999/xlink" x="0px" y="0px" viewBox="0 0 512 512"
	 style="enable-background:new 0 0 512 512;" xml:space="preserve">
<style type="text/css">
	.st0{fill:#FFFFFF;}
</style>
<g>
	<path class="st0" d="M436.4,75.6C388.2,27.4,324.2,0.9,256,0.9S123.8,27.4,75.6,75.6S0.9,187.8,0.9,256s26.5,132.2,74.7,180.4
		s112.3,74.7,180.4,74.7s132.2-26.5,180.4-74.7s74.7-112.3,74.7-180.4C511.1,187.8,484.6,123.8,436.4,75.6z M427,427
		c-45.7,45.7-106.4,70.8-171,70.8S130.6,472.7,85,427S14.1,320.6,14.1,256S39.3,130.6,85,85s106.4-70.8,171-70.8S381.4,39.3,427,85
		s70.8,106.4,70.8,171S472.7,381.4,427,427z"/>
	<path class="st0" d="M256,60.3C148.1,60.3,60.3,148.1,60.3,256S148.1,451.7,256,451.7S451.7,363.9,451.7,256S363.9,60.3,256,60.3z
		 M256,438.4c-98.4,0-178.8-78.3-182.3-175.8h40v-13.3h-40c1.6-45.3,19.9-86.5,48.8-117.5l28.2,28.2l9.4-9.4l-28.2-28.2
		c31.1-28.9,72.2-47.1,117.5-48.8v40h13.3v-40c45.3,1.6,86.5,19.9,117.5,48.8L352,150.6l9.4,9.4l28.2-28.2
		c28.9,31.1,47.1,72.2,48.8,117.5h-40v13.3h40C434.8,360.2,354.4,438.4,256,438.4z"/>
	<path class="st0" d="M262.6,213.4v-45.3h-13.3v45.3c-20.6,3.2-36.4,21.1-36.4,42.6s15.8,39.4,36.4,42.6v17h13.3v-17
		c20.6-3.2,36.4-21.1,36.4-42.6S283.2,216.6,262.6,213.4z M256,285.8c-16.4,0-29.8-13.4-29.8-29.8s13.4-29.8,29.8-29.8
		s29.8,13.4,29.8,29.8S272.4,285.8,256,285.8z"/>
	<rect x="215.5" y="357.5" class="st0" width="81" height="13.3"/>
</g>
</svg>
