<?xml version="1.0" encoding="utf-8"?>
<!-- Generator: Adobe Illustrator 27.8.1, SVG Export Plug-In . SVG Version: 6.00 Build 0)  -->
<svg version="1.1" id="Layer_2_00000121979239629503639620000015522761426999171497_"
	 xmlns="http://www.w3.org/2000/svg" xmlns:xlink="http://www.w3.org/1999/xlink" x="0px" y="0px" viewBox="0 0 512 512"
	 style="enable-background:new 0 0 512 512;" xml:space="preserve">
<style type="text/css">
	.st0{fill:#FFFFFF;}
</style>
<path class="st0" d="M487.9,76.5c4.5-2,8.5-4.8,12-8.2c15.5-15.6,15.5-40.9,0-56.3c-7.6-7.5-17.7-11.7-28.3-11.7
	c-10.6,0-20.7,4.2-28.2,11.7c-3.4,3.4-6.2,7.5-8.2,12L430,35.8L394.9,0.4l-51.9,52l18.5,18.5l-30.2,30.2l-14.2-24.2l-11.8,6.9
	l15.8,27.3l-35.6,35.6l-14.1-24.2l-11.8,6.9l15.8,27.2L240,192.1l-14.1-24.2l-11.8,6.9l15.8,27.2l-35.6,35.6l-14-24.3l-11.8,6.9
	l15.8,27.2L149.2,283l-14.1-24.2l-11.8,6.9l15.8,27.2l-51,51l-18.5-18.5l-51.9,51.9l31.9,31.9l-14.2,4.3
	c-7.8,2.4-15.1,6.8-20.9,12.6c-9.5,9.2-14.8,22-14.8,35.4s5.2,26,14.7,35.6c9.5,9.5,22.2,14.7,35.6,14.7s26-5.2,35.6-14.7
	c5.8-5.8,10.2-13.1,12.6-20.9l4.3-14.2l31.9,31.9l51.9-51.9l-18.5-18.5l30.1-30.1l14.1,24.2l11.8-6.9l-15.6-27.2l35.6-35.6
	l14.1,24.2l11.8-6.9L253.8,338l35.5-35.6l14.1,24.2l11.8-6.9l-15.8-27.2l35.6-35.6l14.1,24.2l11.8-6.9l-12.3-21l-3.6-6.1l35.6-35.6
	l14.1,24.2l11.8-6.9l-15.8-27.2l51.1-51.1l18.5,18.5l51.9-51.9L477,81.9L487.9,76.5L487.9,76.5z M445.5,38.3c0-0.6,0.1-1.2,0.2-1.8
	c0.7-5.8,3.5-11.1,7.5-15.1c0.6-0.6,1.2-1.1,1.9-1.7c0.2-0.2,0.4-0.4,0.6-0.5c1.2-0.9,2.5-1.8,4-2.5c0.3-0.2,0.6-0.3,0.9-0.4
	c0.5-0.2,1-0.4,1.6-0.6c0.3-0.1,0.5-0.2,0.8-0.3c0.7-0.3,1.6-0.5,2.3-0.7c0.2-0.1,0.5-0.1,0.7-0.2c0.2-0.1,0.4-0.1,0.7-0.1
	c0.4-0.1,0.8-0.1,1.2-0.2c1.2-0.2,2.6-0.3,4-0.3s2.6,0.1,4,0.3c0.4,0.1,0.8,0.1,1.2,0.2c0.2,0,0.5,0.1,0.8,0.2
	c0.2,0,0.4,0.1,0.6,0.1c0.8,0.2,1.6,0.4,2.3,0.7c0.3,0.1,0.6,0.2,0.9,0.3c0.5,0.2,0.9,0.4,1.5,0.6c0.3,0.1,0.6,0.3,0.9,0.4
	c2.9,1.6,5.5,3.6,7.7,6.1c0.2,0.2,0.4,0.4,0.5,0.6c0.3,0.3,0.5,0.7,0.8,1c0.2,0.3,0.4,0.6,0.6,0.9c0.1,0.2,0.2,0.3,0.3,0.5
	c0.1,0.2,0.3,0.5,0.4,0.7l0,0c0.2,0.3,0.4,0.7,0.6,1c0,0,0,0,0,0.1c0.2,0.3,0.3,0.7,0.5,1c0,0,0.1,0.1,0.1,0.2
	c0.1,0.3,0.3,0.6,0.4,1c0,0,0,0,0,0.1c0.3,0.7,0.6,1.6,0.8,2.3c0,0.1,0.1,0.2,0.1,0.2c0.1,0.3,0.2,0.7,0.3,1c0,0,0,0,0,0.1
	c1,4.1,0.9,8.4,0,12.5c-0.1,0.4-0.2,0.8-0.3,1.2c-0.2,0.8-0.5,1.6-0.8,2.4c-0.2,0.4-0.3,0.8-0.5,1.1c-0.2,0.4-0.4,0.7-0.5,1.1
	c0,0,0,0,0,0.1c-0.2,0.4-0.4,0.7-0.6,1.1c-0.2,0.3-0.4,0.6-0.6,1l-0.1,0.1c-0.2,0.3-0.5,0.7-0.7,1s-0.5,0.7-0.8,1s-0.5,0.7-0.8,1
	s-0.6,0.6-0.9,0.9c-0.3,0.3-0.6,0.6-0.9,0.8l0,0c-0.3,0.3-0.6,0.6-1,0.8c-0.6,0.5-1.2,1-2,1.5c-1.8,1.2-3.6,2.2-5.6,2.9
	c-0.8,0.3-1.7,0.5-2.5,0.7c-0.3,0.1-0.6,0.2-0.9,0.2c-0.5,0.1-1.1,0.2-1.7,0.3c-0.4,0.1-0.8,0.1-1.4,0.2c-0.8,0.1-1.8,0.1-2.7,0.1
	c-0.9,0-1.8,0-2.7-0.1c-0.4,0-0.9-0.1-1.4-0.2c-0.4-0.1-0.8-0.1-1.1-0.2c-0.2,0-0.5-0.1-0.7-0.2c-0.2,0-0.5-0.1-0.7-0.2
	c-0.8-0.2-1.7-0.4-2.5-0.7s-1.6-0.6-2.4-1c-0.4-0.2-0.7-0.4-1.1-0.6c-0.4-0.2-0.7-0.4-1.1-0.6c-1-0.6-2.1-1.4-3-2.2
	c-0.6-0.5-1.1-1-1.8-1.6c-0.1-0.1-0.1-0.1-0.2-0.2c-0.1-0.1-0.1-0.1-0.2-0.2c-0.5-0.5-1-1.1-1.6-1.8c-1.1-1.4-2.1-2.9-3-4.5
	c-0.1-0.3-0.3-0.6-0.4-0.9c-0.2-0.5-0.5-1-0.7-1.6c-0.1-0.2-0.2-0.5-0.3-0.7c-0.1-0.3-0.2-0.7-0.3-1c-0.1-0.2-0.1-0.4-0.2-0.7
	c-0.1-0.2-0.1-0.4-0.2-0.7c-0.2-0.8-0.4-1.7-0.5-2.5c-0.2-1.2-0.3-2.6-0.3-4C445.5,38.8,445.5,38.5,445.5,38.3
	C445.5,38.9,445.5,38.6,445.5,38.3L445.5,38.3z M76.1,487.5c-7,7-16.1,10.7-25.9,10.7s-19.1-3.9-25.9-10.7
	c-6.9-7-10.7-16.1-10.7-25.9s3.9-19.1,10.7-25.9c7-7,16.1-10.7,25.9-10.7c8.5,0,16.6,2.9,23.1,8.1h0.3l2.6,2.6
	c7,7,10.7,16.1,10.7,25.9C87,471.4,83.1,480.5,76.1,487.5z M134.5,474.6l-6.2-6.2l-91-91L70,344.7l97.3,97.3L134.5,474.6z
	 M158.2,413.8l-60.3-60.3l48.5-48.4l44.5,76.1L158.2,413.8L158.2,413.8z M200.8,371.3l-44.5-76.1l35.6-35.6l44.5,76.1L200.8,371.3
	L200.8,371.3z M246.3,325.8l-44.5-76.1l35.6-35.6l44.4,76.2L246.3,325.8L246.3,325.8z M291.7,280.4l-44.5-76.1l35.5-35.6l44.5,76.1
	L291.7,280.4z M337.3,234.9l-44.5-76.1l35.6-35.6l44.5,76.1L337.3,234.9z M382.7,189.4l-44.5-76.1l32.7-32.8l60.3,60.3L382.7,189.4z
	 M492.1,117l-32.7,32.7l-97.3-97.3l32-32.2L492.1,117z"/>
</svg>
