<?xml version="1.0" encoding="utf-8"?>
<!-- Generator: Adobe Illustrator 27.8.1, SVG Export Plug-In . SVG Version: 6.00 Build 0)  -->
<svg version="1.1" id="Layer_2_00000023994061461855718610000012592701045869598372_"
	 xmlns="http://www.w3.org/2000/svg" xmlns:xlink="http://www.w3.org/1999/xlink" x="0px" y="0px" viewBox="0 0 512 512"
	 style="enable-background:new 0 0 512 512;" xml:space="preserve">
<style type="text/css">
	.st0{fill:#FFFFFF;}
</style>
<g id="Layer_2-2">
	<g>
		<path class="st0" d="M475.1,414l-6.4-1.8V99.7l6.4-1.8c21.5-5.9,36.6-25.6,36.6-47.9c0-27.4-22.3-49.7-49.7-49.7
			S412.3,22.6,412.3,50c0,22.3,15,41.9,36.5,47.8l6.4,1.8v149.6H331V99.7l6.4-1.8C358.9,92,374,72.3,374,50.1
			c0-27.4-22.3-49.7-49.7-49.7s-49.7,22.3-49.7,49.7c0,22.3,15,41.9,36.5,47.8l6.4,1.8v149.6H193.4V99.7l6.4-1.8
			c21.5-5.9,36.5-25.6,36.5-47.8c0-27.4-22.3-49.7-49.7-49.7s-49.7,22.3-49.7,49.7c0,22.3,15,41.9,36.5,47.8l6.4,1.8v149.6H58.9
			V99.2l6.1-2c20.6-6.6,34.4-25.6,34.4-47.3c0-27.4-22.3-49.7-49.7-49.7S0.3,22.6,0.3,50c0,22.9,16.2,43.3,38.5,48.5l6.8,1.5v162.6
			h134.2v149.6l-6.4,1.8c-21.5,5.9-36.5,25.6-36.5,47.9c0,27.4,22.3,49.7,49.7,49.7s49.7-22.3,49.7-49.7c0-22.3-15-41.9-36.6-47.9
			l-6.4-1.8V262.6h124.3v149.6l-6.4,1.8c-21.5,5.9-36.5,25.6-36.5,47.9c0,27.4,22.3,49.7,49.7,49.7s49.7-22.3,49.7-49.7
			c0-22.3-15-41.9-36.5-47.9l-6.4-1.8V262.6h124.2v149.6L449,414c-21.5,5.9-36.5,25.6-36.5,47.8c0,27.4,22.3,49.7,49.7,49.7
			s49.7-22.3,49.7-49.7C511.7,439.5,496.7,419.9,475.1,414L475.1,414z M13.7,50C13.7,30.1,30,13.7,50,13.7S86.3,30.1,86.3,50
			S69.9,86.3,50,86.3S13.7,69.9,13.7,50z M222.9,461.8c0,20-16.2,36.3-36.3,36.3s-36.3-16.2-36.3-36.3s16.2-36.3,36.3-36.3
			S222.9,441.9,222.9,461.8z M186.7,86.3c-20,0-36.3-16.2-36.3-36.3s16.2-36.3,36.3-36.3S222.9,30,222.9,50S206.6,86.3,186.7,86.3z
			 M288,50c0-19.9,16.2-36.3,36.3-36.3c20,0,36.3,16.3,36.3,36.3s-16.2,36.3-36.3,36.3S288,69.9,288,50z M360.5,461.8
			c0,20-16.2,36.3-36.3,36.3c-20,0-36.3-16.3-36.3-36.3s16.2-36.3,36.3-36.3S360.5,441.9,360.5,461.8z M425.7,50
			c0-19.9,16.2-36.3,36.3-36.3c20,0,36.3,16.3,36.3,36.3S482,86.3,462,86.3S425.7,69.9,425.7,50z M462,498.1
			c-20,0-36.3-16.2-36.3-36.3s16.2-36.3,36.3-36.3c20,0,36.3,16.3,36.3,36.3S482,498.1,462,498.1z"/>
	</g>
</g>
</svg>
